<svg xmlns="http://www.w3.org/2000/svg" xmlns:xlink="http://www.w3.org/1999/xlink" viewBox="0 0 327.83 211.66" width="32" height="32"><defs><linearGradient id="c" x1=".409" x2="1.373" y1=".488" y2="-.029"><stop offset="0" stop-color="#63fc90"/><stop offset=".16" stop-color="#61f999"/><stop offset=".42" stop-color="#5df1b2"/><stop offset=".75" stop-color="#56e3d9"/><stop offset="1" stop-color="#4fd7fd"/></linearGradient><linearGradient id="e" x1="-.472" x2=".492" y1=".771" y2=".521"><stop offset=".09" stop-color="#61f79d"/><stop offset=".21" stop-color="#5ff4a1" stop-opacity=".97"/><stop offset=".39" stop-color="#58eaac" stop-opacity=".89"/><stop offset=".62" stop-color="#4edbbf" stop-opacity=".76"/><stop offset=".9" stop-color="#3fc7d8" stop-opacity=".58"/><stop offset="1" stop-color="#39bee3" stop-opacity=".5"/></linearGradient><linearGradient xlink:href="#c" id="i" x1="114.9" x2="117.8" y1="92.21" y2="57.87"/><linearGradient id="j" x1=".592" x2="-.373" y1=".11" y2="1.427"><stop offset=".03" stop-color="#fff"/><stop offset=".15" stop-color="#d3f5fe"/><stop offset=".28" stop-color="#abecfe"/><stop offset=".41" stop-color="#8ae4fe"/><stop offset=".55" stop-color="#70defd"/><stop offset=".69" stop-color="#5ddafd"/><stop offset=".84" stop-color="#53d8fd"/><stop offset="1" stop-color="#4fd7fd"/></linearGradient><linearGradient xlink:href="#c" id="k" x1="202.86" x2="82.38" y1="18.15" y2="117.91"/><linearGradient id="l" x1=".691" x2=".13" y1=".008" y2=".98"><stop offset=".26" stop-color="#b5fcca"/><stop offset=".32" stop-color="#b4fbcc" stop-opacity=".96"/><stop offset=".42" stop-color="#b2f9d1" stop-opacity=".87"/><stop offset=".54" stop-color="#aff6d9" stop-opacity=".71"/><stop offset=".69" stop-color="#aaf2e4" stop-opacity=".49"/><stop offset=".85" stop-color="#a4edf2" stop-opacity=".21"/><stop offset=".96" stop-color="#9fe9fd" stop-opacity="0"/></linearGradient><linearGradient id="m" x1=".775" x2=".418" y1="1.11" y2=".314"><stop offset=".28" stop-color="#4fd7fd" stop-opacity="0"/><stop offset=".95" stop-color="#4fd7fd"/><stop offset=".97" stop-color="#4fd8fb"/><stop offset=".98" stop-color="#51daf3"/><stop offset=".98" stop-color="#53dfe5"/><stop offset=".99" stop-color="#57e6d2"/><stop offset=".99" stop-color="#5beeb9"/><stop offset="1" stop-color="#61f89b"/><stop offset="1" stop-color="#63fc90"/></linearGradient><linearGradient id="n" x1=".822" x2="1.612" y1=".39" y2=".195"><stop offset=".04" stop-color="#feffff"/><stop offset=".14" stop-color="#63fc90"/><stop offset=".28" stop-color="#61f999"/><stop offset=".5" stop-color="#5df1b2"/><stop offset=".78" stop-color="#56e3d9"/><stop offset="1" stop-color="#4fd7fd"/></linearGradient><linearGradient id="o" x1=".529" x2=".449" y1=".024" y2=".849"><stop offset=".03" stop-color="#fff"/><stop offset="1" stop-color="#4fd7fd"/></linearGradient><linearGradient xlink:href="#c" id="p" x1="9056.01" x2="9095.03" y1="2318.24" y2="2318.24" gradientTransform="scale(-1 1)rotate(-28.6 17.038 19468.199)"/><linearGradient xlink:href="#e" id="q" x1="293.27" x2="273.21" y1="50.59" y2="41.53"/><linearGradient xlink:href="#c" id="r" x1="267.71" x2="298.27" y1="35.47" y2="35.47"/><linearGradient xlink:href="#c" id="s" x1="227.12" x2="217" y1="95.16" y2="57.21"/><linearGradient xlink:href="#c" id="t" x1="9880.51" x2="9760.03" y1="18.15" y2="117.91" gradientTransform="matrix(-1 0 0 1 10013.9 0)"/><linearGradient id="v" x1=".31" x2=".87" y1=".008" y2=".98"><stop offset=".37" stop-color="#b5fcca"/><stop offset=".43" stop-color="#b4fbcc" stop-opacity=".96"/><stop offset=".52" stop-color="#b2f9d1" stop-opacity=".87"/><stop offset=".63" stop-color="#aff6d9" stop-opacity=".71"/><stop offset=".76" stop-color="#aaf2e4" stop-opacity=".49"/><stop offset=".9" stop-color="#a4edf2" stop-opacity=".21"/><stop offset="1" stop-color="#9fe9fd" stop-opacity="0"/></linearGradient><linearGradient id="w" x1=".225" x2=".582" y1="1.11" y2=".314"><stop offset=".28" stop-color="#4fd7fd" stop-opacity="0"/><stop offset=".94" stop-color="#4fd7fd"/><stop offset=".96" stop-color="#4fd8fb"/><stop offset=".97" stop-color="#51daf3"/><stop offset=".98" stop-color="#53dfe5"/><stop offset=".99" stop-color="#57e6d2"/><stop offset=".99" stop-color="#5beeb9"/><stop offset="1" stop-color="#61f89b"/><stop offset="1" stop-color="#63fc90"/></linearGradient><linearGradient xlink:href="#c" id="x" x1="9124" x2="9139.66" y1="2365.19" y2="2365.19" gradientTransform="scale(-1 1)rotate(-28.6 17.038 19468.199)"/><linearGradient id="H" x1=".502" x2=".502" y1=".11" y2="1.093"><stop offset="0" stop-color="#cce6ff"/><stop offset=".57" stop-color="#a9d6ff"/><stop offset="1" stop-color="#1d98ff"/></linearGradient><linearGradient id="I" x1=".607" x2="-.207" y1=".461" y2=".825"><stop offset="0" stop-color="#fff"/><stop offset="1" stop-color="#88cfff"/></linearGradient><linearGradient id="J" x1=".024" x2=".024" y1=".516" y2="1.793"><stop offset="0" stop-color="#cce6ff"/><stop offset="1" stop-color="#1d98ff"/></linearGradient><linearGradient id="K" x1=".086" x2=".086" y1=".664" y2="1.755"><stop offset="0" stop-color="#fff"/><stop offset="1" stop-color="#a3d3ff"/></linearGradient><linearGradient id="L" x1=".335" x2=".335" y1=".986" y2="-.193"><stop offset="0" stop-color="#cce6ff"/><stop offset="1" stop-color="#1d98ff"/></linearGradient><radialGradient id="f" cx="13.05" cy="134.48" r="6.15" gradientTransform="matrix(1 0 0 .62 0 50.8)" gradientUnits="userSpaceOnUse"><stop offset=".08" stop-color="#bde7f5"/><stop offset=".43" stop-color="#41c8f5"/><stop offset="1" stop-color="#1b62c1"/></radialGradient><radialGradient id="a" cx="47.18" cy="118.47" r="201.2" gradientTransform="matrix(1 0 0 .67 0 38.78)" gradientUnits="userSpaceOnUse"><stop offset=".04" stop-color="#b5e5f5"/><stop offset=".49" stop-color="#41c8f5"/><stop offset="1" stop-color="#1b62c1"/></radialGradient><radialGradient xlink:href="#a" id="h" cx="223.25" cy="118.47" r="201.2"/><radialGradient id="g" cx="50.06" cy="104.07" r="159.83" gradientTransform="matrix(1 0 0 .44 0 57.91)" gradientUnits="userSpaceOnUse"><stop offset=".08" stop-color="#b3e4f5"/><stop offset=".15" stop-color="#afe3f5"/><stop offset=".22" stop-color="#a4e0f5"/><stop offset=".29" stop-color="#90dbf5"/><stop offset=".35" stop-color="#75d5f5"/><stop offset=".42" stop-color="#53ccf5"/><stop offset=".45" stop-color="#41c8f5"/><stop offset=".47" stop-color="#46c9f5"/><stop offset=".5" stop-color="#54cdf6"/><stop offset=".53" stop-color="#6bd4f7"/><stop offset=".56" stop-color="#8cddf8"/><stop offset=".6" stop-color="#b5e8f9"/><stop offset=".63" stop-color="#e8f6fb"/><stop offset=".64" stop-color="#fcfcfc"/><stop offset=".7" stop-color="#6bbaff"/><stop offset="1" stop-color="#41c8f5"/></radialGradient><radialGradient id="y" cx="39.05" cy="116.55" r="22.08" gradientUnits="userSpaceOnUse"><stop offset="0" stop-color="#bde7f5"/><stop offset=".07" stop-color="#bae6f5"/><stop offset=".11" stop-color="#b2e4f5"/><stop offset=".15" stop-color="#a3e0f5"/><stop offset=".18" stop-color="#8edbf5"/><stop offset=".21" stop-color="#73d5f5"/><stop offset=".24" stop-color="#52ccf5"/><stop offset=".25" stop-color="#41c8f5"/><stop offset="1" stop-color="#1b62c1"/></radialGradient><radialGradient id="z" cx="48.4" cy="123.08" r="8.14" gradientUnits="userSpaceOnUse"><stop offset=".08" stop-color="#bde7f5"/><stop offset=".39" stop-color="#41c8f5"/><stop offset="1" stop-color="#1b62c1"/></radialGradient><radialGradient xlink:href="#f" id="A" cx="219" cy="122.2" r="10.72"/><radialGradient xlink:href="#f" id="B" cx="211.21" cy="121.32" r="13.63"/><radialGradient xlink:href="#f" id="C" cx="143.77" cy="118.72" r="12.42"/><radialGradient xlink:href="#f" id="D" cx="144.55" cy="113.62" r="10.47"/><radialGradient xlink:href="#f" id="E" cx="3609.88" cy="5488.87" r="9.07" gradientTransform="rotate(58.5 6713.354 -322.806)"/><radialGradient id="F" cx="4901.38" cy="6059.62" r="13.93" gradientTransform="rotate(71.03 6703.312 -254.964)" gradientUnits="userSpaceOnUse"><stop offset=".08" stop-color="#bde7f5"/><stop offset=".44" stop-color="#41c8f5"/><stop offset="1" stop-color="#1b62c1"/></radialGradient><radialGradient xlink:href="#g" id="G" cx="234.4" cy="101.06" r="159.83" gradientTransform="matrix(1 0 0 .44 0 56.23)"/></defs><path fill="url(#f)" d="M11.27 133a4 4 0 0 0-1.66.11 1.54 1.54 0 0 0-1.06 1.2 1.57 1.57 0 0 0 1.21 1.52 4.6 4.6 0 0 0 2.09-.06l5.06-.93c.23 0 1-.11.49-.35a8 8 0 0 0-1.1-.41 21 21 0 0 0-5-1.08z"/><path fill="url(#a)" d="M25.56 93.14c-1.67-1-3.61-2.55-3.1-4.43.45-1.71 2.54-2.22 4.24-2.47l12-1.74.9-.13 3.07-.45a25 25 0 0 1 7-.35 8.44 8.44 0 0 1 5.94 3.29c.7-.4.45-1.51-.12-2.08s-1.37-.93-1.75-1.64c-.79-1.5 1.14-3.29 2.8-3s2.76 1.93 3.4 3.51 1 3.29 2.07 4.62 3.13 2.08 4.47 1c2.66-2.09-1.08-7.34 1.52-9.51 1.29-1.08 3.33-.46 4.56.69s2 2.72 3.18 3.91 3.13 2 4.53 1c.54-.35.92-.9 1.46-1.25 1.91-1.22 4.31.84 5.21 2.92s1.45 4.64 3.47 5.68c2.18 1.12 4.93-.3 6.31-2.32s1.86-4.5 2.74-6.79 2.42-4.61 4.8-5.17c1.68-.4 3.42.14 5.14.26a10.34 10.34 0 0 0 8.18-3.27c-.1 3.57-2.93 6.38-5.56 8.79l16.45-8c2.31-1.13 5.44-2.12 7.15-.2a3 3 0 0 1-4.25 4.14 7.11 7.11 0 0 1 4 4.41 39 39 0 0 0-15.95 3.48 93 93 0 0 0-12.24 7.31c-9.64 6.32-19.89 12-31.06 14.85-1.91.48-3.85.87-5.8 1.17a58 58 0 0 1-5.87.58 50 50 0 0 1-5.88-.06 46 46 0 0 1-5.82-.75 42.5 42.5 0 0 1-5.66-1.5 34 34 0 0 1-5.36-2.31 7.47 7.47 0 0 1-3.37-3.73 18.5 18.5 0 0 0-1.22-3.18c-1-1.48-2.83-2.26-4.31-3.13L26.94 94z"/><path fill="url(#h)" d="M201.63 93.14c-1.68-1-3.61-2.55-3.11-4.43.46-1.68 2.53-2.22 4.25-2.47l11.95-1.74.91-.13 3.06-.45a25.1 25.1 0 0 1 7-.35 8.46 8.46 0 0 1 5.94 3.29c.7-.4.45-1.51-.12-2.08s-1.37-.93-1.75-1.64c-.8-1.5 1.14-3.29 2.8-3s2.76 1.93 3.39 3.51 1 3.29 2.08 4.62 3.13 2.08 4.46 1c2.66-2.09-1.07-7.34 1.52-9.51 1.3-1.08 3.34-.46 4.56.69s2 2.72 3.18 3.91 3.14 2 4.54 1c.53-.35.91-.9 1.45-1.25 1.92-1.22 4.31.84 5.21 2.92s1.46 4.64 3.48 5.68c2.18 1.12 4.92-.3 6.31-2.32s1.86-4.5 2.73-6.79 2.43-4.61 4.81-5.17c1.68-.4 3.42.14 5.14.26a10.34 10.34 0 0 0 8.18-3.27c-.1 3.57-2.93 6.38-5.57 8.79l16.46-8c2.31-1.13 5.44-2.12 7.14-.2a3 3 0 0 1-4.25 4.14 7.11 7.11 0 0 1 4 4.41 39 39 0 0 0-15.94 3.48 93 93 0 0 0-12.24 7.31c-9.65 6.32-19.89 12-31.07 14.85q-2.87.72-5.79 1.17a58 58 0 0 1-5.87.58 50 50 0 0 1-5.88-.06 46 46 0 0 1-5.82-.75 42.5 42.5 0 0 1-5.66-1.5 34 34 0 0 1-5.36-2.31 7.5 7.5 0 0 1-3.38-3.73 17 17 0 0 0-1.22-3.18c-1-1.48-2.82-2.26-4.3-3.13L203 94z"/><path fill="url(#c)" d="M73.6 22.69a39.5 39.5 0 0 1-20.25 6.25 17.65 17.65 0 0 0-15.07 8.47 1.87 1.87 0 0 0 1.65 2.88c7.21-.41 17.07 3.22 15.87 18.58C63.74 45 73.6 22.69 73.6 22.69"/><path fill="url(#e)" d="M68.54 25.44a31 31 0 0 0 5.06-2.75S63.74 45 55.8 58.87c.48-6.2-.84-10.48-3-13.37 3.89-7.76 7.74-15.5 15.74-20.06"/><path fill="url(#i)" d="M113.46 66.47s.13 6.77-1.19 8.94c7-6 9.17-12.7 9.38-15.26-3.65 1.85-8.19 6.32-8.19 6.32"/><path fill="url(#j)" d="M159.53 13.36c-5.31.22-7 1-9.95.23-9.46 1.19-12.06 6.8-19 9.11-3.92 1.3-6.45.68-9.53.71-27.41.29-68.24 70.2-31 136 1.49 2.64 6.57 5.92 9.37 5-5.71 1.39-15.42-11.57-12.79-37.67s11.06-49.09 31.84-64.23 29.55-27.13 32-30.72 12.83-8.89 14.94-12.09-.58-6.55-5.88-6.34"/><path fill="url(#k)" d="M90.05 159.43c-37.27-65.82 3.56-135.73 31-136 3.08 0 5.61.59 9.53-.71 7-2.31 9.57-7.92 19-9.11-1.44-.37-7.09-8.45-19.32-11.89C117.7-1.82 98.35-.54 80.6 12 41 41 41.91 132.92 90.37 175c-2.09 13.64 2.94 32.93 8.62 36.7-.73-16.43 1.4-27.69 5-33.78 4.72-6.74 13.59-15.52 23.85-21.95-6.12-4.89-22.26 7.72-28.46 8.53-2.76.85-7.84-2.43-9.33-5.07"/><path fill="url(#l)" d="M139.76 5.84a38.5 38.5 0 0 0-8.23-3.38C118.77-1.12 99.1.19 81.06 12.92 62.38 26.6 52.57 54.09 52.35 83.9 52.12 53.78 61.78 25.77 80.6 12 98.35-.54 117.7-1.83 130.26 1.7a37.8 37.8 0 0 1 9.5 4.14"/><path fill="#002f56" d="M131.83 19.84a14.4 14.4 0 0 1-3.25-1.94 2.85 2.85 0 0 0-3.77.08 15 15 0 0 1-2.88 1.48 5.92 5.92 0 0 0 5.13 2 11.3 11.3 0 0 0 4.77-1.62"/><path fill="url(#m)" d="M120.61 48a47.5 47.5 0 0 1 4.09 9.84c3.25-2.57 6.15-5 8.71-7.32a102 102 0 0 0-1.1-10.62c-.14-1.24-1-5.07-1.51-5.84C130.29 37.2 120.61 48 120.61 48"/><path fill="url(#n)" d="M120.61 48s9.68-10.8 10.19-14c.54.76 1.37 4.6 1.51 5.84.82 7.54 11.12 22.13 1.91 32.71-.81-5.66-6.51-21.74-13.61-24.55"/><path fill="url(#o)" d="M246.2 159.43c-1.49 2.64-6.57 5.92-9.37 5 5.71 1.34 15.44-11.62 12.8-37.72s-11.06-49.09-31.85-64.22c-2.2-1.61-4.28-3.19-6.22-4.72-3.26-2.57-6.16-5-8.72-7.32-10.32-9.25-15.31-16.12-17.08-18.69-2.47-3.56-12.76-8.86-14.91-12.06s.58-6.55 5.88-6.33 7 1 9.94.22c9.46 1.19 12.06 6.8 19 9.11 3.93 1.3 6.46.68 9.54.71 27.43.29 68.27 70.2 30.99 136.02"/><path fill="url(#p)" d="M262.65 22.69a39.56 39.56 0 0 0 20.25 6.25 17.67 17.67 0 0 1 15.1 8.47 1.87 1.87 0 0 1-1.65 2.88c-7.22-.41-17.07 3.22-15.88 18.58-7.96-13.87-17.82-36.18-17.82-36.18"/><path fill="url(#q)" d="M267.71 25.44a31 31 0 0 1-5.06-2.75s9.86 22.32 17.8 36.18c-.48-6.2.84-10.48 3.06-13.37-3.95-7.76-7.79-15.5-15.8-20.06"/><path fill="url(#r)" d="M298 37.41a17.67 17.67 0 0 0-15.08-8.47 40.8 40.8 0 0 1-15.19-3.5c8 4.53 11.85 12.3 15.8 20.06 3.27-4.26 8.51-5.45 12.82-5.21a1.87 1.87 0 0 0 1.65-2.88"/><path fill="url(#s)" d="M222.79 66.47s-.13 6.77 1.19 8.94c-7-6-9.17-12.7-9.37-15.26 3.63 1.85 8.18 6.32 8.18 6.32"/><path fill="url(#t)" d="M246.2 159.43c37.28-65.82-3.56-135.73-31-136-3.08 0-5.61.59-9.54-.71-7-2.31-9.57-7.92-19-9.11 1.44-.37 7.09-8.45 19.32-11.89C218.55-1.82 237.91-.54 255.65 12c39.57 29 38.7 120.93-9.77 163 2.09 13.64-2.93 32.93-8.62 36.7.74-16.43-1.4-27.69-5-33.78-4.72-6.74-13.58-15.52-23.84-21.95 6.11-4.89 22.25 7.72 28.45 8.53 2.77.85 7.84-2.43 9.33-5.07"/><path fill="url(#v)" d="M196.49 5.84a38.7 38.7 0 0 1 8.23-3.38c12.76-3.58 32.43-2.27 50.47 10.46 18.68 13.68 28.49 41.17 28.71 71 .24-30.12-9.43-58.13-28.25-71.91C237.91-.54 218.55-1.83 206 1.7a37.8 37.8 0 0 0-9.51 4.14"/><path fill="#002f56" d="M204.43 19.84a14.2 14.2 0 0 0 3.24-1.94 2.87 2.87 0 0 1 3.78.08 14.7 14.7 0 0 0 2.87 1.48 5.89 5.89 0 0 1-5.12 2 11.2 11.2 0 0 1-4.77-1.62"/><path fill="url(#w)" d="M215.64 48a47 47 0 0 0-4.08 9.84c-3.26-2.57-6.16-5-8.72-7.32a104 104 0 0 1 1.1-10.62c.14-1.24 1-5.07 1.52-5.84C206 37.2 215.64 48 215.64 48"/><path fill="url(#x)" d="M215.64 48S206 37.2 205.46 34c-.54.76-1.38 4.6-1.52 5.84-.82 7.56-11.12 22.16-1.94 32.73.84-5.68 6.54-21.76 13.64-24.57"/><path fill="url(#g)" d="M22 86.66a5.21 5.21 0 0 0-6.53.35 4.27 4.27 0 0 0 1.45 7 9.1 9.1 0 0 0 4.56.13c2.58-.45 5.29-1.25 7.69.38a3.09 3.09 0 0 1 1.19 3.74c-.66 1.52-2.42 1.85-4 2l-12 1.55c-3.6.47-7.35 1-10.37 3s-5 6-3.57 9.38c1.87 4.28 7.85 4.79 12.31 3.41s8.76-4 13.42-3.59c-4.78 1.92-12.9 10.09-7.91 13.23 4.2 2.63 8.27-6 16.13-9.36 11.38-4.82 22.5-3.87 25.18-2.11 6.14 4 3.68 8.76 4.39 13.49s2.23 10.19 6.7 11.9c4.3 1.64 9-1.15 12.44-4.19s6.94-9.87 11.53-10.24c3.09-.24 6.68 3.35 9 5.41a8.8 8.8 0 0 0 9 2c3-.9 3.58-4.07 2-6.76 2.06-.13 4.7.26 4.78-3.52.11-4.75-8.44-7-8.7-11.78-.28-4.93 12.65 1.35 16.66 4.24 8.19 5.92 25.41-1.92 9.57-11.86 2.1 1.21 5.19-1.82 5.12-4.24-.21-8-18.41-6.7-23.8-7.34a19 19 0 0 0 8-1.38 2.07 2.07 0 0 0-.58-4c-5.76-.43-11.76 1.39-17 4-6.93 3.49-13.11 8.35-20.06 11.79-11.08 5.49-24.35 7.12-36 3-6.62-2.37-12.47-6.46-18.24-10.5L24.59 89z"/><path fill="url(#y)" d="M37.3 122c-2.94 2.26-3.55 6.34-1.91 7.67.87.7 3.16 1.05 5.2-1.12 3.22-3.41 1.17-6.24 9-8.51-.97-.64-7.59-1.62-12.29 1.96"/><path fill="url(#z)" d="M47.69 124.53a1.89 1.89 0 0 0 .13 2.11 2 2 0 0 0 1.74.23 3.8 3.8 0 0 0 1.57-.58 1.53 1.53 0 0 0 .65-1.47c-.1-.45-.46-.83-.44-1.29 0-.64.73-1 1.18-1.43a2 2 0 0 0 .49-.77c.07-.18.24-.6 0-.72s-.54 0-.75.06a5.5 5.5 0 0 0-.81.27 6.94 6.94 0 0 0-2.75 2 6.7 6.7 0 0 0-.92 1.43z"/><path fill="url(#A)" d="M213.31 124.35a1.54 1.54 0 0 0 0 2.31 1.73 1.73 0 0 0 2.08-.68 13 13 0 0 0 .89-1.57 7 7 0 0 1 1.12-1.25 4.6 4.6 0 0 0-.72.15c-.42.08-.84.12-1.26.18a3.72 3.72 0 0 0-2.11.86"/><path fill="url(#B)" d="M203.71 124.78a5.4 5.4 0 0 0-1.66 1.44 2 2 0 0 0 2.38 3.17 4.53 4.53 0 0 0 2.38-2c.58-.89 1-1.88 1.65-2.74a5.86 5.86 0 0 1 1.87-1.87 12.8 12.8 0 0 0-4.46.91 11 11 0 0 0-2.16 1.09"/><path fill="url(#C)" d="M144.46 117.75a13.6 13.6 0 0 1 3.19-.12 4.5 4.5 0 0 1 2.84 1.32 2.75 2.75 0 0 1 .54 3 2.32 2.32 0 0 1-2.56 1.18c-1.47-.38-2.13-2-3.17-3.12a5 5 0 0 0-2.25-1.35 4.6 4.6 0 0 0-.64-.14c-.12 0-.51 0-.6-.08-.35-.36.66-.42.78-.43z"/><path fill="url(#D)" d="M150.41 113.1a2.5 2.5 0 0 1 .7 3c0-.08-.83-.72-.92-.79a8 8 0 0 0-1.09-.63 11.3 11.3 0 0 0-2.46-.83c-.42-.1-.87-.14-1.29-.25s-.3-.31-.1-.56a3.6 3.6 0 0 1 2.46-.75 4 4 0 0 1 2.7.81"/><path fill="url(#E)" d="M136.91 87.72a1.83 1.83 0 0 1 1.6.3 1.75 1.75 0 0 1-.4 2.49c-.86.65-1.92.33-3 .41a2.6 2.6 0 0 0-1.51 1c-.21-.41.42-1.74.61-2a4.55 4.55 0 0 1 2.7-2.2"/><path fill="url(#F)" d="M147.47 97.83c-1.14.58-2.17-.26-2.67-1.28a3.07 3.07 0 0 0-3-1.65c.27-.88 2-1.15 2.77-1.08a4.65 4.65 0 0 1 3.12 1.29 1.79 1.79 0 0 1-.22 2.72"/><path fill="url(#G)" d="M206.35 83.65a5.2 5.2 0 0 0-6.53.35 4.26 4.26 0 0 0 1.45 7 9.1 9.1 0 0 0 4.56.14c2.58-.45 5.29-1.25 7.68.38a3.1 3.1 0 0 1 1.2 3.74c-.67 1.52-2.42 1.84-4 2l-12 1.56c-3.6.47-7.35 1-10.37 3s-5 6-3.57 9.38c1.87 4.28 7.85 4.79 12.31 3.41s8.76-4 13.41-3.6c-4.77 1.93-12.89 10.1-7.9 13.23 4.2 2.63 8.27-6 16.13-9.35 11.38-4.82 22.5-3.87 25.18-2.11 6.14 4 3.68 8.75 4.39 13.49s2.23 10.19 6.7 11.9c4.3 1.64 9-1.15 12.44-4.19s6.94-9.88 11.53-10.24c3.08-.24 6.68 3.35 9 5.41a8.82 8.82 0 0 0 9 2c3-.9 3.58-4.07 2.05-6.77 2.06-.12 4.69.27 4.78-3.51.11-4.75-8.44-7-8.71-11.78-.27-4.93 12.66 1.35 16.67 4.24 8.18 5.91 25.41-1.92 9.57-11.86 2.1 1.21 5.18-1.82 5.12-4.25-.21-8-18.42-6.69-23.8-7.33a19.15 19.15 0 0 0 8-1.38 2.07 2.07 0 0 0-.58-4c-5.77-.43-11.76 1.39-17 4C286.14 92.14 280 97 273 100.45c-11.09 5.49-24.35 7.12-36 3-6.6-2.45-12.46-6.45-18.22-10.54L208.93 86z"/><g stroke="null"><path fill="none" d="M107.797 10.227h114.236v118.207H107.797z"/><path fill="url(#H)" d="m115.687 65.618 46.916-49.327c2.116-2.224 5.545-2.224 7.66 0l46.916 49.327c2.115 2.224 2.115 5.83 0 8.053L170.263 123c-2.115 2.224-5.544 2.224-7.66 0L115.687 73.67c-2.115-2.224-2.115-5.83 0-8.053z"/><path fill="#fff" fill-opacity=".533" d="M161.79 18.268c2.552-2.603 5.374-3.737 9.038 0a3193 3193 0 0 1 44.227 46.496c3.367 3.649 2.89 6.371 0 9.504-14.619 15.628-29.323 31.17-44.227 46.496-3.438 3.535-5.606 3.529-9.038 0-14.904-15.326-29.608-30.868-44.227-46.496-3.651-3.959-3.797-5.388 0-9.504a3193 3193 0 0 1 44.227-46.496zm6.893 2.28c-2.079-2.091-4.14-.62-4.765.016-14.881 15.324-29.686 30.735-44.188 46.455-1.222 1.344-1.216 3.692.032 5.026 14.662 15.545 29.226 31.197 44.172 46.439 1.275 1.281 3.47 1.316 4.782-.034 14.764-15.437 29.675-30.723 44.171-46.438 1.214-1.334 1.25-3.654-.03-5.026-14.683-15.523-29.226-31.197-44.174-46.439z"/><path fill="url(#I)" d="M165.538 93.036c2.838 0 5.143 2.241 5.143 5.002s-2.305 5.002-5.143 5.002c-2.839 0-5.143-2.242-5.143-5.002s2.304-5.002 5.143-5.002zm-1.345-48.097q.283-.03.573-.029c3.264 0 5.915 2.726 5.915 6.084q0 .314-.031.623l16.26 16.82-4.562 4.785-13.742-14.213v31.93h-6.452V56.791h.821c-2.39-.78-4.123-3.082-4.123-5.797 0-.628.092-1.234.264-1.802l-14.147-14.633 4.562-4.786 14.662 15.166zm24.102 24.575c2.768 0 5.015 2.241 5.015 5.002s-2.247 5.002-5.015 5.002-5.014-2.242-5.014-5.002 2.247-5.002 5.014-5.002z"/><path fill="#0084ff" d="M165.38 42.64c4.37 0 7.919 3.721 7.919 8.306s-3.548 8.306-7.919 8.306-7.918-3.722-7.918-8.306c0-4.585 3.548-8.307 7.918-8.307zm-.1 3.893c2.271 0 4.115 1.938 4.115 4.326s-1.844 4.325-4.115 4.325-4.114-1.938-4.114-4.325 1.844-4.326 4.114-4.326zM165.38 89.4c4.37 0 7.919 3.723 7.919 8.307s-3.548 8.307-7.919 8.307-7.918-3.722-7.918-8.307c0-4.584 3.548-8.306 7.918-8.306zm-.1 3.906c2.271 0 4.115 1.939 4.115 4.326 0 2.388-1.844 4.326-4.115 4.326s-4.114-1.938-4.114-4.326 1.844-4.326 4.114-4.326z"/><path fill="#0bbc00" d="M187.963 66.02c4.37 0 7.918 3.722 7.918 8.307 0 4.584-3.548 8.306-7.918 8.306s-7.919-3.722-7.919-8.306c0-4.585 3.548-8.307 7.919-8.307zm-.053 4.305c2.27 0 4.114 1.938 4.114 4.326s-1.844 4.326-4.114 4.326c-2.271 0-4.115-1.939-4.115-4.326 0-2.388 1.844-4.326 4.115-4.326z"/><path fill="#fff" fill-opacity=".6" d="M165.85 43.633c.717.063.98 1.422-.2 1.45-2.144.072-4.164 1.427-5.177 3.477 0 0-.21.332-.5.382-.49.083-.97-.511-.723-1.05.162-.328.203-.392.31-.575 1.296-2.18 3.644-3.624 6.12-3.683q.084-.002.17 0zM159.12 50.399c.42.018.686.411.665.929a7.2 7.2 0 0 0 .295 2.303s.076.521-.22.777c-.433.374-1.014.077-1.233-.858a8.7 8.7 0 0 1-.21-2.47s.113-.682.702-.681zM188.79 67.071c.645.057.628.308.65.679.026.437-.341.76-.853.772-2.163.07-4.231 1.39-5.272 3.442 0 0-.903.829-1.247-.07-.087-.227-.134-.294.09-.726 1.278-2.423 3.802-4.036 6.46-4.096q.085-.002.171 0zM181.954 73.764c.977.042.598 2.006.963 3.197 0 0 .07.67-.37.882-.45.215-.87-.103-1.065-.874a8 8 0 0 1-.163-.833 8.5 8.5 0 0 1-.069-1.691s.117-.683.704-.681zM166.167 90.33c.715.064 1.006 1.423-.203 1.451-2.166.07-4.242 1.389-5.284 3.436 0 0-.311.445-.72.373-.434-.075-.72-.582-.495-1.056.166-.326.206-.389.317-.57 1.328-2.17 3.714-3.576 6.213-3.633q.086-.002.172 0zM159.318 97.013c.99.043.599 2.008.963 3.191 0 0 .046.863-.572.943-.626.08-.893-.896-1.015-1.688a8.5 8.5 0 0 1-.08-1.766s.115-.682.704-.68z"/></g><g stroke="null"><path fill="none" d="M102.108 116.145h143.615v96.37H102.108z"/><path fill="#cce6ff" fill-opacity=".259" d="M227.743 132.88c0-2.337-2.356-4.234-5.259-4.234H121.317c-2.903 0-5.26 1.897-5.26 4.234v51.007c0 2.337 2.357 4.234 5.26 4.234h101.167c2.903 0 5.26-1.897 5.26-4.234z"/><path fill="url(#J)" d="M224.4 129.53c0-2.337-2.357-4.234-5.26-4.234H117.974c-2.902 0-5.259 1.897-5.259 4.234v51.007c0 2.337 2.357 4.235 5.26 4.235H219.14c2.902 0 5.259-1.898 5.259-4.235z"/><path fill="url(#K)" d="M218.556 132.429c0-1.714-1.729-3.105-3.857-3.105h-93.046c-1.548 0-2.805 1.012-2.805 2.258v42.452h99.708V132.43z"/><path fill="#e5f1ff" d="M177.066 179.128c0-.935-.943-1.693-2.104-1.693H162.68c-1.161 0-2.104.758-2.104 1.693v.499c0 .935.943 1.693 2.104 1.693h12.282c1.161 0 2.104-.758 2.104-1.693z"/><path fill="#0bbc00" d="M175.276 150.114v2.219l-3.834 1.372q-.228.961-.621 1.868l2.468 2.732-1.378 1.92-4.176-.355q-.786.731-1.694 1.364l.442 3.363-2.386 1.11-3.392-1.988q-1.126.317-2.32.5l-1.704 3.088h-2.754l-1.704-3.088a20 20 0 0 1-2.32-.5l-3.392 1.988-2.386-1.11.442-3.362a15 15 0 0 1-1.695-1.365l-4.175.356-1.377-1.922 2.467-2.73q-.393-.908-.62-1.87l-3.835-1.371v-2.219l3.834-1.372q.228-.96.62-1.869l-2.466-2.73 1.377-1.922 4.177.356a15 15 0 0 1 1.693-1.364l-.442-3.363 2.386-1.11 3.392 1.988a20 20 0 0 1 2.32-.5l1.704-3.087h2.754l1.704 3.087q1.194.184 2.32.5l3.392-1.987 2.386 1.109-.442 3.363q.908.632 1.693 1.364l4.177-.356 1.378 1.922-2.468 2.73q.394.908.621 1.87l3.834 1.371zm-19.972-3.885c-3.425 0-6.203 2.236-6.203 4.994 0 2.76 2.778 4.995 6.203 4.995s6.202-2.236 6.202-4.994c0-2.759-2.776-4.995-6.202-4.995z"/><path fill="#cce6ff" d="m177.37 166.838.781-.915a6.4 6.4 0 0 1-1.392-1.863l-1.315.194a.56.56 0 0 1-.348-.06.38.38 0 0 1-.194-.241l-.491-2.134c-.046-.204.12-.396.373-.435l1.416-.209a5.5 5.5 0 0 1 .623-2.078l-1.137-.63a.38.38 0 0 1-.194-.24.32.32 0 0 1 .075-.28l1.53-1.783a.4.4 0 0 1 .08-.073.56.56 0 0 1 .564-.022l1.194.662c.696-.481 1.43-.85 2.263-1.125l-.249-1.076a.32.32 0 0 1 .072-.28.48.48 0 0 1 .299-.155l2.655-.388c.252-.037.495.097.542.3l.257 1.113a10 10 0 0 1 2.634.49l.737-.863a.48.48 0 0 1 .3-.155.55.55 0 0 1 .347.06l2.221 1.232c.211.117.265.35.122.52l-.757.887a6.5 6.5 0 0 1 1.472 1.88l1.211-.18a.56.56 0 0 1 .35.06.38.38 0 0 1 .193.24l.49 2.136c.049.205-.12.398-.37.435l-1.255.183a5.4 5.4 0 0 1-.637 2.185l.984.545c.212.117.265.35.12.52l-1.525 1.784c-.148.17-.434.212-.646.095l-1.045-.578a9.2 9.2 0 0 1-2.386 1.162l.222.955a.31.31 0 0 1-.073.28.5.5 0 0 1-.299.155l-2.652.39c-.252.036-.494-.1-.542-.302l-.24-1.039a9.7 9.7 0 0 1-2.673-.537l-.714.837a.48.48 0 0 1-.298.156.55.55 0 0 1-.348-.06l-2.227-1.236c-.212-.117-.266-.349-.12-.52zm5.062-2.957c1.247.693 2.92.63 4.069-.153q.34-.231.593-.529c1.048-1.226.659-2.91-.865-3.755-1.248-.693-2.924-.629-4.076.156a3 3 0 0 0-.593.53c-.509.593-.697 1.31-.532 2.021.165.707.664 1.322 1.404 1.73zm2.502-11.227a.32.32 0 0 1-.062-.282l.412-1.482a10.4 10.4 0 0 1-2.915-1.774l-1.55.787c-.216.11-.503.058-.64-.116l-1.87-2.367c-.137-.176-.064-.408.143-.516l1.657-.844a6.76 6.76 0 0 1-.522-2.869l-1.841-.334a.48.48 0 0 1-.292-.165.31.31 0 0 1-.062-.283l.758-2.73c.057-.198.303-.327.555-.281l1.922.349a8.6 8.6 0 0 1 2.132-2.331l-1-1.27c-.125-.16-.083-.366.091-.484a.4.4 0 0 1 .053-.031l2.935-1.494c.216-.11.504-.059.641.116l1.033 1.303a12.8 12.8 0 0 1 3.61-.452l.39-1.406c.055-.2.302-.328.552-.281l3.398.616c.252.045.41.246.354.447l-.398 1.44a10.6 10.6 0 0 1 3.02 1.761l1.435-.73c.216-.11.503-.057.64.117l1.871 2.365a.31.31 0 0 1 .062.282.39.39 0 0 1-.204.233l-1.482.755c.42.96.613 1.966.574 3l1.612.293a.48.48 0 0 1 .292.165.32.32 0 0 1 .062.282l-.755 2.73c-.058.2-.305.327-.555.281l-1.701-.307c-.553.91-1.31 1.724-2.255 2.424l.899 1.135c.065.085.089.187.061.282a.37.37 0 0 1-.204.235l-2.937 1.495a.56.56 0 0 1-.35.048.48.48 0 0 1-.292-.166l-.966-1.224a12.6 12.6 0 0 1-3.683.408l-.379 1.37a.38.38 0 0 1-.204.234.56.56 0 0 1-.35.049l-3.402-.617a.48.48 0 0 1-.293-.166zm4.059-5.704c1.377.25 2.785-.027 3.864-.762.743-.507 1.25-1.181 1.462-1.95.535-1.934-.985-3.86-3.39-4.297-1.38-.25-2.79.028-3.868.763-.744.507-1.25 1.182-1.463 1.95-.534 1.932.99 3.86 3.395 4.296z"/><path fill="url(#L)" d="M156.554 184.747h23.73v10.415s-.043 3.183 6.435 5.532c-2.982.546-22.523 0-22.523 0v-.08c-.018.002-11.098.543-14.077 0 6.477-2.337 6.435-5.504 6.435-5.504v-10.363z"/><path fill="#cce6ff" d="M187.12 201.573c0-1.169-1.177-2.117-2.629-2.117h-32.145c-1.451 0-2.63.948-2.63 2.117v.623c0 1.169 1.179 2.118 2.63 2.118h32.145c1.452 0 2.63-.95 2.63-2.118z"/><path fill="#0084ff" d="M214.586 175.199h6.839c1.49 0 3.072-.063 4.3.165 2.975.551 5.298 1.756 6.9 3.417.851.882 1.59 1.918 2.048 3.104.207.534.34 1.09.471 1.685.324 1.452-.116 3.002-.512 4.077-1.181 3.216-3.58 5.371-7.29 6.539-2.82.888-7.547.591-11.425.594v-.017l1.146-3.417c.209-.56.298-1.151.635-1.602.315-.42.784-.773 1.31-1.023.8-.38 2.14-.314 3.42-.314q.554-.008 1.106-.017c1.356-.197 2.374-.728 2.99-1.518.263-.34.458-.754.593-1.19.247-.791-.05-1.618-.348-2.162-1.296-2.372-4.23-1.971-8.313-1.965l-4.73 14.183c-.672 1.802-.843 4.113-2.642 5.019-.857.432-2.287.363-3.706.363h-3.584l6.226-18.756 1.29-3.896c.317-.858.466-1.701 1.064-2.312.372-.38.96-.698 1.598-.858l.614-.1zm-15.808 6.373h9.542v.016l-1.024 3.104c-.533 1.438-.662 2.47-2.293 3.038-1.132.394-3.225.215-4.771.215h-1.208c-1.975.265-3.264 1.145-3.727 2.608-.193.608-.103 1.344.102 1.866.537 1.363 1.687 2.12 3.604 2.378 1.29.172 3.078-.273 3.911.247.738.461.633 1.132.348 1.899q-.706 2.097-1.413 4.193c-1.685.016-3.59.1-5.016-.148-4.462-.777-7.364-2.925-8.887-6.076-.7-1.449-.985-3.75-.43-5.53.32-1.029.697-2.037 1.29-2.857 1.526-2.112 3.592-3.51 6.593-4.441.668-.208 1.422-.318 2.191-.43l1.188-.082z"/><path fill="#fff" d="M223.127 171.476h.159l.16.001.163.002.165.003.167.003.166.004.09.003.085.003.087.003.088.003.088.004.089.004.088.005.09.005.09.005.091.006.094.007.092.006.092.007.095.008.094.009.095.009.098.01.096.01.097.01.099.013.098.012.1.013.101.015.101.015.103.015.105.018.103.018.098.017.098.019.09.017.091.018.091.018.09.018.09.019.091.02.09.019.089.02.088.02.09.02.09.02.088.022.088.021.088.022.09.022.086.022.088.023.087.023.087.024.088.024.086.023.085.025.087.025.087.025.085.025.085.026.086.026.085.026.084.027.086.027.083.027.083.028.085.028.084.029.083.028.083.03.083.029.082.03.082.03.082.03.081.03.082.031.081.032.081.031.081.032.08.032.082.033.079.033.079.033.08.034.079.034.078.034.078.034.08.035.077.035.077.035.076.036.078.036.078.037.077.037.076.037.074.037.077.038.074.037.075.038.075.04.073.038.076.04.075.04.072.039.072.039.074.041.072.04.072.042.072.041.07.041.072.042.072.043.071.043.069.041.07.043.07.044.07.044.068.044.067.043.069.045.069.045.068.046.067.045.067.045.064.045.067.047.067.047.065.046.066.047.064.048.065.047.062.047.065.048.065.05.061.048.063.048.062.05.061.048.064.051.06.05.061.05.061.05.059.05.06.051.06.052.058.05.06.053.058.053.057.05.057.053.057.052.057.053.057.054.056.053.055.053.055.054.055.054.055.054.055.056.052.053.052.054.056.058.052.055.051.054.053.057.053.057.052.057.051.057.053.059.052.058.049.057.052.059.05.06.05.058.051.06.05.06.05.062.05.06.049.061.049.062.05.063.048.063.048.062.047.062.048.064.048.064.047.065.047.064.046.065.047.067.045.065.045.065.046.068.045.067.044.068.045.068.043.067.043.068.043.07.043.069.042.07.042.07.042.071.04.07.041.072.04.071.04.072.039.072.039.073.039.074.037.073.037.072.037.075.037.075.036.076.035.073.035.076.035.077.034.076.033.077.034.078.032.078.032.077.03.077.031.08.03.075.027.075.027.074.026.073.025.072.025.073.024.074.023.072.021.067.022.07.022.072.02.069.02.068.02.069.018.067.019.07.034.129.033.129.031.128.03.126.03.123.027.121.027.119.028.122.012.056.012.057.011.056.011.057.01.057.012.06.01.057.009.06.017.11.015.112.013.11.012.113.01.11.008.11.007.108.006.108.004.108.003.107.001.106v.207l-.003.105-.004.102-.004.1-.006.104-.007.1-.008.098-.009.098-.009.098-.01.096-.012.097-.012.094-.013.095-.014.094-.014.091-.015.092-.016.091-.016.09-.018.089-.017.09-.018.085-.019.087-.018.085-.02.086-.02.084-.02.082-.021.083-.02.08-.022.08-.021.08-.023.08-.021.075-.022.076-.023.077-.023.075-.022.073-.023.073-.023.072-.023.069-.023.072-.045.134-.046.132-.045.127-.045.124-.036.096-.036.095-.037.094-.037.095-.04.097-.038.094-.039.093-.04.094-.041.094-.042.093-.042.093-.043.093-.043.092-.045.092-.045.092-.046.092-.046.091-.047.091-.048.09-.048.09-.05.092-.05.088-.05.09-.051.088-.052.089-.053.09-.053.086-.054.087-.056.089-.056.087-.055.085-.057.086-.059.087-.058.085-.06.087-.06.084-.06.083-.061.084-.063.085-.063.083-.063.082-.064.082-.065.082-.067.083-.067.081-.067.08-.067.08-.07.081-.07.08-.068.077-.072.08-.072.078-.073.078-.073.077-.073.077-.074.076-.077.077-.076.075-.075.074-.078.075-.079.074-.077.073-.08.073-.081.073-.08.072-.082.071-.083.072-.082.07-.084.07-.084.07-.085.068-.086.069-.086.067-.088.069-.087.066-.087.066-.09.066-.089.065-.09.064-.09.064-.092.064-.092.063-.093.062-.093.062-.093.06-.094.061-.095.06-.096.06-.097.06-.095.057-.097.057-.099.058-.097.056-.098.056-.1.056-.1.055-.1.053-.102.054-.101.053-.101.053-.104.052-.103.051-.103.05-.102.05-.106.05-.105.05-.104.047-.106.048-.107.047-.107.047-.107.046-.107.045-.108.045-.108.044-.11.044-.11.043-.108.042-.11.042-.111.042-.11.04-.112.04-.112.04-.111.039-.113.038-.113.038-.114.038-.113.036-.12.039-.107.033-.11.033-.111.032-.112.032-.112.03-.11.03-.112.028-.11.027-.11.027-.11.026-.11.024-.11.025-.11.023-.109.022-.11.022-.109.02-.11.021-.107.02-.11.019-.109.018-.107.018-.11.017-.107.016-.108.016-.108.015-.109.015-.107.014-.108.014-.108.013-.107.013-.108.012-.106.012-.107.012-.108.01-.107.011-.108.01-.107.01-.106.009-.106.009-.108.008-.106.008-.107.008-.106.008-.106.007-.107.007-.106.006-.107.006-.106.006-.105.006-.106.005-.107.005-.106.005-.105.004-.109.005-.208.007-.21.007-.21.006-.211.005-.21.004-.208.004-.21.002-.207.003-.208.001-.207.001h-.821l-.203-.002-.203-.002-.202-.001-.2-.002-.2-.002-.395-.006-.391-.005-.386-.005-.38-.005-.083-.001-.019.065-.031.103-.032.105-.034.107-.035.108-.036.11-.037.112-.04.112-.04.115-.043.116-.043.114-.025.065-.023.06-.024.058-.024.06-.026.063-.026.06-.027.064-.027.062-.027.06-.029.064-.03.063-.03.065-.031.065-.032.063-.032.065-.033.065-.035.066-.035.065-.037.067-.037.067-.038.066-.039.067-.04.067-.043.07-.043.07-.044.067-.044.067-.046.068-.05.072-.048.069-.05.07-.052.07-.054.07-.055.07-.054.069-.06.072-.06.072-.062.071-.062.07-.063.07-.068.072-.068.07-.068.07-.073.071-.074.07-.076.07-.077.07-.079.07-.08.067-.084.07-.084.066-.087.068-.09.068-.089.064-.092.065-.098.067-.095.062-.098.063-.101.062-.1.06-.104.059-.107.06-.108.057-.103.053-.076.037-.071.035-.066.031-.07.032-.072.032-.07.03-.07.03-.064.025-.07.028-.074.028-.065.024-.078.029-.124.043-.132.043-.131.04-.13.039-.127.035-.126.032-.125.03-.12.028-.12.026-.12.024-.116.022-.114.02-.115.02-.111.017-.11.016-.107.015-.106.013-.104.013-.104.011-.102.01-.1.01-.098.008-.097.008-.094.006-.095.007-.094.005-.091.005-.09.005-.09.004-.087.003-.087.003-.087.003-.084.002-.088.002-.158.003-.16.002-.155.001h-.443l-.27-.002-.26-.001h-4.133l-1.73.017-.149.002-.313.004-.324.005-.333.005-.173.003-.175.002-.177.002-.18.001h-.742l-.187-.003-.1-.001-.096-.002-.098-.002-.097-.003-.098-.002-.1-.004-.1-.003-.098-.004-.1-.004-.103-.005-.101-.005-.071-.004h-.055v-.003l-.079-.004-.104-.007-.103-.007-.104-.008-.106-.008-.106-.009-.107-.01-.107-.01-.107-.01-.108-.013-.11-.012-.11-.014-.11-.014-.113-.015-.112-.017-.114-.017-.115-.018-.11-.02-.138-.024-.136-.024-.135-.026-.133-.026-.133-.026-.133-.028-.132-.028-.132-.029-.133-.03-.131-.03-.13-.031-.13-.032-.13-.032-.13-.033-.128-.034-.128-.035-.129-.036-.127-.036-.126-.036-.127-.038-.126-.038-.125-.039-.126-.04-.123-.04-.123-.041-.124-.042-.123-.043-.122-.044-.122-.044-.12-.045-.121-.045-.12-.046-.119-.047-.119-.048-.118-.048-.118-.05-.117-.05-.116-.05-.116-.051-.115-.052-.114-.053-.115-.053-.112-.054-.112-.055-.112-.055-.112-.057-.112-.057-.108-.057-.11-.058-.109-.06-.108-.06-.108-.06-.106-.061-.105-.061-.105-.062-.105-.064-.103-.063-.103-.064-.102-.065-.102-.066-.1-.066-.1-.067-.1-.068-.1-.068-.096-.069-.097-.069-.096-.07-.095-.07-.095-.072-.094-.071-.093-.072-.093-.074-.09-.073-.091-.074-.09-.075-.089-.074-.089-.077-.087-.076-.087-.076-.085-.078-.085-.077-.084-.079-.084-.079-.083-.08-.081-.08-.08-.079-.08-.08-.08-.083-.078-.082-.077-.081-.077-.083-.076-.083-.076-.085-.074-.084-.072-.083-.073-.085-.072-.086-.07-.086-.07-.086-.07-.087-.068-.086-.067-.088-.067-.088-.067-.088-.065-.089-.063-.088-.064-.09-.063-.09-.062-.09-.061-.09-.06-.091-.059-.09-.058-.092-.059-.092-.057-.093-.056-.092-.055-.093-.055-.092-.054-.094-.053-.094-.052-.095-.052-.093-.05-.094-.05-.096-.049-.095-.049-.096-.048-.096-.046-.094-.027-.058-.026-.055-.026-.055-.025-.055-.024-.056-.026-.058-.023-.055-.025-.06-.044-.106-.044-.113-.044-.113-.04-.113-.04-.111-.039-.114-.038-.115-.035-.114-.035-.114-.033-.115-.032-.114-.03-.116-.03-.118-.029-.117-.027-.116-.026-.116-.025-.119-.023-.118-.023-.119-.021-.118-.02-.119-.019-.12-.018-.121-.016-.12-.016-.12-.014-.122-.013-.123-.012-.121-.01-.122-.01-.123-.008-.124-.006-.123-.006-.123-.004-.125-.003-.125-.002-.124v-.251l.003-.125.004-.125.005-.123.004-.069.003-.063.004-.06.005-.064.004-.065.005-.063.006-.064.006-.065.006-.063.007-.064.007-.063.007-.063.008-.066.008-.063.009-.065.01-.066.008-.06.01-.066.011-.066.01-.062.012-.066.012-.065.013-.066.012-.063.013-.065.014-.066.014-.063.015-.065.015-.066.016-.065.016-.065.018-.068.017-.065.017-.063.019-.065.018-.066.02-.065.02-.063.034-.112.034-.107.036-.11.036-.11.037-.111.038-.112.039-.112.04-.114.04-.114.043-.115.044-.117.045-.117.046-.117.048-.118.049-.119.05-.12.052-.116.029-.064.028-.062.028-.061.027-.06.03-.06.03-.064.028-.059.03-.061.032-.063.032-.063.032-.062.032-.06.034-.064.034-.063.035-.062.035-.063.037-.065.036-.062.036-.061.039-.065.04-.064.038-.063.04-.064.04-.062.042-.064.044-.067.044-.063.044-.064.045-.064.044-.062.048-.066.047-.064.048-.065.048-.063.048-.064.05-.065.048-.061.05-.064.05-.064.05-.061.05-.063.05-.062.052-.062.052-.062.052-.06.052-.063.054-.061.053-.061.054-.06.052-.06.055-.06.056-.062.054-.058.056-.06.057-.06.055-.058.057-.058.058-.06.056-.056.058-.058.06-.059.057-.057.06-.058.06-.057.06-.056.06-.056.06-.056.062-.056.062-.056.061-.055.062-.055.062-.055.064-.054.063-.054.063-.053.066-.055.064-.053.065-.054.066-.053.065-.051.065-.052.067-.052.067-.051.067-.051.068-.051.069-.052.068-.05.068-.049.069-.05.07-.05.07-.048.069-.048.07-.05.073-.048.07-.047.07-.046.073-.048.073-.048.071-.045.074-.047.075-.046.072-.045.073-.045.075-.045.074-.044.075-.044.075-.044.076-.044.076-.043.075-.042.078-.043.077-.043.075-.04.078-.042.079-.042.076-.04.078-.04.079-.04.08-.04.08-.04.078-.04.078-.037.08-.039.082-.038.08-.038.08-.038.081-.037.083-.037.08-.036.08-.035.085-.037.082-.036.082-.035.083-.035.083-.034.083-.034.083-.034.084-.034.085-.033.085-.034.084-.032.083-.032.085-.032.087-.032.085-.031.085-.031.087-.032.086-.03.086-.03.088-.03.086-.03.086-.029.088-.03.089-.028.088-.029.087-.028.088-.028.098-.03.107-.033.114-.033.114-.033.113-.03.11-.03.109-.027.109-.027.107-.025.105-.024.103-.023.103-.022.1-.022.1-.02.1-.019.095-.018.096-.018.094-.017.093-.016.092-.016.09-.016.086-.014.091-.014.166-.027.165-.025.158-.023.153-.023.358-.052 1.6-.111h8.158l.13-.391.04-.112.02-.055.02-.058.02-.062.023-.068.023-.069.05-.155.054-.165.03-.09.032-.095.034-.098.036-.103.04-.107.039-.105.024-.061.023-.058.023-.059.026-.06.025-.06.026-.061.03-.066.028-.063.03-.064.033-.069.033-.066.034-.068.037-.069.036-.068.04-.074.041-.071.042-.07.044-.074.048-.076.048-.076.05-.075.053-.077.053-.075.058-.079.06-.078.059-.076.065-.08.066-.08.067-.078.07-.078.076-.08.072-.076.05-.05.053-.052.052-.05.047-.045.054-.05.05-.046.054-.047.053-.046.05-.043.056-.046.052-.042.052-.041.056-.045.056-.043.05-.037.055-.04.057-.042.055-.04.058-.04.055-.037.055-.037.056-.037.06-.038.057-.037.054-.033.057-.035.061-.036.06-.035.057-.034.06-.033.059-.033.058-.031.058-.031.063-.033.063-.033.058-.029.061-.03.064-.03.059-.029.06-.028.066-.03.062-.028.063-.027.064-.028.061-.025.068-.028.066-.026.061-.024.066-.025.064-.024.065-.024.069-.025.067-.023.068-.023.068-.023.066-.021.069-.022.068-.02.07-.021.071-.02.068-.02.07-.019.073-.02.291-.074 1.311-.211h7.551l.271-.002.28-.002.288-.002.149-.001h.151l.154-.001h.155zm-24.349 10.096-1.188.082-.144.021-.143.021-.143.022-.143.021-.141.023-.07.011-.071.012-.07.011-.07.013-.069.012-.07.012-.068.013-.069.013-.068.013-.068.014-.068.014-.067.015-.067.014-.066.016-.066.015-.066.017-.065.016-.064.017-.065.018-.064.018-.063.018-.063.02-.07.022-.07.022-.07.022-.068.022-.07.023-.068.023-.068.023-.068.023-.067.023-.067.023-.067.024-.067.024-.066.024-.065.024-.066.025-.065.024-.065.025-.065.025-.064.025-.064.026-.063.025-.063.026-.064.026-.062.026-.062.026-.062.026-.062.027-.062.027-.06.027-.061.027-.06.027-.06.028-.06.027-.06.028-.06.029-.058.028-.059.029-.058.028-.058.03-.058.028-.057.03-.057.03-.057.029-.057.03-.056.03-.056.03-.055.03-.056.031-.055.032-.055.03-.054.032-.054.032-.054.031-.054.032-.053.033-.053.032-.053.032-.053.033-.052.033-.052.034-.051.033-.052.034-.051.034-.05.034-.051.034-.05.035-.051.034-.05.035-.05.036-.048.035-.05.036-.048.035-.049.036-.048.037-.048.036-.048.037-.047.037-.047.037-.047.038-.047.037-.046.038-.046.038-.046.039-.046.038-.046.039-.045.039-.045.04-.045.039-.044.04-.044.04-.044.04-.044.04-.043.04-.044.041-.043.042-.042.041-.043.042-.042.041-.042.042-.042.043-.042.042-.041.043-.042.043-.04.044-.041.043-.04.044-.04.044-.04.044-.04.045-.04.045-.04.045-.039.045-.039.045-.039.046-.038.046-.039.047-.037.046-.039.047-.037.047-.038.047-.037.048-.037.048-.037.048-.037.048-.036.049-.036.048-.036.05-.036.049-.028.038-.027.04-.027.038-.027.04-.026.04-.026.04-.026.04-.026.04-.025.04-.025.041-.025.042-.024.04-.024.043-.024.041-.023.043-.024.042-.023.042-.023.043-.022.043-.023.043-.022.043-.021.044-.022.043-.022.044-.02.044-.021.044-.021.045-.02.044-.021.045-.02.045-.04.09-.038.091-.038.092-.037.092-.037.092-.035.093-.035.094-.035.093-.034.095-.033.094-.033.095-.032.095-.032.096-.031.096-.031.096-.031.096-.03.096-.013.042-.013.042-.012.042-.012.043-.011.042-.012.043-.01.043-.012.043-.01.043-.01.044-.01.043-.01.044-.009.044-.009.043-.009.045-.008.044-.008.044-.008.045-.007.044-.008.045-.007.045-.006.045-.007.045-.006.045-.005.045-.006.045-.005.046-.005.045-.005.046-.005.046-.004.045-.004.046-.003.046-.004.046-.003.046-.003.046-.002.046-.003.046-.004.093-.002.092-.002.092-.001.093v.093l.001.093.003.092.003.093.004.093.005.092.006.092.007.093.008.091.009.092.01.091.01.091.012.091.012.09.013.09.015.09.015.09.016.088.016.088.018.087.018.087.02.086.02.086.02.085.021.084.022.084.023.082.024.082.024.081.026.08.026.08.026.078.028.077.028.077.028.075.03.075.03.073.015.036.015.036.016.036.015.035.016.035.016.035.016.034.017.034.036.074.036.073.037.073.038.073.038.072.038.072.04.071.038.07.04.072.041.07.041.07.042.07.042.069.042.069.043.068.044.068.044.068.045.067.045.067.045.066.046.066.047.066.047.065.048.065.048.065.05.064.048.064.05.063.05.063.051.062.051.063.052.061.053.062.053.06.053.061.054.06.055.06.055.06.055.058.056.06.057.057.057.058.057.057.058.057.06.056.058.057.06.055.06.055.061.055.061.054.062.054.063.054.063.053.063.053.064.052.064.052.066.051.065.051.066.05.067.051.067.05.068.049.068.049.069.048.07.048.07.048.07.047.07.046.072.047.072.045.073.046.073.045.074.044.074.044.075.044.075.043.076.042.076.043.077.041.077.042.079.04.078.041.079.04.08.04.08.039.08.038.082.038.082.038.082.037.083.037.084.036.084.036.084.035.086.035.086.035.086.034.087.033.087.033.088.033.088.032.09.032.09.03.09.031.09.03.091.03.092.03.093.028.093.029.093.027.094.028.095.027.095.026.096.026.096.025.097.025.098.025.098.023.098.024.1.023.1.022.1.022.1.022.102.02.102.021.102.02.104.02.103.019.105.018.067.011.068.011.068.01.07.01.07.01.07.01.071.008.071.008.073.008.073.008.073.007.074.006.074.006.075.006.076.006.075.005.076.005.077.005.077.004.078.004.078.003.078.003.078.003.08.003.079.003.08.002.08.002.079.002.08.001.081.001.162.002.162.001h.491l.165-.001.164-.002.165-.002.164-.002.328-.005.325-.005.323-.005.16-.002.158-.002 1.413-4.193.027-.072.024-.07.012-.036.012-.035.012-.035.01-.035.01-.034.011-.035.01-.034.01-.035.008-.033.009-.034.007-.034.008-.033.007-.033.006-.034.006-.033.006-.032.004-.033.004-.032.004-.032.003-.032.002-.032.002-.032v-.03l.001-.032v-.061l-.003-.03-.002-.03-.004-.031-.003-.03-.005-.03-.006-.029-.006-.029-.007-.029-.008-.028-.01-.029-.01-.028-.01-.028-.011-.027-.013-.028-.013-.027-.015-.026-.015-.027-.016-.026-.017-.027-.019-.025-.01-.013-.009-.013-.01-.012-.01-.013-.01-.012-.012-.013-.01-.012-.012-.013-.012-.012-.012-.012-.012-.012-.012-.012-.013-.012-.013-.012-.013-.012-.014-.012-.014-.011-.014-.012-.014-.011-.015-.012-.015-.011-.016-.012-.015-.01-.016-.012-.016-.01-.017-.012-.017-.01-.017-.012-.02-.012-.02-.011-.02-.012-.02-.01-.022-.011-.02-.01-.023-.01-.022-.01-.022-.01-.023-.009-.023-.009-.023-.008-.024-.008-.024-.008-.024-.008-.024-.007-.025-.007-.025-.006-.025-.007-.026-.006-.026-.006-.025-.005-.027-.006-.026-.005-.027-.005-.027-.005-.028-.004-.027-.004-.028-.004-.028-.004-.028-.004-.029-.003-.029-.003-.029-.003-.029-.002-.03-.003-.058-.004-.06-.004-.061-.003-.061-.003-.062-.001-.063-.001h-.064l-.063-.001h-.065l-.065.001-.065.001-.066.002-.067.002-.066.002-.067.003-.067.002-.135.006-.136.006-.137.007-.137.006-.137.006-.068.002-.069.003-.068.002-.068.002-.067.002h-.068l-.067.002h-.2l-.066-.002-.066-.002-.065-.002-.064-.003-.064-.004-.063-.004-.063-.005-.031-.003-.032-.003-.03-.003-.03-.004-.031-.004-.03-.003-.046-.006-.044-.007-.045-.006-.043-.007-.044-.007-.043-.007-.043-.007-.043-.007-.043-.008-.042-.008-.042-.008-.042-.008-.041-.008-.042-.009-.04-.008-.04-.01-.042-.009-.04-.009-.04-.01-.039-.009-.04-.01-.038-.01-.039-.01-.038-.01-.038-.01-.039-.012-.037-.01-.038-.012-.036-.011-.037-.012-.037-.012-.036-.011-.036-.013-.036-.012-.035-.012-.036-.013-.035-.013-.035-.013-.034-.013-.034-.014-.034-.014-.034-.014-.033-.014-.033-.014-.033-.015-.032-.014-.033-.015-.032-.015-.032-.015-.031-.016-.032-.015-.03-.016-.032-.016-.03-.017-.03-.016-.03-.017-.03-.017-.03-.017-.029-.017-.029-.017-.029-.018-.028-.018-.029-.018-.027-.018-.028-.019-.028-.018-.027-.02-.027-.018-.027-.02-.026-.02-.026-.019-.026-.02-.026-.02-.025-.02-.026-.02-.024-.021-.025-.021-.025-.022-.024-.02-.024-.022-.024-.022-.023-.022-.023-.022-.024-.023-.022-.022-.023-.023-.022-.023-.022-.023-.022-.024-.021-.023-.022-.024-.02-.024-.022-.024-.02-.025-.02-.025-.02-.024-.02-.026-.02-.025-.02-.025-.019-.026-.019-.026-.019-.026-.018-.027-.018-.026-.018-.027-.018-.027-.017-.027-.018-.028-.017-.028-.017-.028-.016-.028-.017-.028-.016-.029-.015-.028-.016-.03-.016-.029-.015-.029-.015-.03-.015-.03-.014-.03-.014-.03-.014-.03-.014-.03-.014-.032-.013-.031-.013-.032-.013-.031-.013-.032-.01-.025-.009-.024-.009-.026-.009-.025-.009-.026-.009-.026-.008-.027-.008-.026-.008-.027-.008-.027-.008-.027-.007-.028-.007-.028-.007-.028-.007-.028-.007-.028-.006-.029-.006-.029-.006-.029-.005-.029-.006-.029-.005-.03-.005-.029-.004-.03-.005-.03-.004-.03-.003-.03-.004-.03-.003-.03-.003-.03-.003-.03-.002-.03-.002-.031-.002-.03-.002-.031v-.031l-.002-.03v-.155l.002-.03.001-.03.001-.032.003-.03.002-.03.003-.031.003-.03.003-.031.004-.03.004-.03.005-.03.005-.03.005-.03.006-.03.005-.03.007-.03.007-.029.007-.03.008-.028.008-.03.008-.028.009-.029.011-.034.011-.034.012-.033.012-.034.012-.033.013-.034.012-.032.014-.033.013-.033.014-.032.014-.032.014-.032.014-.032.015-.03.015-.032.016-.031.016-.03.016-.031.016-.03.017-.03.017-.03.017-.03.018-.03.018-.03.018-.028.018-.03.019-.028.019-.028.02-.028.019-.028.02-.028.02-.027.02-.028.021-.027.021-.027.022-.026.021-.027.022-.026.022-.026.023-.026.023-.025.022-.026.024-.025.023-.025.025-.025.024-.024.024-.024.025-.024.025-.024.025-.024.026-.023.026-.023.026-.023.027-.023.026-.022.027-.023.028-.022.027-.022.028-.021.028-.022.028-.021.03-.021.028-.02.03-.021.029-.02.03-.02.03-.02.03-.02.03-.02.032-.02.03-.018.032-.019.032-.019.032-.018.032-.018.033-.018.033-.018.033-.017.033-.017.034-.017.034-.017.034-.016.034-.017.035-.016.035-.016.035-.016.036-.015.035-.016.036-.015.037-.014.036-.015.037-.014.037-.014.038-.014.037-.014.038-.014.038-.013.039-.013.039-.013.038-.012.04-.013.04-.012.039-.012.04-.011.04-.012.04-.011.042-.011.04-.01.042-.012.041-.01.042-.01.043-.01.042-.01.042-.01.043-.008.043-.01.044-.008.043-.009.044-.008.044-.008.045-.008.044-.008.045-.007.045-.007.046-.008.046-.006.045-.007.047-.006h1.354l.15.002.152.002.154.003.157.003.158.004.321.008.163.004.162.003.164.004.163.003.164.002.163.002h.403l.08-.001.08-.001.08-.002.078-.002.079-.002.077-.003.077-.003.077-.003.076-.004.075-.005.075-.004.074-.006.073-.006.073-.006.071-.007.07-.008.07-.008.07-.009.067-.009.067-.01.066-.01.033-.006.032-.006.032-.005.032-.007.032-.006.03-.006.032-.007.03-.007.03-.007.03-.007.03-.007.03-.008.029-.007.029-.008.028-.008.028-.009.028-.008.027-.009.027-.009.027-.009.038-.013.037-.014.037-.014.036-.013.036-.014.035-.015.035-.014.035-.015.033-.015.034-.014.032-.016.032-.015.032-.015.032-.016.03-.016.03-.015.03-.017.03-.016.029-.016.029-.017.028-.017.027-.017.027-.017.027-.017.027-.017.026-.018.025-.018.025-.018.025-.018.025-.018.024-.018.023-.019.023-.019.023-.019.023-.019.022-.019.022-.02.021-.019.021-.02.02-.02.022-.02.02-.02.02-.02.019-.02.02-.022.018-.02.018-.021.018-.022.019-.021.017-.022.018-.021.017-.022.017-.022.016-.022.017-.023.016-.022.016-.023.015-.023.016-.023.015-.023.015-.023.014-.024.015-.023.014-.024.028-.048.028-.048.026-.05.026-.05.025-.05.025-.051.024-.052.023-.053.023-.053.023-.053.023-.055.022-.055.021-.055.022-.056.021-.057.021-.058.021-.058.021-.058.042-.12.042-.12.044-.125.043-.126.046-.129.046-.131.024-.067.025-.067 1.024-3.104v-.016h-9.542zm24.057-6.38h-.282l-.283.002-.283.002-.282.002h-7.12l-.613.1-.03.007-.03.008-.03.008-.03.009-.029.008-.03.009-.029.009-.029.009-.03.01-.028.01-.029.009-.029.01-.028.01-.029.01-.028.011-.029.011-.028.011-.028.011-.028.012-.028.011-.027.012-.028.012-.027.012-.027.013-.027.012-.027.013-.026.013-.027.013-.026.013-.026.013-.026.014-.026.014-.025.014-.025.014-.026.014-.025.014-.024.015-.025.014-.024.015-.024.015-.024.015-.023.015-.024.016-.023.015-.023.016-.022.016-.023.016-.022.015-.022.017-.021.016-.022.016-.02.017-.022.017-.02.016-.02.017-.02.017-.02.017-.02.017-.019.017-.019.018-.018.017-.018.018-.018.017-.018.018-.027.03-.027.028-.027.03-.026.03-.025.03-.024.03-.025.03-.023.032-.023.031-.022.032-.022.032-.022.032-.02.032-.021.033-.02.033-.02.034-.019.033-.018.034-.019.034-.017.034-.018.035-.017.034-.017.035-.016.036-.017.035-.015.036-.016.036-.015.036-.015.036-.015.037-.015.036-.014.037-.028.075-.028.075-.026.075-.027.076-.025.077-.026.078-.051.156-.051.157-.026.08-.027.08-.027.079-.028.08-.028.08-.03.08-1.29 3.897-6.225 18.756h3.85l.266.002.264.001.13.001h.261l.129-.001.127-.001.127-.003.063-.001.063-.002.062-.002.062-.002.061-.002.062-.003.06-.003.06-.003.06-.004.06-.004.06-.004.058-.005.058-.005.058-.005.057-.006.057-.006.056-.007.056-.007.055-.008.055-.007.054-.009.053-.009.053-.01.052-.01.052-.01.05-.01.05-.012.05-.012.05-.013.048-.013.047-.014.047-.014.046-.015.045-.016.023-.008.022-.009.022-.008.022-.009.021-.009.022-.009.021-.009.021-.009.021-.01.02-.01.021-.01.02-.01.042-.02.041-.023.041-.022.04-.023.04-.024.039-.024.038-.024.038-.025.037-.025.037-.026.036-.027.036-.026.035-.028.035-.027.034-.028.034-.03.033-.028.032-.03.033-.03.031-.03.031-.03.031-.031.03-.032.03-.031.03-.032.029-.033.028-.033.028-.034.028-.033.027-.034.027-.034.026-.035.026-.035.026-.036.025-.035.025-.036.024-.037.024-.037.024-.037.023-.037.023-.037.023-.038.022-.038.022-.039.022-.038.021-.04.021-.039.021-.04.02-.039.02-.04.02-.04.02-.04.02-.041.018-.041.019-.042.018-.04.019-.042.018-.042.017-.042.018-.042.017-.043.017-.042.017-.043.016-.043.033-.086.032-.087.03-.087.031-.088.03-.088.029-.09.029-.089.028-.089.028-.09.027-.09.027-.09.027-.091.052-.181.052-.182.052-.181.052-.181.027-.09.026-.09.027-.09.027-.09.027-.088.028-.088.029-.089.028-.087.03-.087.03-.086.03-.085.03-.085 4.73-14.183h.191l.19-.001.186-.002.186-.002.183-.002.182-.003.359-.005.351-.005.174-.002.171-.002.17-.002.167-.002h.166l.163-.001h.323l.158.002h.079l.078.002.077.002.077.001.077.002.076.002.075.003.075.002.075.003.074.003.074.004.073.004.073.004.072.004.072.005.07.005.071.006.07.005.07.006.07.007.068.007.068.007.068.008.067.008.067.009.066.008.066.01.065.01.065.01.064.01.063.012.063.012.063.012.062.012.061.014.061.013.061.015.06.014.06.016.058.016.059.016.057.017.058.018.057.018.056.018.055.02.055.02.055.02.054.022.054.022.053.022.052.024.052.023.051.025.051.025.05.026.05.027.025.013.024.014.025.014.024.014.024.015.024.014.024.015.023.015.024.015.023.015.024.016.023.015.023.016.023.016.022.016.023.017.022.016.022.017.023.017.021.017.023.018.02.017.023.018.021.018.021.019.021.018.022.019.02.019.02.018.022.02.02.02.02.02.02.019.02.02.02.02.02.021.02.02.019.022.019.021.019.022.019.021.019.022.018.022.019.023.019.022.018.023.018.023.018.023.017.024.018.024.017.024.018.024.017.025.017.024.017.025.017.026.017.025.016.026.016.026.017.026.015.026.017.027.015.027.016.027.015.027.015.028.028.052.028.053.028.055.027.057.027.058.013.029.013.03.013.03.013.03.013.031.012.031.012.031.012.032.012.032.011.032.012.033.01.032.011.033.011.034.01.033.01.034.01.034.009.034.009.034.008.035.008.035.008.035.008.035.007.035.006.035.006.036.006.036.005.036.005.036.004.036.004.036.003.037.003.036.002.037.002.037v.148l-.001.036-.002.038-.003.037-.003.037-.004.037-.004.038-.006.037-.006.037-.006.038-.008.037-.008.037-.008.037-.01.038-.01.037-.012.037-.013.04-.013.041-.013.04-.014.04-.014.041-.015.04-.015.04-.015.04-.016.039-.016.04-.017.038-.016.04-.018.037-.017.039-.018.038-.018.038-.019.037-.019.037-.02.037-.02.036-.02.037-.02.035-.021.036-.021.035-.022.035-.022.034-.023.034-.022.034-.024.033-.024.033-.024.032-.025.033-.029.036-.03.037-.03.036-.03.036-.032.035-.032.035-.033.034-.033.035-.034.033-.034.034-.035.033-.036.032-.036.032-.037.032-.037.032-.038.03-.038.031-.04.03-.039.03-.04.03-.04.028-.041.029-.042.028-.043.027-.042.028-.044.027-.044.026-.044.026-.045.025-.046.026-.046.024-.047.024-.047.024-.048.024-.048.022-.049.023-.05.022-.05.022-.05.021-.05.02-.052.02-.052.02-.053.02-.053.02-.053.017-.054.018-.055.018-.056.017-.055.017-.056.016-.057.015-.057.016-.058.014-.058.015-.06.014-.059.013-.06.013-.06.012-.06.012-.062.011-.062.011-.062.01-.063.011-.063.01-1.106.016h-.24l-.241-.002-.241-.002h-.477l-.118.001-.116.002-.116.002-.058.002-.057.002-.057.002-.057.002-.056.002-.056.003-.055.003-.056.003-.054.004-.055.004-.054.004-.054.005-.053.005-.053.005-.052.006-.052.006-.05.007-.052.006-.05.008-.05.007-.049.008-.049.01-.048.008-.047.01-.047.01-.046.01-.046.011-.045.012-.045.012-.043.013-.043.013-.043.014-.041.014-.041.015-.04.016-.04.016-.019.009-.02.008-.019.009-.018.009-.05.023-.048.025-.049.025-.048.025-.048.026-.047.027-.047.027-.046.028-.046.029-.045.028-.045.03-.044.03-.044.03-.043.031-.043.032-.042.032-.041.032-.041.033-.04.033-.04.035-.038.034-.038.035-.038.035-.036.036-.036.036-.035.037-.034.037-.034.038-.032.038-.032.038-.03.04-.03.038-.016.021-.016.022-.015.021-.014.022-.014.022-.014.022-.014.023-.013.022-.013.023-.013.023-.013.023-.012.023-.011.024-.012.023-.012.024-.01.024-.012.024-.01.024-.021.049-.02.049-.02.05-.018.05-.019.05-.017.05-.017.052-.017.051-.017.052-.016.053-.016.052-.064.21-.032.107-.017.053-.017.053-.018.053-.018.053-.018.052-.02.053-1.146 3.417v.017h.366l.184.001.186.002.187.001.188.002.378.004.38.005.384.005.385.006.386.005.388.005.194.002.194.002.194.002.194.001.194.001.193.001h.771l.192-.003.19-.002.191-.002.19-.003.189-.004.188-.004.187-.006.186-.006.185-.006.093-.004.091-.004.092-.004.091-.005.092-.004.09-.005.09-.005.09-.005.09-.005.09-.006.089-.006.088-.006.089-.007.088-.006.087-.008.087-.007.087-.007.086-.008.086-.008.086-.008.085-.01.084-.008.085-.01.083-.009.084-.01.083-.01.082-.01.082-.011.081-.011.081-.012.08-.012.08-.012.08-.012.078-.013.079-.013.077-.014.077-.014.077-.014.076-.015.075-.015.075-.015.074-.016.074-.016.073-.016.072-.017.072-.017.071-.018.07-.018.07-.019.07-.019.068-.019.068-.02.067-.02.067-.02.087-.028.086-.028.085-.028.086-.029.084-.029.085-.029.084-.03.083-.03.083-.03.082-.031.082-.031.081-.032.081-.032.08-.032.08-.033.08-.033.08-.033.078-.034.078-.034.078-.034.077-.035.076-.035.077-.036.076-.036.075-.036.075-.037.074-.037.074-.037.073-.038.073-.038.072-.039.072-.038.072-.04.07-.039.071-.04.07-.04.07-.041.07-.041.068-.042.068-.041.068-.043.067-.042.067-.043.066-.043.066-.044.065-.044.065-.045.065-.044.064-.045.063-.046.063-.046.063-.046.062-.047.061-.047.062-.047.06-.048.06-.048.06-.048.06-.05.059-.049.058-.05.058-.05.057-.05.057-.05.057-.051.056-.052.056-.052.055-.052.055-.053.054-.053.054-.053.053-.054.052-.054.053-.055.052-.054.051-.056.051-.055.05-.056.051-.057.05-.056.049-.058.049-.057.048-.058.048-.058.047-.059.047-.059.046-.06.046-.06.046-.06.045-.06.044-.061.045-.061.043-.062.043-.062.043-.063.042-.063.043-.063.04-.063.042-.064.04-.065.04-.064.04-.066.04-.065.038-.066.038-.066.038-.067.037-.067.037-.067.037-.068.036-.069.035-.068.035-.07.035-.068.034-.07.034-.07.033-.071.033-.07.032-.072.032-.072.031-.072.032-.072.03-.073.03-.074.03-.073.03-.074.028-.074.028-.075.028-.076.038-.102.037-.105.037-.107.037-.11.019-.056.018-.056.018-.057.018-.058.018-.058.018-.058.017-.06.017-.059.018-.06.016-.06.017-.062.016-.061.016-.062.016-.063.015-.062.015-.064.015-.063.014-.064.014-.064.013-.065.013-.065.012-.065.012-.065.012-.066.01-.066.011-.067.01-.066.009-.067.009-.067.007-.067.008-.068.007-.068.006-.067.005-.068.005-.069.003-.068.004-.068.002-.069.001-.068.002-.07v-.068l-.002-.069-.001-.068-.003-.069-.004-.069-.004-.069-.005-.069-.007-.069-.007-.068-.008-.069-.01-.069-.01-.068-.005-.035-.006-.034-.006-.034-.007-.034-.006-.034-.007-.034-.007-.035-.008-.034-.025-.11-.024-.11-.025-.11-.026-.108-.026-.108-.026-.106-.028-.107-.027-.105-.015-.053-.014-.052-.015-.052-.015-.052-.015-.052-.016-.051-.015-.052-.017-.05-.016-.052-.017-.051-.017-.05-.018-.051-.017-.051-.019-.05-.019-.05-.019-.05-.021-.056-.022-.055-.023-.055-.023-.055-.023-.055-.024-.054-.024-.055-.025-.054-.025-.053-.025-.054-.025-.053-.026-.053-.027-.053-.026-.053-.027-.052-.028-.052-.027-.052-.028-.052-.03-.052-.028-.051-.029-.051-.03-.05-.029-.051-.03-.05-.03-.051-.031-.05-.031-.05-.031-.05-.032-.049-.032-.049-.032-.049-.033-.048-.033-.048-.033-.049-.033-.048-.034-.047-.034-.048-.034-.047-.034-.047-.035-.047-.035-.047-.035-.046-.035-.046-.036-.046-.036-.046-.036-.045-.036-.046-.037-.045-.037-.044-.037-.045-.037-.044-.038-.045-.038-.043-.038-.044-.038-.044-.038-.043-.039-.043-.038-.043-.04-.042-.038-.043-.04-.042-.039-.041-.04-.042-.04-.042-.037-.038-.038-.039-.038-.039-.039-.038-.038-.038-.04-.038-.039-.038-.039-.038-.04-.037-.04-.037-.04-.038-.041-.037-.04-.036-.042-.037-.041-.037-.042-.036-.042-.036-.042-.036-.042-.035-.043-.036-.043-.035-.043-.036-.043-.035-.044-.035-.044-.034-.044-.035-.045-.034-.045-.034-.045-.034-.045-.034-.045-.033-.046-.034-.046-.033-.047-.033-.046-.033-.047-.033-.047-.032-.047-.032-.048-.032-.047-.032-.048-.032-.049-.031-.049-.032-.048-.031-.05-.03-.049-.032-.05-.03-.05-.03-.05-.03-.05-.03-.05-.03-.051-.03-.052-.03-.05-.029-.053-.028-.052-.03-.052-.028-.052-.028-.053-.028-.053-.028-.053-.028-.053-.028-.054-.027-.054-.028-.054-.026-.054-.027-.055-.027-.055-.026-.055-.026-.056-.026-.055-.026-.056-.026-.056-.025-.057-.025-.057-.025-.056-.025-.057-.024-.058-.024-.057-.025-.059-.023-.058-.024-.058-.023-.059-.024-.059-.023-.059-.023-.06-.022-.059-.023-.06-.022-.06-.022-.06-.021-.06-.022-.062-.021-.06-.021-.062-.021-.062-.02-.062-.02-.062-.021-.062-.02-.063-.02-.063-.02-.063-.019-.063-.019-.064-.019-.063-.018-.065-.019-.064-.018-.065-.018-.064-.017-.065-.018-.066-.017-.065-.017-.066-.017-.066-.017-.066-.016-.066-.016-.067-.016-.067-.016-.067-.015-.068-.015-.068-.015-.068-.015-.068-.014-.068-.015-.069-.014-.069-.013-.069-.014-.07-.013-.069-.013-.058-.01-.058-.01-.059-.01-.059-.01-.06-.009-.06-.008-.06-.008-.062-.008-.062-.007-.062-.007-.062-.007-.063-.006-.063-.006-.064-.006-.064-.005-.064-.005-.065-.005-.065-.004-.065-.004-.066-.004-.066-.004-.067-.003-.066-.004-.067-.003-.067-.002-.068-.003-.067-.002-.068-.002-.137-.003-.137-.003-.139-.002-.139-.002h-.14l-.139-.001h-.282z"/></g></svg>