<svg width="327.83" height="211.66" xmlns="http://www.w3.org/2000/svg" xmlns:xlink="http://www.w3.org/1999/xlink">
 <defs>
  <radialGradient id="a" cx="13.05" cy="134.48" gradientTransform="matrix(1 0 0 .62 0 50.8)" gradientUnits="userSpaceOnUse" r="6.15">
   <stop offset="0.08" stop-color="#bde7f5"/>
   <stop offset="0.43" stop-color="#41c8f5"/>
   <stop offset="1" stop-color="#1b62c1"/>
  </radialGradient>
  <radialGradient id="b" cx="47.18" cy="118.47" gradientTransform="matrix(1 0 0 .67 0 38.78)" gradientUnits="userSpaceOnUse" r="201.2">
   <stop offset="0.04" stop-color="#b5e5f5"/>
   <stop offset="0.49" stop-color="#41c8f5"/>
   <stop offset="1" stop-color="#1b62c1"/>
  </radialGradient>
  <radialGradient id="c" cx="223.25" cy="118.47" r="201.2" xlink:href="#b"/>
  <linearGradient id="d" x1="0.40877" x2="1.37309" y1="0.48836" y2="-0.02945">
   <stop offset="0" stop-color="#63fc90"/>
   <stop offset="0.16" stop-color="#61f999"/>
   <stop offset="0.42" stop-color="#5df1b2"/>
   <stop offset="0.75" stop-color="#56e3d9"/>
   <stop offset="1" stop-color="#4fd7fd"/>
  </linearGradient>
  <linearGradient id="e" x1="-0.47165" x2="0.49229" y1="0.77114" y2="0.52073">
   <stop offset="0.09" stop-color="#61f79d"/>
   <stop offset="0.21" stop-color="#5ff4a1" stop-opacity="0.97"/>
   <stop offset="0.39" stop-color="#58eaac" stop-opacity="0.89"/>
   <stop offset="0.62" stop-color="#4edbbf" stop-opacity="0.76"/>
   <stop offset="0.9" stop-color="#3fc7d8" stop-opacity="0.58"/>
   <stop offset="1" stop-color="#39bee3" stop-opacity="0.5"/>
  </linearGradient>
  <linearGradient id="f" x1="114.9" x2="117.8" xlink:href="#d" y1="92.21" y2="57.87"/>
  <linearGradient id="g" x1="0.59248" x2="-0.37252" y1="0.11023" y2="1.42734">
   <stop offset="0.03" stop-color="#fff"/>
   <stop offset="0.15" stop-color="#d3f5fe"/>
   <stop offset="0.28" stop-color="#abecfe"/>
   <stop offset="0.41" stop-color="#8ae4fe"/>
   <stop offset="0.55" stop-color="#70defd"/>
   <stop offset="0.69" stop-color="#5ddafd"/>
   <stop offset="0.84" stop-color="#53d8fd"/>
   <stop offset="1" stop-color="#4fd7fd"/>
  </linearGradient>
  <linearGradient id="h" x1="202.86" x2="82.38" xlink:href="#d" y1="18.15" y2="117.91"/>
  <linearGradient id="i" x1="0.69055" x2="0.13" y1="0.00754" y2="0.98022">
   <stop offset="0.26" stop-color="#b5fcca"/>
   <stop offset="0.32" stop-color="#b4fbcc" stop-opacity="0.96"/>
   <stop offset="0.42" stop-color="#b2f9d1" stop-opacity="0.87"/>
   <stop offset="0.54" stop-color="#aff6d9" stop-opacity="0.71"/>
   <stop offset="0.69" stop-color="#aaf2e4" stop-opacity="0.49"/>
   <stop offset="0.85" stop-color="#a4edf2" stop-opacity="0.21"/>
   <stop offset="0.96" stop-color="#9fe9fd" stop-opacity="0"/>
  </linearGradient>
  <linearGradient id="j" x1="0.77498" x2="0.41795" y1="1.10976" y2="0.31413">
   <stop offset="0.28" stop-color="#4fd7fd" stop-opacity="0"/>
   <stop offset="0.95" stop-color="#4fd7fd"/>
   <stop offset="0.97" stop-color="#4fd8fb"/>
   <stop offset="0.98" stop-color="#51daf3"/>
   <stop offset="0.98" stop-color="#53dfe5"/>
   <stop offset="0.99" stop-color="#57e6d2"/>
   <stop offset="0.99" stop-color="#5beeb9"/>
   <stop offset="1" stop-color="#61f89b"/>
   <stop offset="1" stop-color="#63fc90"/>
  </linearGradient>
  <linearGradient id="k" x1="0.82159" x2="1.61241" y1="0.39001" y2="0.19514">
   <stop offset="0.04" stop-color="#feffff"/>
   <stop offset="0.14" stop-color="#63fc90"/>
   <stop offset="0.28" stop-color="#61f999"/>
   <stop offset="0.5" stop-color="#5df1b2"/>
   <stop offset="0.78" stop-color="#56e3d9"/>
   <stop offset="1" stop-color="#4fd7fd"/>
  </linearGradient>
  <linearGradient id="l" x1="0.52883" x2="0.44942" y1="0.02407" y2="0.84865">
   <stop offset="0.03" stop-color="#fff"/>
   <stop offset="1" stop-color="#4fd7fd"/>
  </linearGradient>
  <linearGradient id="m" gradientTransform="matrix(-.88 -.48 -.48 .88 9342.65 2391.03)" x1="9056.01" x2="9095.03" xlink:href="#d" y1="2318.24" y2="2318.24"/>
  <linearGradient id="n" x1="293.27" x2="273.21" xlink:href="#e" y1="50.59" y2="41.53"/>
  <linearGradient id="o" x1="267.71" x2="298.27" xlink:href="#d" y1="35.47" y2="35.47"/>
  <linearGradient id="p" x1="227.12" x2="217" xlink:href="#d" y1="95.16" y2="57.21"/>
  <linearGradient id="q" gradientTransform="matrix(-1 0 0 1 10013.9 0)" x1="9880.51" x2="9760.03" xlink:href="#d" y1="18.15" y2="117.91"/>
  <linearGradient id="r" x1="0.30956" x2="0.87" y1="0.00753" y2="0.97998">
   <stop offset="0.37" stop-color="#b5fcca"/>
   <stop offset="0.43" stop-color="#b4fbcc" stop-opacity="0.96"/>
   <stop offset="0.52" stop-color="#b2f9d1" stop-opacity="0.87"/>
   <stop offset="0.63" stop-color="#aff6d9" stop-opacity="0.71"/>
   <stop offset="0.76" stop-color="#aaf2e4" stop-opacity="0.49"/>
   <stop offset="0.9" stop-color="#a4edf2" stop-opacity="0.21"/>
   <stop offset="1" stop-color="#9fe9fd" stop-opacity="0"/>
  </linearGradient>
  <linearGradient id="s" x1="0.225" x2="0.58203" y1="1.10976" y2="0.31413">
   <stop offset="0.28" stop-color="#4fd7fd" stop-opacity="0"/>
   <stop offset="0.94" stop-color="#4fd7fd"/>
   <stop offset="0.96" stop-color="#4fd8fb"/>
   <stop offset="0.97" stop-color="#51daf3"/>
   <stop offset="0.98" stop-color="#53dfe5"/>
   <stop offset="0.99" stop-color="#57e6d2"/>
   <stop offset="0.99" stop-color="#5beeb9"/>
   <stop offset="1" stop-color="#61f89b"/>
   <stop offset="1" stop-color="#63fc90"/>
  </linearGradient>
  <linearGradient id="t" gradientTransform="matrix(-.88 -.48 -.48 .88 9342.65 2391.03)" x1="9124" x2="9139.66" xlink:href="#d" y1="2365.19" y2="2365.19"/>
  <radialGradient id="u" cx="50.06" cy="104.07" gradientTransform="matrix(1 0 0 .44 0 57.91)" gradientUnits="userSpaceOnUse" r="159.83">
   <stop offset="0.08" stop-color="#b3e4f5"/>
   <stop offset="0.15" stop-color="#afe3f5"/>
   <stop offset="0.22" stop-color="#a4e0f5"/>
   <stop offset="0.29" stop-color="#90dbf5"/>
   <stop offset="0.35" stop-color="#75d5f5"/>
   <stop offset="0.42" stop-color="#53ccf5"/>
   <stop offset="0.45" stop-color="#41c8f5"/>
   <stop offset="0.47" stop-color="#46c9f5"/>
   <stop offset="0.5" stop-color="#54cdf6"/>
   <stop offset="0.53" stop-color="#6bd4f7"/>
   <stop offset="0.56" stop-color="#8cddf8"/>
   <stop offset="0.6" stop-color="#b5e8f9"/>
   <stop offset="0.63" stop-color="#e8f6fb"/>
   <stop offset="0.64" stop-color="#fcfcfc"/>
   <stop offset="0.7" stop-color="#6bbaff"/>
   <stop offset="1" stop-color="#41c8f5"/>
  </radialGradient>
  <radialGradient id="v" cx="39.05" cy="116.55" gradientUnits="userSpaceOnUse" r="22.08">
   <stop offset="0" stop-color="#bde7f5"/>
   <stop offset="0.07" stop-color="#bae6f5"/>
   <stop offset="0.11" stop-color="#b2e4f5"/>
   <stop offset="0.15" stop-color="#a3e0f5"/>
   <stop offset="0.18" stop-color="#8edbf5"/>
   <stop offset="0.21" stop-color="#73d5f5"/>
   <stop offset="0.24" stop-color="#52ccf5"/>
   <stop offset="0.25" stop-color="#41c8f5"/>
   <stop offset="1" stop-color="#1b62c1"/>
  </radialGradient>
  <radialGradient id="w" cx="48.4" cy="123.08" gradientUnits="userSpaceOnUse" r="8.14">
   <stop offset="0.08" stop-color="#bde7f5"/>
   <stop offset="0.39" stop-color="#41c8f5"/>
   <stop offset="1" stop-color="#1b62c1"/>
  </radialGradient>
  <radialGradient id="x" cx="219" cy="122.2" r="10.72" xlink:href="#a"/>
  <radialGradient id="y" cx="211.21" cy="121.32" r="13.63" xlink:href="#a"/>
  <radialGradient id="z" cx="143.77" cy="118.72" r="12.42" xlink:href="#a"/>
  <radialGradient id="A" cx="144.55" cy="113.62" r="10.47" xlink:href="#a"/>
  <radialGradient id="B" cx="3609.88" cy="5488.87" gradientTransform="matrix(.52 .85 -.85 .52 2924.15 -5860.15)" r="9.07" xlink:href="#a"/>
  <radialGradient id="C" cx="4901.38" cy="6059.62" gradientTransform="matrix(.32507304 .94568891 -.94568891 .32507304 4283.13 -6511.33)" gradientUnits="userSpaceOnUse" r="13.93">
   <stop offset="0.08" stop-color="#bde7f5"/>
   <stop offset="0.44" stop-color="#41c8f5"/>
   <stop offset="1" stop-color="#1b62c1"/>
  </radialGradient>
  <radialGradient id="D" cx="234.4" cy="101.06" gradientTransform="matrix(1 0 0 .44 0 56.23)" r="159.83" xlink:href="#u"/>
  <linearGradient id="svg_34" x1="0.50208" x2="0.50208" y1="0.11018" y2="1.09346">
   <stop offset="0" stop-color="#cce6ff"/>
   <stop offset="0.57" stop-color="#a9d6ff"/>
   <stop offset="1" stop-color="#1d98ff"/>
  </linearGradient>
  <linearGradient id="svg_33" x1="0.60653" x2="-0.20713" y1="0.4609" y2="0.82456">
   <stop offset="0" stop-color="#fff"/>
   <stop offset="1" stop-color="#88cfff"/>
  </linearGradient>
  <linearGradient id="svg_43" x1="0.02428" x2="0.02428" y1="0.51575" y2="1.79324">
   <stop offset="0" stop-color="#cce6ff"/>
   <stop offset="1" stop-color="#1d98ff"/>
  </linearGradient>
  <linearGradient id="svg_42" x1="0.0855" x2="0.0855" y1="0.66445" y2="1.755">
   <stop offset="0" stop-color="#fff"/>
   <stop offset="1" stop-color="#a3d3ff"/>
  </linearGradient>
  <linearGradient id="svg_41" x1="0.33538" x2="0.33538" y1="0.98628" y2="-0.19279">
   <stop offset="0" stop-color="#cce6ff"/>
   <stop offset="1" stop-color="#1d98ff"/>
  </linearGradient>
 </defs>
 <g>
  <title>Layer 1</title>
  <path d="m11.27,133a4,4 0 0 0 -1.66,0.11a1.54,1.54 0 0 0 -1.06,1.2a1.57,1.57 0 0 0 1.21,1.52a4.62,4.62 0 0 0 2.09,-0.06l5.06,-0.93c0.23,0 1,-0.11 0.49,-0.35a8,8 0 0 0 -1.1,-0.41a20.9,20.9 0 0 0 -5,-1.08l-0.03,0z" fill="url(#a)" id="svg_1"/>
  <path d="m25.56,93.14c-1.67,-1 -3.61,-2.55 -3.1,-4.43c0.45,-1.71 2.54,-2.22 4.24,-2.47l12,-1.74l0.9,-0.13l3.07,-0.45a25,25 0 0 1 7,-0.35a8.44,8.44 0 0 1 5.94,3.29c0.7,-0.4 0.45,-1.51 -0.12,-2.08s-1.37,-0.93 -1.75,-1.64c-0.79,-1.5 1.14,-3.29 2.8,-3s2.76,1.93 3.4,3.51s1,3.29 2.07,4.62s3.13,2.08 4.47,1c2.66,-2.09 -1.08,-7.34 1.52,-9.51c1.29,-1.08 3.33,-0.46 4.56,0.69s2,2.72 3.18,3.91s3.13,2 4.53,1c0.54,-0.35 0.92,-0.9 1.46,-1.25c1.91,-1.22 4.31,0.84 5.21,2.92s1.45,4.64 3.47,5.68c2.18,1.12 4.93,-0.3 6.31,-2.32s1.86,-4.5 2.74,-6.79s2.42,-4.61 4.8,-5.17c1.68,-0.4 3.42,0.14 5.14,0.26a10.34,10.34 0 0 0 8.18,-3.27c-0.1,3.57 -2.93,6.38 -5.56,8.79l16.45,-8c2.31,-1.13 5.44,-2.12 7.15,-0.2a3,3 0 0 1 -4.25,4.14a7.11,7.11 0 0 1 4,4.41a39,39 0 0 0 -15.95,3.48a93.08,93.08 0 0 0 -12.24,7.31c-9.64,6.32 -19.89,12 -31.06,14.85c-1.91,0.48 -3.85,0.87 -5.8,1.17a57.46,57.46 0 0 1 -5.87,0.58a50.18,50.18 0 0 1 -5.88,-0.06a45.64,45.64 0 0 1 -5.82,-0.75a42.5,42.5 0 0 1 -5.66,-1.5a34.25,34.25 0 0 1 -5.36,-2.31a7.47,7.47 0 0 1 -3.37,-3.73a18.49,18.49 0 0 0 -1.22,-3.18c-1,-1.48 -2.83,-2.26 -4.31,-3.13l-5.89,-3.29l-1.38,-0.86z" fill="url(#b)" id="svg_2"/>
  <path d="m201.63,93.14c-1.68,-1 -3.61,-2.55 -3.11,-4.43c0.46,-1.68 2.53,-2.22 4.25,-2.47l11.95,-1.74l0.91,-0.13l3.06,-0.45a25.11,25.11 0 0 1 7,-0.35a8.46,8.46 0 0 1 5.94,3.29c0.7,-0.4 0.45,-1.51 -0.12,-2.08s-1.37,-0.93 -1.75,-1.64c-0.8,-1.5 1.14,-3.29 2.8,-3s2.76,1.93 3.39,3.51s1,3.29 2.08,4.62s3.13,2.08 4.46,1c2.66,-2.09 -1.07,-7.34 1.52,-9.51c1.3,-1.08 3.34,-0.46 4.56,0.69s2,2.72 3.18,3.91s3.14,2 4.54,1c0.53,-0.35 0.91,-0.9 1.45,-1.25c1.92,-1.22 4.31,0.84 5.21,2.92s1.46,4.64 3.48,5.68c2.18,1.12 4.92,-0.3 6.31,-2.32s1.86,-4.5 2.73,-6.79s2.43,-4.61 4.81,-5.17c1.68,-0.4 3.42,0.14 5.14,0.26a10.34,10.34 0 0 0 8.18,-3.27c-0.1,3.57 -2.93,6.38 -5.57,8.79l16.46,-8c2.31,-1.13 5.44,-2.12 7.14,-0.2a3,3 0 0 1 -4.25,4.14a7.11,7.11 0 0 1 4,4.41a39,39 0 0 0 -15.94,3.48a93.08,93.08 0 0 0 -12.24,7.31c-9.65,6.32 -19.89,12 -31.07,14.85q-2.87,0.72 -5.79,1.17a58,58 0 0 1 -5.87,0.58a50.16,50.16 0 0 1 -5.88,-0.06a45.64,45.64 0 0 1 -5.82,-0.75a42.5,42.5 0 0 1 -5.66,-1.5a33.84,33.84 0 0 1 -5.36,-2.31a7.49,7.49 0 0 1 -3.38,-3.73a17,17 0 0 0 -1.22,-3.18c-1,-1.48 -2.82,-2.26 -4.3,-3.13l-5.85,-3.29l-1.37,-0.86z" fill="url(#c)" id="svg_3"/>
  <path d="m73.6,22.69a39.52,39.52 0 0 1 -20.25,6.25a17.65,17.65 0 0 0 -15.07,8.47a1.87,1.87 0 0 0 1.65,2.88c7.21,-0.41 17.07,3.22 15.87,18.58c7.94,-13.87 17.8,-36.18 17.8,-36.18z" fill="url(#d)" id="svg_4"/>
  <path d="m68.54,25.44a31.18,31.18 0 0 0 5.06,-2.75s-9.86,22.31 -17.8,36.18c0.48,-6.2 -0.84,-10.48 -3,-13.37c3.89,-7.76 7.74,-15.5 15.74,-20.06z" fill="url(#e)" id="svg_5"/>
  <path d="m113.46,66.47s0.13,6.77 -1.19,8.94c7,-6 9.17,-12.7 9.38,-15.26c-3.65,1.85 -8.19,6.32 -8.19,6.32z" fill="url(#f)" id="svg_6"/>
  <path d="m159.53,13.36c-5.31,0.22 -7,1 -9.95,0.23c-9.46,1.19 -12.06,6.8 -19,9.11c-3.92,1.3 -6.45,0.68 -9.53,0.71c-27.41,0.29 -68.24,70.2 -31,136c1.49,2.64 6.57,5.92 9.37,5c-5.71,1.39 -15.42,-11.57 -12.79,-37.67s11.06,-49.09 31.84,-64.23s29.55,-27.13 32,-30.72s12.83,-8.89 14.94,-12.09s-0.58,-6.55 -5.88,-6.34z" fill="url(#g)" id="svg_7"/>
  <path d="m90.05,159.43c-37.27,-65.82 3.56,-135.73 31,-136c3.08,0 5.61,0.59 9.53,-0.71c7,-2.31 9.57,-7.92 19,-9.11c-1.44,-0.37 -7.09,-8.45 -19.32,-11.89c-12.56,-3.54 -31.91,-2.26 -49.66,10.28c-39.6,29 -38.69,120.92 9.77,163c-2.09,13.64 2.94,32.93 8.62,36.7c-0.73,-16.43 1.4,-27.69 5,-33.78c4.72,-6.74 13.59,-15.52 23.85,-21.95c-6.12,-4.89 -22.26,7.72 -28.46,8.53c-2.76,0.85 -7.84,-2.43 -9.33,-5.07z" fill="url(#h)" id="svg_8"/>
  <path d="m139.76,5.84a38.53,38.53 0 0 0 -8.23,-3.38c-12.76,-3.58 -32.43,-2.27 -50.47,10.46c-18.68,13.68 -28.49,41.17 -28.71,70.98c-0.23,-30.12 9.43,-58.13 28.25,-71.9c17.75,-12.54 37.1,-13.83 49.66,-10.3a37.78,37.78 0 0 1 9.5,4.14z" fill="url(#i)" id="svg_9"/>
  <path d="m131.83,19.84a14.41,14.41 0 0 1 -3.25,-1.94a2.85,2.85 0 0 0 -3.77,0.08a15,15 0 0 1 -2.88,1.48a5.92,5.92 0 0 0 5.13,2a11.28,11.28 0 0 0 4.77,-1.62z" fill="#002f56" id="svg_10"/>
  <path d="m120.61,48a47.49,47.49 0 0 1 4.09,9.84c3.25,-2.57 6.15,-5 8.71,-7.32a101.53,101.53 0 0 0 -1.1,-10.62c-0.14,-1.24 -1,-5.07 -1.51,-5.84c-0.51,3.14 -10.19,13.94 -10.19,13.94z" fill="url(#j)" id="svg_11"/>
  <path d="m120.61,48s9.68,-10.8 10.19,-14c0.54,0.76 1.37,4.6 1.51,5.84c0.82,7.54 11.12,22.13 1.91,32.71c-0.81,-5.66 -6.51,-21.74 -13.61,-24.55z" fill="url(#k)" id="svg_12"/>
  <path d="m246.2,159.43c-1.49,2.64 -6.57,5.92 -9.37,5c5.71,1.34 15.44,-11.62 12.8,-37.72s-11.06,-49.09 -31.85,-64.22c-2.2,-1.61 -4.28,-3.19 -6.22,-4.72c-3.26,-2.57 -6.16,-5 -8.72,-7.32c-10.32,-9.25 -15.31,-16.12 -17.08,-18.69c-2.47,-3.56 -12.76,-8.86 -14.91,-12.06s0.58,-6.55 5.88,-6.33s7,1 9.94,0.22c9.46,1.19 12.06,6.8 19,9.11c3.93,1.3 6.46,0.68 9.54,0.71c27.43,0.29 68.27,70.2 30.99,136.02z" fill="url(#l)" id="svg_13"/>
  <path d="m262.65,22.69a39.56,39.56 0 0 0 20.25,6.25a17.67,17.67 0 0 1 15.1,8.47a1.87,1.87 0 0 1 -1.65,2.88c-7.22,-0.41 -17.07,3.22 -15.88,18.58c-7.96,-13.87 -17.82,-36.18 -17.82,-36.18z" fill="url(#m)" id="svg_14"/>
  <path d="m267.71,25.44a31.18,31.18 0 0 1 -5.06,-2.75s9.86,22.32 17.8,36.18c-0.48,-6.2 0.84,-10.48 3.06,-13.37c-3.95,-7.76 -7.79,-15.5 -15.8,-20.06z" fill="url(#n)" id="svg_15"/>
  <path d="m298,37.41a17.67,17.67 0 0 0 -15.08,-8.47a40.77,40.77 0 0 1 -15.19,-3.5c8,4.53 11.85,12.3 15.8,20.06c3.27,-4.26 8.51,-5.45 12.82,-5.21a1.87,1.87 0 0 0 1.65,-2.88z" fill="url(#o)" id="svg_16"/>
  <path d="m222.79,66.47s-0.13,6.77 1.19,8.94c-7,-6 -9.17,-12.7 -9.37,-15.26c3.63,1.85 8.18,6.32 8.18,6.32z" fill="url(#p)" id="svg_17"/>
  <path d="m246.2,159.43c37.28,-65.82 -3.56,-135.73 -31,-136c-3.08,0 -5.61,0.59 -9.54,-0.71c-7,-2.31 -9.57,-7.92 -19,-9.11c1.44,-0.37 7.09,-8.45 19.32,-11.89c12.57,-3.54 31.93,-2.26 49.67,10.28c39.57,29 38.7,120.93 -9.77,163c2.09,13.64 -2.93,32.93 -8.62,36.7c0.74,-16.43 -1.4,-27.69 -5,-33.78c-4.72,-6.74 -13.58,-15.52 -23.84,-21.95c6.11,-4.89 22.25,7.72 28.45,8.53c2.77,0.85 7.84,-2.43 9.33,-5.07z" fill="url(#q)" id="svg_18"/>
  <path d="m196.49,5.84a38.74,38.74 0 0 1 8.23,-3.38c12.76,-3.58 32.43,-2.27 50.47,10.46c18.68,13.68 28.49,41.17 28.71,71c0.24,-30.12 -9.43,-58.13 -28.25,-71.91c-17.74,-12.55 -37.1,-13.84 -49.65,-10.31a37.78,37.78 0 0 0 -9.51,4.14z" fill="url(#r)" id="svg_19"/>
  <path d="m204.43,19.84a14.23,14.23 0 0 0 3.24,-1.94a2.87,2.87 0 0 1 3.78,0.08a14.7,14.7 0 0 0 2.87,1.48a5.89,5.89 0 0 1 -5.12,2a11.2,11.2 0 0 1 -4.77,-1.62z" fill="#002f56" id="svg_20"/>
  <path d="m215.64,48a46.9,46.9 0 0 0 -4.08,9.84c-3.26,-2.57 -6.16,-5 -8.72,-7.32a104.3,104.3 0 0 1 1.1,-10.62c0.14,-1.24 1,-5.07 1.52,-5.84c0.54,3.14 10.18,13.94 10.18,13.94z" fill="url(#s)" id="svg_21"/>
  <path d="m215.64,48s-9.64,-10.8 -10.18,-14c-0.54,0.76 -1.38,4.6 -1.52,5.84c-0.82,7.56 -11.12,22.16 -1.94,32.73c0.84,-5.68 6.54,-21.76 13.64,-24.57z" fill="url(#t)" id="svg_22"/>
  <path d="m22,86.66a5.21,5.21 0 0 0 -6.53,0.35a4.27,4.27 0 0 0 1.45,7a9.12,9.12 0 0 0 4.56,0.13c2.58,-0.45 5.29,-1.25 7.69,0.38a3.09,3.09 0 0 1 1.19,3.74c-0.66,1.52 -2.42,1.85 -4,2l-12,1.55c-3.6,0.47 -7.35,1 -10.37,3s-5,6 -3.57,9.38c1.87,4.28 7.85,4.79 12.31,3.41s8.76,-4 13.42,-3.59c-4.78,1.92 -12.9,10.09 -7.91,13.23c4.2,2.63 8.27,-6 16.13,-9.36c11.38,-4.82 22.5,-3.87 25.18,-2.11c6.14,4 3.68,8.76 4.39,13.49s2.23,10.19 6.7,11.9c4.3,1.64 9,-1.15 12.44,-4.19s6.94,-9.87 11.53,-10.24c3.09,-0.24 6.68,3.35 9,5.41a8.8,8.8 0 0 0 9,2c3,-0.9 3.58,-4.07 2,-6.76c2.06,-0.13 4.7,0.26 4.78,-3.52c0.11,-4.75 -8.44,-7 -8.7,-11.78c-0.28,-4.93 12.65,1.35 16.66,4.24c8.19,5.92 25.41,-1.92 9.57,-11.86c2.1,1.21 5.19,-1.82 5.12,-4.24c-0.21,-8 -18.41,-6.7 -23.8,-7.34a19,19 0 0 0 8,-1.38a2.07,2.07 0 0 0 -0.58,-4c-5.76,-0.43 -11.76,1.39 -17,4c-6.93,3.49 -13.11,8.35 -20.06,11.79c-11.08,5.49 -24.35,7.12 -36,3c-6.62,-2.37 -12.47,-6.46 -18.24,-10.5l-9.77,-6.79l-2.59,-2.34z" fill="url(#u)" id="svg_23"/>
  <path d="m37.3,122c-2.94,2.26 -3.55,6.34 -1.91,7.67c0.87,0.7 3.16,1.05 5.2,-1.12c3.22,-3.41 1.17,-6.24 9,-8.51c-0.97,-0.64 -7.59,-1.62 -12.29,1.96z" fill="url(#v)" id="svg_24"/>
  <path d="m47.69,124.53a1.89,1.89 0 0 0 0.13,2.11a2,2 0 0 0 1.74,0.23a3.78,3.78 0 0 0 1.57,-0.58a1.53,1.53 0 0 0 0.65,-1.47c-0.1,-0.45 -0.46,-0.83 -0.44,-1.29c0,-0.64 0.73,-1 1.18,-1.43a2,2 0 0 0 0.49,-0.77c0.07,-0.18 0.24,-0.6 0,-0.72s-0.54,0 -0.75,0.06a5.5,5.5 0 0 0 -0.81,0.27a6.94,6.94 0 0 0 -2.75,2a6.71,6.71 0 0 0 -0.92,1.43l-0.09,0.16z" fill="url(#w)" id="svg_25"/>
  <path d="m213.31,124.35a1.54,1.54 0 0 0 0,2.31a1.73,1.73 0 0 0 2.08,-0.68a12.71,12.71 0 0 0 0.89,-1.57a7,7 0 0 1 1.12,-1.25a4.61,4.61 0 0 0 -0.72,0.15c-0.42,0.08 -0.84,0.12 -1.26,0.18a3.72,3.72 0 0 0 -2.11,0.86z" fill="url(#x)" id="svg_26"/>
  <path d="m203.71,124.78a5.36,5.36 0 0 0 -1.66,1.44a2,2 0 0 0 2.38,3.17a4.53,4.53 0 0 0 2.38,-2c0.58,-0.89 1,-1.88 1.65,-2.74a5.86,5.86 0 0 1 1.87,-1.87a12.81,12.81 0 0 0 -4.46,0.91a11.07,11.07 0 0 0 -2.16,1.09z" fill="url(#y)" id="svg_27"/>
  <path d="m144.46,117.75a13.64,13.64 0 0 1 3.19,-0.12a4.49,4.49 0 0 1 2.84,1.32a2.75,2.75 0 0 1 0.54,3a2.32,2.32 0 0 1 -2.56,1.18c-1.47,-0.38 -2.13,-2 -3.17,-3.12a5,5 0 0 0 -2.25,-1.35a4.56,4.56 0 0 0 -0.64,-0.14c-0.12,0 -0.51,0 -0.6,-0.08c-0.35,-0.36 0.66,-0.42 0.78,-0.43l1.87,-0.26z" fill="url(#z)" id="svg_28"/>
  <path d="m150.41,113.1a2.5,2.5 0 0 1 0.7,3c0,-0.08 -0.83,-0.72 -0.92,-0.79a7.9,7.9 0 0 0 -1.09,-0.63a11.32,11.32 0 0 0 -2.46,-0.83c-0.42,-0.1 -0.87,-0.14 -1.29,-0.25s-0.3,-0.31 -0.1,-0.56a3.61,3.61 0 0 1 2.46,-0.75a4,4 0 0 1 2.7,0.81z" fill="url(#A)" id="svg_29"/>
  <path d="m136.91,87.72a1.83,1.83 0 0 1 1.6,0.3a1.75,1.75 0 0 1 -0.4,2.49c-0.86,0.65 -1.92,0.33 -3,0.41a2.61,2.61 0 0 0 -1.51,1c-0.21,-0.41 0.42,-1.74 0.61,-2a4.55,4.55 0 0 1 2.7,-2.2z" fill="url(#B)" id="svg_30"/>
  <path d="m147.47,97.83c-1.14,0.58 -2.17,-0.26 -2.67,-1.28a3.07,3.07 0 0 0 -3,-1.65c0.27,-0.88 2,-1.15 2.77,-1.08a4.65,4.65 0 0 1 3.12,1.29a1.79,1.79 0 0 1 -0.22,2.72z" fill="url(#C)" id="svg_31"/>
  <path d="m206.35,83.65a5.2,5.2 0 0 0 -6.53,0.35a4.26,4.26 0 0 0 1.45,7a9.12,9.12 0 0 0 4.56,0.14c2.58,-0.45 5.29,-1.25 7.68,0.38a3.1,3.1 0 0 1 1.2,3.74c-0.67,1.52 -2.42,1.84 -4,2l-12,1.56c-3.6,0.47 -7.35,1 -10.37,3s-5,6 -3.57,9.38c1.87,4.28 7.85,4.79 12.31,3.41s8.76,-4 13.41,-3.6c-4.77,1.93 -12.89,10.1 -7.9,13.23c4.2,2.63 8.27,-6 16.13,-9.35c11.38,-4.82 22.5,-3.87 25.18,-2.11c6.14,4 3.68,8.75 4.39,13.49s2.23,10.19 6.7,11.9c4.3,1.64 9,-1.15 12.44,-4.19s6.94,-9.88 11.53,-10.24c3.08,-0.24 6.68,3.35 9,5.41a8.82,8.82 0 0 0 9,2c3,-0.9 3.58,-4.07 2.05,-6.77c2.06,-0.12 4.69,0.27 4.78,-3.51c0.11,-4.75 -8.44,-7 -8.71,-11.78c-0.27,-4.93 12.66,1.35 16.67,4.24c8.18,5.91 25.41,-1.92 9.57,-11.86c2.1,1.21 5.18,-1.82 5.12,-4.25c-0.21,-8 -18.42,-6.69 -23.8,-7.33a19.15,19.15 0 0 0 8,-1.38a2.07,2.07 0 0 0 -0.58,-4c-5.77,-0.43 -11.76,1.39 -17,4c-6.92,3.63 -13.06,8.49 -20.06,11.94c-11.09,5.49 -24.35,7.12 -36,3c-6.6,-2.45 -12.46,-6.45 -18.22,-10.54l-9.85,-6.91l-2.58,-2.35z" fill="url(#D)" id="svg_32"/>
  <g stroke="null" id="svg_54">
   <rect stroke="null" height="118.20699" id="svg_40" width="114.23598" x="107.79702" y="10.22651" fill="none"/>
   <path stroke="null" d="m115.68746,65.61798l46.91601,-49.32738c2.11507,-2.22378 5.54445,-2.22378 7.65977,0l46.91577,49.32738c2.11533,2.22378 2.11533,5.82941 0,8.05347l-46.91577,49.32711c-2.11533,2.22405 -5.5447,2.22405 -7.65977,0l-46.91601,-49.32711c-2.11507,-2.22405 -2.11507,-5.82969 0,-8.05347z" id="svg_39" fill="url(#svg_34)"/>
   <path stroke="null" id="svg_55" d="m161.78959,18.26781c2.55274,-2.60311 5.37473,-3.73649 9.03888,0c14.89422,15.33692 29.62901,30.84688 44.22673,46.49581c3.36637,3.64916 2.8891,6.37177 -0.00051,9.50453c-14.61829,15.62784 -29.32222,31.1697 -44.22647,46.49554c-3.43837,3.53561 -5.60641,3.52912 -9.03836,0c-14.90425,-15.32584 -29.60817,-30.8677 -44.22647,-46.49554c-3.65181,-3.95874 -3.79788,-5.38817 -0.00077,-9.50453c14.59798,-15.64893 29.33251,-31.15889 44.22699,-46.49581l-0.00002,0zm6.89372,2.27948c-2.07882,-2.09049 -4.14117,-0.61968 -4.76528,0.01676c-14.8811,15.32367 -29.68583,30.73468 -44.18764,46.45525c-1.22199,1.34373 -1.21659,3.69188 0.03137,5.02615c14.66201,15.54457 29.22579,31.19674 44.17273,46.43822c1.27418,1.28128 3.46923,1.31615 4.78173,-0.03353c14.7641,-15.43696 29.67503,-30.72332 44.17119,-46.43849c1.2135,-1.33373 1.24924,-3.65322 -0.03111,-5.02588c-14.68258,-15.52321 -29.22579,-31.19674 -44.17298,-46.43849l-0.00001,0.00001z" fill="#fff" fill-opacity="0.53333" fill-rule="nonzero"/>
   <path stroke="null" d="m165.53757,93.03605c2.83844,0 5.14303,2.24108 5.14303,5.00182c0,2.76046 -2.30459,5.00182 -5.14303,5.00182c-2.83844,0 -5.14303,-2.24135 -5.14303,-5.00182c0,-2.76073 2.30459,-5.00182 5.14303,-5.00182zm-1.34413,-48.09666c0.18747,-0.01947 0.37905,-0.02893 0.57268,-0.02893c3.26428,0 5.91449,2.72586 5.91449,6.08329c0,0.21008 -0.01029,0.41745 -0.03086,0.62374l16.26047,16.81881l-4.56239,4.78579l-13.74141,-14.21354l0,31.93052l-6.45219,0l0,-34.14835l0.82083,0c-2.38971,-0.7792 -4.12342,-3.08166 -4.12342,-5.79697c0,-0.6278 0.09258,-1.23342 0.26409,-1.80174l-14.14694,-14.63315l4.56239,-4.78579l14.66227,15.16632l0.00001,0zm24.10204,24.5746c2.76747,0 5.01446,2.24108 5.01446,5.00182c0,2.76046 -2.247,5.00182 -5.01446,5.00182c-2.76747,0 -5.01446,-2.24135 -5.01446,-5.00182c0,-2.76073 2.247,-5.00182 5.01446,-5.00182z" id="svg_38" fill="url(#svg_33)"/>
   <path stroke="null" d="m165.38019,42.63936c4.37055,0 7.91872,3.72189 7.91872,8.30626c0,4.58437 -3.54818,8.30626 -7.91872,8.30626c-4.37029,0 -7.91847,-3.72189 -7.91847,-8.30626c0,-4.58437 3.54818,-8.30626 7.91847,-8.30626zm-0.09977,3.89331c2.27065,0 4.11442,1.93827 4.11442,4.3259c0,2.38735 -1.84378,4.3259 -4.11442,4.3259c-2.2709,0 -4.11442,-1.93854 -4.11442,-4.3259c0,-2.38762 1.84352,-4.3259 4.11442,-4.3259z" id="svg_37" fill="#0084ff"/>
   <path stroke="null" d="m165.38019,89.40094c4.37055,0 7.91872,3.72189 7.91872,8.30626c0,4.58437 -3.54818,8.30653 -7.91872,8.30653c-4.37029,0 -7.91847,-3.72216 -7.91847,-8.30653c0,-4.58437 3.54818,-8.30626 7.91847,-8.30626zm-0.09977,3.90547c2.27065,0 4.11442,1.93827 4.11442,4.3259c0,2.38735 -1.84378,4.3259 -4.11442,4.3259c-2.2709,0 -4.11442,-1.93854 -4.11442,-4.3259c0,-2.38762 1.84352,-4.3259 4.11442,-4.3259z" id="svg_36" fill="#0084ff"/>
   <path stroke="null" d="m187.96273,66.02002c4.37055,0 7.91872,3.72189 7.91872,8.30653c0,4.58437 -3.54818,8.30626 -7.91872,8.30626c-4.37029,0 -7.91847,-3.72189 -7.91847,-8.30626c0,-4.58464 3.54818,-8.30653 7.91847,-8.30653zm-0.05298,4.30508c2.27065,0 4.11442,1.93827 4.11442,4.3259c0,2.38735 -1.84378,4.3259 -4.11442,4.3259c-2.2709,0 -4.11442,-1.93854 -4.11442,-4.3259c0,-2.38762 1.84352,-4.3259 4.11442,-4.3259z" id="svg_35" fill="#0bbc00"/>
   <path stroke="null" id="svg_56" d="m165.84975,43.63324c0.71694,0.06273 0.98078,1.42214 -0.19955,1.45053c-2.14439,0.07111 -4.16431,1.42646 -5.17698,3.4764c0,0 -0.20958,0.33174 -0.50093,0.38149c-0.49013,0.08354 -0.96946,-0.511 -0.72208,-1.0493c0.16227,-0.32877 0.20238,-0.39258 0.31064,-0.57507c1.29476,-2.18106 3.64306,-3.62429 6.11841,-3.68377c0.05684,-0.00081 0.11366,-0.00162 0.17049,-0.00027l0,-0.00001z" fill="#fff" fill-opacity="0.6" fill-rule="nonzero"/>
   <path stroke="null" id="svg_57" d="m159.11933,50.39894c0.41993,0.01784 0.68686,0.4115 0.66576,0.92899c-0.02648,0.77785 0.07252,1.55732 0.29521,2.30273c0,0 0.0756,0.52154 -0.22037,0.77704c-0.43331,0.37392 -1.01344,0.0776 -1.2333,-0.85815c-0.189,-0.80462 -0.25638,-1.64114 -0.20958,-2.46901c0,0 0.1134,-0.68268 0.70228,-0.6816l0.00001,0z" fill="#fff" fill-opacity="0.6" fill-rule="nonzero"/>
   <path stroke="null" id="svg_58" d="m188.78948,67.07148c0.64596,0.05651 0.62874,0.30741 0.65085,0.67835c0.02597,0.43746 -0.34175,0.76055 -0.85374,0.77217c-2.16238,0.0703 -4.23092,1.38996 -5.27135,3.44152c0,0 -0.90311,0.82922 -1.24744,-0.0703c-0.08667,-0.2263 -0.13423,-0.29335 0.08974,-0.72567c1.27881,-2.4225 3.80198,-4.03552 6.46016,-4.09581c0.05735,-0.00081 0.11443,-0.00162 0.17178,-0.00027l0,0.00001z" fill="#fff" fill-opacity="0.6" fill-rule="nonzero"/>
   <path stroke="null" id="svg_59" d="m181.95361,73.76391c0.97692,0.04245 0.59839,2.00586 0.96354,3.19711c0,0 0.07071,0.67078 -0.37107,0.88167c-0.45002,0.21521 -0.86995,-0.10247 -1.06358,-0.8741c-0.06892,-0.27415 -0.12369,-0.55236 -0.1638,-0.83273c-0.07997,-0.55858 -0.1008,-1.12636 -0.0684,-1.69115c0,0 0.11648,-0.68241 0.70331,-0.68079l-0.00001,-0.00001z" fill="#fff" fill-opacity="0.6" fill-rule="nonzero"/>
   <path stroke="null" id="svg_60" d="m166.16708,90.33047c0.71488,0.06327 1.00546,1.42295 -0.20341,1.45053c-2.16522,0.07057 -4.24171,1.38888 -5.28343,3.43638c0,0 -0.31141,0.44476 -0.72079,0.37311c-0.43304,-0.0757 -0.71899,-0.5821 -0.4945,-1.05633c0.1656,-0.32579 0.2065,-0.38906 0.31707,-0.5694c1.32793,-2.17079 3.71379,-3.57725 6.21278,-3.63402c0.05761,-0.00081 0.11494,-0.00162 0.17229,-0.00027z" fill="#fff" fill-opacity="0.6" fill-rule="nonzero"/>
   <path stroke="null" id="svg_61" d="m159.31759,97.01263c0.99004,0.04299 0.59916,2.00884 0.96381,3.19143c0,0 0.04577,0.86302 -0.5719,0.9425c-0.62694,0.08084 -0.89385,-0.89546 -1.01524,-1.68737c-0.08949,-0.58291 -0.11392,-1.17637 -0.07997,-1.76605c0,0 0.11443,-0.68241 0.70331,-0.68052l0,0.00001z" fill="#fff" fill-opacity="0.6" fill-rule="nonzero"/>
  </g>
  <g id="svg_62" stroke="null">
   <rect height="96.37" id="svg_53" width="143.61499" x="102.10752" y="116.14501" fill="none" stroke="null"/>
   <path d="m227.74324,132.88026c0,-2.33719 -2.35645,-4.23455 -5.25915,-4.23455l-101.16737,0c-2.9027,0 -5.25915,1.89736 -5.25915,4.23455l0,51.00634c0,2.33719 2.35645,4.23455 5.25915,4.23455l101.16737,0c2.9027,0 5.25915,-1.89736 5.25915,-4.23455l0,-51.00634z" id="svg_52" fill="#cce6ff" fill-opacity="0.25882" stroke="null"/>
   <path d="m224.39983,129.53044c0,-2.33719 -2.35645,-4.23455 -5.25915,-4.23455l-101.16737,0c-2.9027,0 -5.25915,1.89736 -5.25915,4.23455l0,51.00662c0,2.33691 2.35645,4.23455 5.25915,4.23455l101.16737,0c2.9027,0 5.25915,-1.89765 5.25915,-4.23455l0,-51.00662z" id="svg_51" fill="url(#svg_43)" stroke="null"/>
   <path d="m218.55551,132.42885c0,-1.71387 -1.72816,-3.10534 -3.85671,-3.10534l-93.0462,0c-1.54794,0 -2.80488,1.01206 -2.80488,2.25843l0,42.45226l99.70778,0l0,-41.60535l0.00001,0z" id="svg_50" fill="url(#svg_42)" stroke="null"/>
   <path d="m177.06612,179.12837c0,-0.93499 -0.94279,-1.69382 -2.10366,-1.69382l-12.28291,0c-1.16087,0 -2.10366,0.75883 -2.10366,1.69382l0,0.49827c0,0.93499 0.94279,1.69382 2.10366,1.69382l12.28291,0c1.16087,0 2.10366,-0.75883 2.10366,-1.69382l0,-0.49827z" id="svg_49" fill="#e5f1ff" stroke="null"/>
   <path d="m175.27555,150.11433l0,2.21834l-3.83392,1.37228c-0.15076,0.64026 -0.35973,1.26387 -0.62093,1.868l2.46794,2.73157l-1.37755,1.92108l-4.17576,-0.3557c-0.52311,0.48726 -1.08934,0.94318 -1.6945,1.36437l0.44177,3.36308l-2.38555,1.10917l-3.3918,-1.98714c-0.74995,0.21032 -1.5248,0.37829 -2.31998,0.49996l-1.70396,3.08727l-2.75474,0l-1.70396,-3.08756c-0.79518,-0.12139 -1.56968,-0.28964 -2.31998,-0.49968l-3.39145,1.98714l-2.3859,-1.10917l0.44177,-3.3628c-0.60515,-0.4212 -1.17174,-0.8774 -1.69485,-1.36466l-4.17541,0.3557l-1.37719,-1.92108l2.46724,-2.73129c-0.26085,-0.60413 -0.46982,-1.22802 -0.62058,-1.86829l-3.83392,-1.37228l0,-2.21834l3.83357,-1.372c0.15146,-0.64055 0.35973,-1.26444 0.62093,-1.86885l-2.46724,-2.73072l1.37719,-1.92136l4.17751,0.35598c0.52276,-0.48697 1.08794,-0.94374 1.69274,-1.36466l-0.44177,-3.3628l2.3859,-1.10917l3.3918,1.98742c0.7503,-0.21032 1.5248,-0.37857 2.31963,-0.50024l1.70396,-3.08727l2.75474,0l1.70396,3.08727c0.79518,0.12167 1.56968,0.28993 2.31963,0.50024l3.39215,-1.98742l2.38555,1.10917l-0.44177,3.3628c0.6048,0.42091 1.16998,0.87768 1.69309,1.36466l4.17716,-0.35598l1.37755,1.92136l-2.46724,2.73072c0.2612,0.60441 0.46947,1.2283 0.62058,1.86885l3.83357,1.372l0.00002,0.00003zm-19.97143,-3.88563c-3.42546,0 -6.20264,2.23641 -6.20264,4.9948c0,2.75867 2.77718,4.9948 6.20264,4.9948c3.42546,0 6.20229,-2.23613 6.20229,-4.9948c0,-2.75839 -2.77683,-4.9948 -6.20229,-4.9948z" id="svg_48" fill="#0bbc00" stroke="null"/>
   <path d="m177.36974,166.83772l0.78151,-0.91466c-0.59113,-0.55303 -1.05814,-1.17692 -1.39227,-1.8632l-1.31514,0.19394c-0.12166,0.01779 -0.24683,-0.00395 -0.3478,-0.06041c-0.10238,-0.05703 -0.17215,-0.14313 -0.19424,-0.24052l-0.49085,-2.13422c-0.04628,-0.20411 0.12096,-0.39607 0.3727,-0.43475l1.41646,-0.2089c0.06346,-0.7162 0.27207,-1.41293 0.62338,-2.07832l-1.13703,-0.6301c-0.10133,-0.0559 -0.17145,-0.14285 -0.19424,-0.24052c-0.02244,-0.09796 0.00456,-0.19846 0.07468,-0.27976l1.52936,-1.78218c0.02279,-0.02767 0.05014,-0.05223 0.08099,-0.0734c0.15567,-0.10615 0.38707,-0.1197 0.56378,-0.02146l1.19348,0.66144c0.69666,-0.48076 1.43049,-0.8503 2.26389,-1.12498l-0.24928,-1.07558c-0.02314,-0.09739 0.00316,-0.19846 0.07223,-0.28005c0.06872,-0.08187 0.17706,-0.13748 0.29837,-0.15527l2.65482,-0.38817c0.25244,-0.0367 0.49506,0.09739 0.54204,0.30122l0.2577,1.11171c0.89791,0.04489 1.79512,0.21229 2.63378,0.49008l0.73733,-0.86216c0.06907,-0.08159 0.17741,-0.13805 0.29907,-0.15583c0.12166,-0.01779 0.24613,0.00367 0.3478,0.0607l2.22076,1.23141c0.21142,0.11744 0.26541,0.35006 0.12166,0.52l-0.75627,0.887c0.61988,0.55303 1.11284,1.18342 1.47151,1.8793l1.21136,-0.17898c0.12096,-0.01807 0.24683,0.00339 0.34886,0.05985c0.10168,0.0559 0.1718,0.14256 0.19424,0.24052l0.49015,2.13534c0.04803,0.20495 -0.12061,0.39861 -0.3713,0.43503l-1.25413,0.18322c-0.05084,0.74754 -0.26436,1.48012 -0.63671,2.18475l0.98346,0.54541c0.21177,0.11716 0.26506,0.35006 0.12026,0.51972l-1.5248,1.78444c-0.14831,0.16966 -0.43405,0.21201 -0.64617,0.09485l-1.04517,-0.57872c-0.7198,0.48246 -1.50447,0.88587 -2.38625,1.16253l0.22194,0.95447c0.02314,0.09768 -0.00245,0.19902 -0.07223,0.28005c-0.07117,0.08187 -0.17811,0.13833 -0.29907,0.15555l-2.65201,0.38901c-0.25244,0.0367 -0.49471,-0.09824 -0.54239,-0.30065l-0.24017,-1.03916c-0.9221,-0.0542 -1.81791,-0.23431 -2.67305,-0.53779l-0.71349,0.83759c-0.07187,0.083 -0.17671,0.13748 -0.29802,0.15555c-0.12096,0.01835 -0.24718,-0.00367 -0.34816,-0.06013l-2.22707,-1.23508c-0.21177,-0.11716 -0.26576,-0.34949 -0.12026,-0.51972l0,-0.00001zm5.06245,-2.95685c1.24642,0.69306 2.91953,0.62982 4.06847,-0.15301c0.22509,-0.15329 0.42494,-0.33142 0.59358,-0.52847c1.04762,-1.22633 0.6588,-2.90999 -0.86495,-3.75577c-1.24817,-0.69249 -2.92444,-0.62813 -4.07584,0.1564c-0.22509,0.15329 -0.42494,0.33142 -0.59393,0.52904c-0.50838,0.59397 -0.69666,1.31187 -0.53152,2.02242c0.16514,0.70661 0.66441,1.32146 1.40419,1.72939zm2.5023,-11.22665c-0.06556,-0.083 -0.088,-0.18519 -0.06241,-0.28174l0.41197,-1.48294c-1.08829,-0.44322 -2.06649,-1.03775 -2.91497,-1.77371l-1.55005,0.78763c-0.21598,0.11038 -0.50348,0.05759 -0.64091,-0.11687l-1.86945,-2.36683c-0.13674,-0.17531 -0.06416,-0.40736 0.1434,-0.51605l1.65663,-0.84324c-0.38427,-0.92624 -0.55957,-1.88918 -0.52206,-2.86905l-1.8407,-0.33425c-0.12061,-0.0223 -0.22579,-0.08102 -0.29171,-0.16543c-0.06591,-0.08384 -0.08976,-0.18576 -0.06206,-0.28259l0.75802,-2.72959c0.0568,-0.19902 0.30293,-0.32719 0.55502,-0.28202l1.92204,0.34921c0.53398,-0.87317 1.24957,-1.65543 2.13206,-2.33098l-0.99959,-1.2698c-0.12587,-0.1595 -0.08345,-0.36615 0.09046,-0.48443c0.01648,-0.01129 0.03436,-0.02174 0.05259,-0.03077l2.93565,-1.49395c0.21598,-0.10953 0.50348,-0.05844 0.64091,0.11603l1.0329,1.30311c1.14509,-0.31787 2.37854,-0.47258 3.60883,-0.45197l0.39023,-1.40587c0.05575,-0.19987 0.30258,-0.32775 0.55291,-0.28146l3.39811,0.61627c0.25209,0.04545 0.40881,0.24645 0.35412,0.4466l-0.39829,1.4406c1.13457,0.43644 2.14678,1.0273 3.0198,1.76101l1.43469,-0.72947c0.21633,-0.11066 0.50312,-0.05815 0.64056,0.11631l1.87085,2.36514c0.06697,0.08384 0.088,0.18519 0.06206,0.28174c-0.0277,0.09655 -0.09922,0.17983 -0.20441,0.23347l-1.48168,0.75488c0.41933,0.95983 0.61252,1.96568 0.5743,2.99948l1.61175,0.29331c0.12096,0.02202 0.22579,0.08102 0.29206,0.16515c0.06591,0.08356 0.088,0.18519 0.06171,0.28202l-0.75521,2.72931c-0.0575,0.20128 -0.30468,0.32747 -0.55466,0.28202l-1.70116,-0.30771c-0.55326,0.91015 -1.31023,1.72375 -2.25442,2.42442l0.89826,1.13514c0.06556,0.08469 0.08905,0.18632 0.06136,0.28202c-0.02595,0.09739 -0.09502,0.1787 -0.20441,0.23431l-2.93636,1.49508c-0.10448,0.05223 -0.23,0.07001 -0.35026,0.04799c-0.12026,-0.02258 -0.22579,-0.08102 -0.29171,-0.16571l-0.96628,-1.22379c-1.19242,0.31618 -2.42832,0.45253 -3.68315,0.40821l-0.37866,1.36974c-0.02665,0.09683 -0.09782,0.18067 -0.20405,0.23403c-0.10483,0.05251 -0.23035,0.07058 -0.35026,0.04856l-3.40162,-0.61683c-0.12131,-0.02202 -0.22649,-0.08159 -0.29276,-0.16571l0.00001,-0.00003zm4.05831,-5.70395c1.37755,0.24984 2.78524,-0.02767 3.86372,-0.7625c0.74364,-0.50674 1.25027,-1.18088 1.46274,-1.94959c0.53468,-1.93378 -0.98556,-3.86022 -3.38934,-4.29694c-1.38035,-0.2504 -2.7905,0.02795 -3.86863,0.7625c-0.74469,0.5073 -1.25062,1.18201 -1.46309,1.95072c-0.53468,1.9318 0.98907,3.85937 3.3946,4.29581z" id="svg_47" fill="#cce6ff" stroke="null"/>
   <path d="m156.55405,184.7465l23.72961,0l0,10.41503c0,0 -0.04242,3.18354 6.43509,5.53287c-2.98194,0.54541 -22.52317,0 -22.52317,0l0,-0.07961c-0.01753,0.00085 -11.09715,0.54231 -14.07698,0c6.47786,-2.33776 6.43544,-5.5052 6.43544,-5.5052l0,-10.36308l0.00001,-0.00001z" id="svg_46" fill="url(#svg_41)" stroke="null"/>
   <path d="m187.1209,201.57292c0,-1.16845 -1.17805,-2.11728 -2.62957,-2.11728l-32.1453,0c-1.45117,0 -2.62957,0.94882 -2.62957,2.11728l0,0.62333c0,1.16845 1.1784,2.11728 2.62957,2.11728l32.1453,0c1.45152,0 2.62957,-0.94882 2.62957,-2.11728l0,-0.62333z" id="svg_45" fill="#cce6ff" stroke="null"/>
   <path d="m214.58591,175.1987c2.27931,0 4.55968,0 6.83899,0c1.49079,0 3.07239,-0.06267 4.30023,0.16515c2.97527,0.55162 5.29806,1.75649 6.9007,3.41757c0.85023,0.88163 1.58826,1.91712 2.04756,3.10393c0.20616,0.53355 0.33869,1.09054 0.47087,1.68422c0.32326,1.45217 -0.11675,3.00286 -0.51189,4.07788c-1.18155,3.216 -3.58078,5.37083 -7.28953,6.53815c-2.82136,0.88813 -7.54828,0.59171 -11.42602,0.59453c0,-0.00565 0,-0.01101 0,-0.01666c0.38216,-1.1391 0.76433,-2.27847 1.14649,-3.41757c0.20826,-0.55981 0.29802,-1.15123 0.63495,-1.60151c0.3152,-0.42091 0.78361,-0.77295 1.31058,-1.02363c0.79939,-0.38055 2.13907,-0.31392 3.4195,-0.31364c0.36849,-0.00565 0.73733,-0.01101 1.10582,-0.01666c1.35581,-0.19705 2.37363,-0.72863 2.9893,-1.51879c0.26401,-0.33876 0.4586,-0.75347 0.59393,-1.18878c0.24648,-0.79186 -0.05084,-1.61901 -0.34816,-2.16301c-1.29655,-2.3722 -4.23116,-1.97133 -8.31331,-1.96455c-1.57669,4.72689 -3.15373,9.45548 -4.73008,14.18237c-0.67212,1.80251 -0.84322,4.11288 -2.64149,5.01908c-0.85759,0.43221 -2.28703,0.36332 -3.70629,0.36332c-1.19453,0 -2.38905,0 -3.58358,0c2.07491,-6.25133 4.15017,-12.50464 6.22507,-18.75597c0.42985,-1.2986 0.86005,-2.59776 1.28989,-3.89636c0.318,-0.85764 0.46701,-1.70088 1.0648,-2.3115c0.372,-0.3797 0.95997,-0.69814 1.59738,-0.85849c0.20476,-0.03303 0.40951,-0.06606 0.61427,-0.09909l0.00002,0.00001zm-15.80794,6.37301c3.18038,0 6.36146,0 9.54184,0c0,0.00565 0,0.01101 0,0.01666c-0.34114,1.03436 -0.68229,2.06929 -1.02378,3.10393c-0.53258,1.43721 -0.6623,2.47016 -2.29334,3.03787c-1.13212,0.3941 -3.22456,0.21483 -4.7711,0.21455c-0.4025,0 -0.80535,0 -1.20785,0c-1.97498,0.26537 -3.26347,1.14502 -3.72698,2.60877c-0.19248,0.6078 -0.10308,1.3432 0.10238,1.86574c0.53678,1.36296 1.68678,2.12067 3.60392,2.37728c1.28989,0.17277 3.078,-0.27271 3.91105,0.24786c0.73768,0.461 0.6332,1.13204 0.34816,1.89849c-0.47087,1.39797 -0.94209,2.79594 -1.41296,4.19362c-1.68573,0.01553 -3.58989,0.09994 -5.01652,-0.14849c-4.46221,-0.77718 -7.36421,-2.92495 -8.8869,-6.07574c-0.70017,-1.44878 -0.98521,-3.74984 -0.4302,-5.53118c0.32046,-1.02759 0.69736,-2.03569 1.29024,-2.85607c1.52585,-2.11191 3.59165,-3.5096 6.59322,-4.44148c0.66791,-0.20721 1.42172,-0.31731 2.19096,-0.4291c0.39584,-0.02767 0.79203,-0.05505 1.18787,-0.08271l-0.00001,0z" id="svg_44" fill="#0084ff" stroke="null"/>
   <path id="svg_63" d="m223.12746,171.47568l0.15812,0.00056l0.16058,0.00113l0.16303,0.00169l0.16479,0.00254l0.16724,0.00339l0.16584,0.00423l0.08976,0.00254l0.08485,0.00282l0.0873,0.00339l0.08765,0.00339l0.0887,0.00395l0.08835,0.00395l0.08835,0.00452l0.09081,0.00508l0.08976,0.00536l0.09081,0.00593l0.09361,0.00649l0.09186,0.00678l0.09186,0.00706l0.09502,0.0079l0.09466,0.00847l0.09466,0.00903l0.09747,0.00988l0.09607,0.01016l0.09747,0.01101l0.09852,0.01186l0.09817,0.01214l0.10027,0.01355l0.10133,0.01412l0.10098,0.01496l0.10273,0.01581l0.10483,0.01722l0.10343,0.01807l0.09747,0.0175l0.09817,0.01835l0.09046,0.0175l0.09081,0.01779l0.09081,0.01807l0.08941,0.01807l0.09081,0.01891l0.09081,0.01948l0.09011,0.01948l0.0887,0.01948l0.08835,0.02004l0.09011,0.02061l0.0887,0.02061l0.08941,0.02117l0.08765,0.02146l0.08835,0.02174l0.08905,0.0223l0.08625,0.02202l0.088,0.02287l0.08695,0.02315l0.0873,0.02343l0.08835,0.024l0.0852,0.02371l0.0859,0.02428l0.0866,0.02484l0.0866,0.02541l0.0852,0.02513l0.0852,0.02569l0.0859,0.02625l0.08485,0.02625l0.0845,0.02682l0.0852,0.02738l0.08309,0.02682l0.0838,0.02767l0.08485,0.02851l0.08345,0.02823l0.08309,0.02851l0.08274,0.02908l0.08309,0.02936l0.08239,0.02964l0.08239,0.03021l0.08204,0.03021l0.08064,0.03049l0.08169,0.03105l0.08134,0.03134l0.08134,0.03162l0.08099,0.03218l0.07959,0.0319l0.08169,0.03303l0.07889,0.03275l0.07889,0.03303l0.07994,0.03359l0.07959,0.03416l0.07819,0.03388l0.07784,0.03416l0.07994,0.03557l0.07748,0.03501l0.07608,0.03472l0.07678,0.03557l0.07784,0.03642l0.07748,0.0367l0.07713,0.03726l0.07608,0.03698l0.07433,0.0367l0.07643,0.03783l0.07398,0.03755l0.07503,0.03811l0.07573,0.03896l0.07293,0.03839l0.07538,0.0398l0.07503,0.04009l0.07223,0.03924l0.07187,0.03924l0.07398,0.04122l0.07258,0.04065l0.07152,0.04065l0.07223,0.0415l0.07047,0.04093l0.07152,0.04206l0.07223,0.04291l0.07082,0.04263l0.06837,0.04178l0.06977,0.04291l0.06977,0.04347l0.07082,0.0446l0.06837,0.04376l0.06697,0.04291l0.06872,0.04489l0.06872,0.04517l0.06802,0.04545l0.06697,0.04517l0.06697,0.04545l0.06486,0.04489l0.06697,0.04658l0.06662,0.04714l0.06521,0.04658l0.06521,0.04686l0.06486,0.04743l0.06416,0.04743l0.06276,0.04686l0.06451,0.04856l0.06486,0.0494l0.06171,0.04771l0.06276,0.04884l0.06171,0.04884l0.06136,0.04884l0.06346,0.0511l0.06066,0.0494l0.06101,0.05025l0.06066,0.05053l0.0589,0.04969l0.05995,0.0511l0.0596,0.05138l0.05855,0.0511l0.0596,0.05279l0.05855,0.05223l0.0568,0.0511l0.0575,0.05223l0.0568,0.05223l0.05715,0.05307l0.05645,0.05364l0.05575,0.05307l0.0554,0.05336l0.05505,0.05364l0.0547,0.05392l0.05505,0.05448l0.0554,0.0559l0.05189,0.05307l0.05189,0.05336l0.05575,0.05787l0.05189,0.05505l0.05189,0.05477l0.05259,0.05674l0.05259,0.05674l0.05224,0.05703l0.05119,0.05703l0.05294,0.05872l0.05154,0.05815l0.04944,0.05674l0.05154,0.059l0.05119,0.05985l0.04979,0.05872l0.05049,0.05957l0.05014,0.0607l0.05049,0.06126l0.04944,0.06098l0.04873,0.0607l0.04909,0.06126l0.04944,0.06324l0.04909,0.06324l0.04768,0.06211l0.04698,0.06182l0.04803,0.06408l0.04768,0.06408l0.04733,0.06465l0.04663,0.06465l0.04628,0.06493l0.04698,0.06662l0.04523,0.06493l0.04488,0.06549l0.04593,0.06747l0.04488,0.06719l0.04453,0.06775l0.04453,0.0686l0.04277,0.06662l0.04312,0.06804l0.04348,0.07001l0.04242,0.06888l0.04172,0.06916l0.04242,0.07086l0.04172,0.07114l0.04032,0.06973l0.04102,0.07171l0.03997,0.07142l0.03962,0.07171l0.03927,0.07227l0.03892,0.07255l0.03892,0.07453l0.03716,0.07255l0.03716,0.07255l0.03716,0.07509l0.03681,0.07509l0.03611,0.07538l0.03471,0.07368l0.03506,0.07538l0.03506,0.07735l0.03401,0.07622l0.03331,0.0765l0.03331,0.07792l0.03261,0.0782l0.03155,0.07707l0.03085,0.07707l0.03085,0.07905l0.0291,0.07566l0.0277,0.07481l0.027,0.07481l0.02595,0.07283l0.02489,0.07142l0.02454,0.0734l0.02454,0.07368l0.02279,0.07171l0.02139,0.06775l0.02174,0.06973l0.02174,0.07227l0.01998,0.0686l0.01998,0.0686l0.01928,0.06832l0.01858,0.06691l0.01928,0.07058l0.03401,0.12873l0.03296,0.12901l0.03155,0.1276l0.03015,0.12619l0.0291,0.12337l0.0277,0.12083l0.027,0.11857l0.02735,0.1228l0.01227,0.05533l0.01192,0.05703l0.01157,0.05674l0.01087,0.05646l0.01052,0.05731l0.01087,0.06013l0.00947,0.05646l0.00982,0.06041l0.01648,0.10925l0.01508,0.11236l0.01332,0.11095l0.01192,0.11236l0.01017,0.10953l0.00841,0.10953l0.00701,0.10925l0.00561,0.10784l0.00421,0.10812l0.00245,0.10615l0.0014,0.10643l0,0.10445l-0.00105,0.10304l-0.00245,0.10473l-0.00351,0.10135l-0.00456,0.10135l-0.00596,0.10304l-0.00666,0.09965l-0.00771,0.09824l-0.00877,0.09796l-0.00947,0.09796l-0.01052,0.09627l-0.01157,0.09655l-0.01192,0.09457l-0.01297,0.09457l-0.01402,0.09457l-0.01437,0.09118l-0.01508,0.09147l-0.01578,0.09118l-0.01613,0.08921l-0.01718,0.08949l-0.01753,0.08949l-0.01788,0.0861l-0.01858,0.0861l-0.01893,0.08554l-0.01963,0.0861l-0.01998,0.08413l-0.01998,0.08215l-0.02104,0.08243l-0.02069,0.08046l-0.02069,0.07876l-0.02174,0.08046l-0.02244,0.08017l-0.02139,0.07509l-0.02209,0.0765l-0.02279,0.07679l-0.02279,0.07481l-0.02244,0.07283l-0.02279,0.07283l-0.02314,0.07255l-0.02244,0.06888l-0.02384,0.07227l-0.04488,0.13409l-0.04593,0.13184l-0.04488,0.12675l-0.04523,0.12365l-0.03541,0.09598l-0.03646,0.0957l-0.03646,0.09401l-0.03752,0.09514l-0.03892,0.09627l-0.03892,0.09457l-0.03892,0.09288l-0.04032,0.09372l-0.04102,0.09372l-0.04137,0.09344l-0.04242,0.09316l-0.04277,0.0926l-0.04348,0.09231l-0.04453,0.09203l-0.04488,0.09203l-0.04593,0.09175l-0.04628,0.09118l-0.04698,0.0909l-0.04768,0.09034l-0.04873,0.09034l-0.04979,0.09118l-0.04909,0.08808l-0.05049,0.08949l-0.05154,0.08893l-0.05189,0.08864l-0.05329,0.08921l-0.05259,0.08667l-0.05399,0.08723l-0.0561,0.08864l-0.05575,0.08723l-0.0554,0.08497l-0.0568,0.0861l-0.05855,0.08667l-0.0582,0.08526l-0.0603,0.08667l-0.05995,0.08441l-0.0596,0.083l-0.06136,0.08384l-0.06311,0.08469l-0.06276,0.083l-0.06311,0.08215l-0.06451,0.08271l-0.06486,0.08187l-0.06662,0.08243l-0.06662,0.0813l-0.06732,0.08046l-0.06732,0.07989l-0.06942,0.08074l-0.06977,0.07961l-0.06907,0.07763l-0.07117,0.07905l-0.07258,0.07905l-0.07258,0.07792l-0.07293,0.07707l-0.07328,0.07622l-0.07433,0.07594l-0.07643,0.07707l-0.07573,0.07538l-0.07573,0.07425l-0.07819,0.07509l-0.07819,0.07396l-0.07784,0.07283l-0.07924,0.07283l-0.08134,0.0734l-0.08064,0.07171l-0.08099,0.07086l-0.08309,0.07171l-0.08239,0.07029l-0.08415,0.07029l-0.0838,0.06916l-0.08485,0.0686l-0.0859,0.0686l-0.0859,0.06775l-0.088,0.06832l-0.08695,0.06606l-0.0873,0.06578l-0.08976,0.06606l-0.08905,0.06493l-0.09046,0.06465l-0.08976,0.06352l-0.09186,0.0638l-0.09256,0.06352l-0.09221,0.06182l-0.09291,0.06182l-0.09361,0.06098l-0.09431,0.0607l-0.09466,0.05985l-0.09572,0.05957l-0.09677,0.05928l-0.09572,0.05787l-0.09642,0.05731l-0.09922,0.05787l-0.09747,0.05618l-0.09782,0.05561l-0.10027,0.0559l-0.10027,0.05505l-0.09922,0.05364l-0.10168,0.05392l-0.10168,0.05307l-0.10098,0.05223l-0.10343,0.05223l-0.10308,0.0511l-0.10273,0.05053l-0.10273,0.04969l-0.10553,0.04997l-0.10483,0.04884l-0.10448,0.04799l-0.10588,0.04771l-0.10729,0.04771l-0.10659,0.04658l-0.10659,0.04573l-0.10764,0.04545l-0.10799,0.0446l-0.10799,0.04404l-0.10904,0.04376l-0.11009,0.04347l-0.10904,0.04206l-0.10939,0.04178l-0.11149,0.04178l-0.11044,0.04037l-0.11149,0.04037l-0.11184,0.03952l-0.11149,0.03896l-0.1129,0.03839l-0.1129,0.03811l-0.1136,0.03755l-0.1129,0.03642l-0.11991,0.03811l-0.10694,0.03303l-0.11114,0.03359l-0.11044,0.03218l-0.11184,0.03134l-0.11149,0.03049l-0.11044,0.02936l-0.11184,0.02851l-0.10974,0.02738l-0.11009,0.02654l-0.11044,0.02569l-0.11009,0.02484l-0.11009,0.02428l-0.10974,0.02315l-0.10869,0.0223l-0.10939,0.02174l-0.10974,0.02089l-0.10939,0.02061l-0.10799,0.0192l-0.10939,0.0192l-0.10939,0.01835l-0.10729,0.0175l-0.10904,0.01722l-0.10764,0.01609l-0.10764,0.01609l-0.10834,0.01524l-0.10869,0.01496l-0.10764,0.01412l-0.10764,0.01355l-0.10799,0.01327l-0.10729,0.0127l-0.10799,0.01242l-0.10623,0.01157l-0.10694,0.01157l-0.10799,0.01101l-0.10694,0.01045l-0.10729,0.01016l-0.10764,0.0096l-0.10553,0.00903l-0.10659,0.00903l-0.10729,0.00847l-0.10623,0.00819l-0.10764,0.0079l-0.10588,0.00734l-0.10588,0.00706l-0.10694,0.00706l-0.10623,0.00621l-0.10659,0.00621l-0.10588,0.00593l-0.10483,0.00565l-0.10623,0.00508l-0.10729,0.00508l-0.10553,0.0048l-0.10483,0.00452l-0.10904,0.00423l-0.20826,0.00762l-0.21072,0.00678l-0.21002,0.00593l-0.21037,0.00508l-0.20966,0.00423l-0.20861,0.00339l-0.20896,0.00282l-0.20791,0.00226l-0.20756,0.00141l-0.20686,0.00113l-0.20686,0.00028l-0.20546,0l-0.20476,-0.00028l-0.20441,-0.00085l-0.203,-0.00113l-0.203,-0.00169l-0.2016,-0.00169l-0.2002,-0.00198l-0.2009,-0.00226l-0.39444,-0.00508l-0.39128,-0.00508l-0.38567,-0.00565l-0.37971,-0.00508l-0.08274,-0.00113l-0.01928,0.06549l-0.0312,0.10248l-0.03226,0.1053l-0.03401,0.10756l-0.03471,0.10784l-0.03576,0.1101l-0.03752,0.11123l-0.03892,0.11264l-0.04102,0.11518l-0.04242,0.11603l-0.04312,0.11405l-0.02489,0.06408l-0.02349,0.06041l-0.02349,0.05787l-0.02454,0.0607l-0.02595,0.06267l-0.02559,0.0607l-0.027,0.06295l-0.0277,0.06267l-0.027,0.06041l-0.0284,0.06295l-0.02945,0.06324l-0.0305,0.06493l-0.03155,0.06493l-0.0312,0.06324l-0.03261,0.06493l-0.03331,0.06521l-0.03471,0.06549l-0.03471,0.06521l-0.03681,0.06691l-0.03752,0.06747l-0.03752,0.06521l-0.03927,0.06747l-0.04032,0.06719l-0.04242,0.06916l-0.04348,0.06973l-0.04348,0.06747l-0.04383,0.06691l-0.04628,0.06888l-0.04944,0.07171l-0.04838,0.0686l-0.05119,0.07114l-0.05154,0.06916l-0.05329,0.07029l-0.05505,0.07058l-0.0547,0.06804l-0.05925,0.07227l-0.0603,0.07171l-0.06171,0.07142l-0.06241,0.07001l-0.06311,0.06916l-0.06732,0.07199l-0.06802,0.07029l-0.06872,0.06973l-0.07293,0.07142l-0.07398,0.07058l-0.07538,0.07001l-0.07748,0.06973l-0.07889,0.06888l-0.07994,0.06804l-0.08415,0.06916l-0.0838,0.06691l-0.08765,0.06775l-0.09046,0.06804l-0.08765,0.0638l-0.09256,0.06521l-0.09817,0.06691l-0.09502,0.06239l-0.09782,0.06239l-0.10133,0.06239l-0.09957,0.05928l-0.10413,0.05957l-0.10729,0.05957l-0.10729,0.05703l-0.10343,0.05336l-0.07538,0.03726l-0.07152,0.03472l-0.06627,0.03105l-0.06907,0.03162l-0.07258,0.03218l-0.07012,0.02992l-0.06977,0.02936l-0.06451,0.02625l-0.07012,0.02795l-0.07363,0.02795l-0.06486,0.02428l-0.07748,0.02823l-0.12447,0.04319l-0.13183,0.04319l-0.13148,0.04065l-0.13043,0.03811l-0.12622,0.03472l-0.12622,0.03275l-0.12447,0.03021l-0.12096,0.02795l-0.12026,0.02569l-0.11956,0.02428l-0.11605,0.02202l-0.11395,0.02033l-0.1143,0.0192l-0.11149,0.01722l-0.10904,0.01609l-0.10764,0.01468l-0.10659,0.01327l-0.10378,0.01242l-0.10378,0.01129l-0.10203,0.01016l-0.09922,0.00932l-0.09852,0.00847l-0.09677,0.00762l-0.09431,0.00678l-0.09502,0.00649l-0.09431,0.00565l-0.09081,0.0048l-0.09081,0.00452l-0.08976,0.00395l-0.0866,0.00339l-0.0866,0.00311l-0.08695,0.00254l-0.08415,0.00226l-0.08835,0.00198l-0.15812,0.00282l-0.15953,0.00198l-0.15532,0.00113l-0.15041,0.00028l-0.14796,0l-0.14445,-0.00056l-0.27032,-0.00141l-0.2605,-0.00141l-0.12131,-0.00028l-0.12271,-0.00028l-3.88826,0l-1.73061,0.01779l-0.14831,0.00169l-0.31309,0.00452l-0.32396,0.00508l-0.33308,0.00508l-0.1732,0.00226l-0.17495,0.00226l-0.17706,0.00169l-0.17951,0.00141l-0.18267,0.00085l-0.18407,0l-0.18617,-0.00028l-0.18898,-0.00141l-0.18723,-0.00226l-0.09957,-0.00141l-0.09677,-0.00198l-0.09782,-0.00198l-0.09642,-0.00254l-0.09852,-0.00254l-0.09992,-0.00311l-0.09922,-0.00339l-0.09922,-0.00395l-0.10027,-0.00423l-0.10238,-0.00452l-0.10133,-0.00508l-0.07082,-0.00395l-0.05505,0l0.00105,-0.00311l-0.07924,-0.00452l-0.10413,-0.00678l-0.10343,-0.00706l-0.10378,-0.00762l-0.10588,-0.00847l-0.10659,-0.00875l-0.10623,-0.0096l-0.10729,-0.01045l-0.10694,-0.01073l-0.10869,-0.01186l-0.10974,-0.0127l-0.10974,-0.01327l-0.11079,-0.0144l-0.11255,-0.01524l-0.1122,-0.01637l-0.11325,-0.01722l-0.1157,-0.01863l-0.10974,-0.01863l-0.13814,-0.02456l-0.13569,-0.02456l-0.13498,-0.02569l-0.13288,-0.02597l-0.13358,-0.02654l-0.13288,-0.02767l-0.13183,-0.02795l-0.13218,-0.02879l-0.13253,-0.02992l-0.13113,-0.03049l-0.13043,-0.03077l-0.12973,-0.03162l-0.12973,-0.03246l-0.12973,-0.03331l-0.12832,-0.03388l-0.12832,-0.03472l-0.12832,-0.03557l-0.12762,-0.03613l-0.12587,-0.0367l-0.12657,-0.03755l-0.12587,-0.03811l-0.12517,-0.03896l-0.12587,-0.04009l-0.12377,-0.04037l-0.12271,-0.04093l-0.12377,-0.04206l-0.12306,-0.04263l-0.12201,-0.04347l-0.12166,-0.04404l-0.12096,-0.04489l-0.12061,-0.04545l-0.11921,-0.04602l-0.11956,-0.04714l-0.11886,-0.04771l-0.1178,-0.04827l-0.11816,-0.0494l-0.11745,-0.04997l-0.1157,-0.05053l-0.1157,-0.0511l-0.115,-0.05194l-0.11465,-0.05279l-0.11465,-0.05364l-0.11255,-0.05392l-0.11184,-0.05448l-0.1122,-0.05561l-0.11149,-0.05618l-0.11184,-0.05759l-0.10869,-0.05703l-0.10904,-0.05815l-0.10904,-0.05928l-0.10799,-0.05957l-0.10834,-0.06098l-0.10588,-0.0607l-0.10518,-0.06126l-0.10483,-0.06211l-0.10483,-0.06324l-0.10378,-0.0638l-0.10238,-0.06408l-0.10238,-0.06493l-0.10203,-0.06606l-0.10027,-0.06578l-0.09992,-0.06662l-0.09992,-0.06804l-0.09922,-0.0686l-0.09677,-0.06832l-0.09642,-0.06888l-0.09607,-0.06973l-0.09537,-0.07058l-0.09537,-0.07199l-0.09361,-0.07142l-0.09256,-0.07199l-0.09326,-0.07368l-0.09081,-0.07283l-0.09046,-0.07396l-0.08976,-0.07481l-0.08905,-0.07481l-0.08905,-0.0765l-0.08695,-0.07594l-0.0866,-0.0765l-0.08555,-0.07735l-0.0845,-0.07763l-0.0845,-0.07848l-0.08345,-0.07876l-0.08309,-0.08017l-0.08134,-0.07961l-0.07994,-0.07933l-0.08029,-0.08102l-0.07994,-0.08243l-0.07819,-0.08159l-0.07678,-0.0813l-0.07643,-0.08243l-0.07608,-0.08356l-0.07608,-0.08497l-0.07398,-0.08384l-0.07258,-0.08356l-0.07258,-0.08497l-0.07187,-0.08554l-0.07117,-0.0861l-0.06977,-0.0861l-0.06942,-0.08695l-0.06767,-0.0861l-0.06767,-0.08751l-0.06697,-0.08836l-0.06627,-0.08836l-0.06486,-0.08836l-0.06381,-0.08808l-0.06381,-0.09005l-0.06276,-0.08977l-0.06206,-0.09005l-0.06101,-0.0909l-0.05995,-0.09034l-0.05855,-0.09005l-0.0589,-0.09175l-0.0582,-0.09231l-0.05715,-0.0926l-0.05645,-0.0926l-0.05505,-0.09231l-0.05434,-0.0926l-0.05399,-0.09344l-0.05329,-0.09429l-0.05259,-0.09457l-0.05119,-0.09372l-0.05014,-0.09401l-0.05014,-0.09542l-0.04909,-0.09485l-0.04873,-0.09627l-0.04803,-0.09627l-0.04593,-0.09401l-0.02735,-0.05759l-0.02595,-0.05505l-0.02559,-0.05533l-0.02489,-0.05533l-0.02489,-0.05533l-0.02524,-0.05787l-0.02349,-0.05505l-0.02524,-0.05985l-0.04348,-0.10643l-0.04453,-0.11264l-0.04348,-0.11377l-0.04102,-0.11264l-0.03927,-0.11123l-0.03857,-0.11377l-0.03787,-0.11518l-0.03576,-0.11405l-0.03436,-0.11405l-0.03331,-0.11518l-0.03155,-0.11405l-0.03085,-0.11546l-0.03015,-0.118l-0.0284,-0.11687l-0.027,-0.11574l-0.02595,-0.11687l-0.02489,-0.11829l-0.02349,-0.11857l-0.02244,-0.11829l-0.02139,-0.11885l-0.01998,-0.11857l-0.01893,-0.11998l-0.01788,-0.12139l-0.01648,-0.12026l-0.01543,-0.11998l-0.01402,-0.12167l-0.01332,-0.12252l-0.01157,-0.12167l-0.01052,-0.12167l-0.00912,-0.1228l-0.00841,-0.12421l-0.00666,-0.12308l-0.00561,-0.1228l-0.00421,-0.12534l-0.0028,-0.12421l-0.00175,-0.12421l-0.00035,-0.12421l0.00105,-0.12675l0.00245,-0.12534l0.00386,-0.12534l0.00526,-0.1228l0.00351,-0.06832l0.00351,-0.06324l0.00386,-0.0607l0.00421,-0.06324l0.00491,-0.06578l0.00491,-0.06295l0.00561,-0.06324l0.00596,-0.06578l0.00596,-0.06295l0.00666,-0.06324l0.00701,-0.06324l0.00736,-0.06324l0.00806,-0.06549l0.00806,-0.06324l0.00877,-0.06549l0.00947,-0.06549l0.00912,-0.0607l0.01017,-0.06549l0.01052,-0.06549l0.01052,-0.06295l0.01157,-0.06549l0.01192,-0.06549l0.01262,-0.06549l0.01227,-0.06295l0.01332,-0.06521l0.01402,-0.06549l0.01367,-0.06295l0.01473,-0.06549l0.01543,-0.06549l0.01543,-0.06521l0.01648,-0.06549l0.01753,-0.06775l0.01718,-0.06521l0.01718,-0.06267l0.01858,-0.06549l0.01893,-0.06521l0.01928,-0.06521l0.01963,-0.06352l0.03506,-0.11151l0.03401,-0.10728l0.03506,-0.10925l0.03646,-0.11066l0.03716,-0.11151l0.03787,-0.11179l0.03857,-0.11179l0.03997,-0.11377l0.04102,-0.11405l0.04242,-0.1149l0.04383,-0.11687l0.04488,-0.11716l0.04628,-0.11687l0.04768,-0.118l0.04909,-0.11885l0.05119,-0.1197l0.05084,-0.11659l0.02875,-0.06465l0.02805,-0.06154l0.02805,-0.06126l0.0277,-0.059l0.02875,-0.06154l0.0305,-0.06324l0.02875,-0.059l0.0305,-0.06126l0.03155,-0.06295l0.03191,-0.06324l0.03191,-0.06126l0.03191,-0.0607l0.03401,-0.06324l0.03401,-0.06295l0.03471,-0.06267l0.03541,-0.06295l0.03646,-0.06437l0.03646,-0.06267l0.03611,-0.06098l0.03857,-0.06493l0.03927,-0.06408l0.03857,-0.06239l0.04102,-0.06465l0.03997,-0.06182l0.04137,-0.0638l0.04418,-0.06662l0.04348,-0.06352l0.04383,-0.06352l0.04523,-0.06437l0.04383,-0.06154l0.04838,-0.06662l0.04733,-0.06408l0.04803,-0.06493l0.04733,-0.06295l0.04873,-0.06437l0.04979,-0.06493l0.04733,-0.06098l0.04979,-0.0638l0.05049,-0.06352l0.04944,-0.06154l0.05084,-0.06295l0.05084,-0.06182l0.05119,-0.06211l0.05189,-0.06211l0.05154,-0.0607l0.05294,-0.06182l0.05329,-0.06154l0.05329,-0.0607l0.05364,-0.0607l0.05259,-0.059l0.0547,-0.0607l0.05645,-0.06154l0.05399,-0.05844l0.0554,-0.05928l0.05715,-0.06041l0.05505,-0.05759l0.0568,-0.05844l0.0582,-0.05957l0.0561,-0.05674l0.05785,-0.05787l0.05925,-0.05872l0.0582,-0.05674l0.05995,-0.05815l0.05995,-0.05731l0.05925,-0.0559l0.0596,-0.05561l0.0603,-0.0559l0.06206,-0.05674l0.06206,-0.0559l0.06136,-0.05505l0.06206,-0.05477l0.06241,-0.05448l0.06346,-0.05477l0.06311,-0.05392l0.06276,-0.05307l0.06591,-0.05505l0.06451,-0.05279l0.06521,-0.05336l0.06556,-0.05307l0.06486,-0.05138l0.06556,-0.05194l0.06697,-0.05194l0.06697,-0.05166l0.06627,-0.05053l0.06802,-0.0511l0.06942,-0.05166l0.06802,-0.04997l0.06767,-0.04912l0.06907,-0.04997l0.06977,-0.0494l0.07012,-0.04912l0.06907,-0.04799l0.07117,-0.04884l0.07223,-0.04912l0.06942,-0.04658l0.07047,-0.04658l0.07328,-0.04799l0.07258,-0.04714l0.07117,-0.04545l0.07363,-0.04658l0.07503,-0.04686l0.07223,-0.0446l0.07328,-0.0446l0.07468,-0.04517l0.07433,-0.04432l0.07468,-0.04404l0.07468,-0.04347l0.07643,-0.04404l0.07643,-0.04347l0.07503,-0.04206l0.07713,-0.04291l0.07748,-0.04235l0.07468,-0.04065l0.07819,-0.04206l0.07854,-0.0415l0.07678,-0.04009l0.07819,-0.04037l0.07819,-0.04009l0.07959,-0.04009l0.08029,-0.04009l0.07819,-0.03868l0.07854,-0.03811l0.07994,-0.03839l0.08134,-0.03868l0.08029,-0.03783l0.08064,-0.03755l0.08099,-0.03698l0.08239,-0.03755l0.08064,-0.03585l0.07994,-0.03529l0.08415,-0.03698l0.08239,-0.03557l0.08169,-0.03472l0.08309,-0.03501l0.08309,-0.03444l0.08274,-0.03416l0.0838,-0.03388l0.0838,-0.03359l0.0845,-0.03359l0.08555,-0.03331l0.0838,-0.03246l0.08309,-0.03162l0.0852,-0.03246l0.0866,-0.03218l0.0852,-0.03105l0.08485,-0.03105l0.0873,-0.03134l0.0859,-0.03021l0.0859,-0.03021l0.088,-0.03021l0.08625,-0.02964l0.0859,-0.02879l0.088,-0.02936l0.0887,-0.02908l0.08765,-0.02851l0.08765,-0.02823l0.088,-0.02767l0.09782,-0.03049l0.10694,-0.03275l0.11395,-0.03331l0.11395,-0.03246l0.11325,-0.03077l0.11009,-0.02908l0.10869,-0.02767l0.10869,-0.02654l0.10729,-0.02569l0.10518,-0.024l0.10308,-0.02287l0.10238,-0.02202l0.10133,-0.02117l0.09992,-0.02033l0.09852,-0.0192l0.09607,-0.01835l0.09537,-0.01779l0.09431,-0.01694l0.09256,-0.01637l0.09256,-0.01581l0.08941,-0.01524l0.0866,-0.01412l0.09081,-0.01468l0.16619,-0.02625l0.16444,-0.02513l0.15883,-0.02371l0.15252,-0.0223l0.35832,-0.05223l1.59983,-0.11123l8.15764,0l0.12937,-0.39127l0.04102,-0.11179l0.01928,-0.05477l0.01998,-0.05815l0.02104,-0.06211l0.02244,-0.06747l0.02279,-0.06916l0.05049,-0.1547l0.05399,-0.16543l0.03015,-0.0909l0.03155,-0.09372l0.03401,-0.09796l0.03646,-0.10304l0.03892,-0.10728l0.03962,-0.10473l0.02419,-0.06182l0.02279,-0.05787l0.02349,-0.05815l0.02524,-0.06041l0.02559,-0.06041l0.0263,-0.0607l0.0291,-0.06606l0.02875,-0.06295l0.0298,-0.06352l0.03296,-0.06916l0.03261,-0.06578l0.03471,-0.06888l0.03611,-0.06832l0.03646,-0.0686l0.04067,-0.07368l0.04067,-0.07114l0.04137,-0.07058l0.04453,-0.0734l0.04733,-0.07622l0.04838,-0.07538l0.04979,-0.07481l0.05294,-0.07707l0.05329,-0.07538l0.05785,-0.07905l0.0596,-0.07848l0.05925,-0.07566l0.06486,-0.07989l0.06627,-0.07933l0.06767,-0.0782l0.07012,-0.0782l0.07503,-0.08102l0.07258,-0.07509l0.05014,-0.05081l0.05224,-0.05138l0.05259,-0.05081l0.04733,-0.0446l0.05329,-0.04912l0.05084,-0.0463l0.05294,-0.04686l0.05329,-0.04602l0.05084,-0.04291l0.0554,-0.0463l0.05154,-0.04206l0.05189,-0.04122l0.0568,-0.0446l0.05575,-0.04263l0.05014,-0.03783l0.0547,-0.04037l0.0568,-0.04122l0.05575,-0.03952l0.0575,-0.04009l0.05505,-0.03755l0.0554,-0.03726l0.05575,-0.03642l0.0589,-0.03811l0.0582,-0.0367l0.05399,-0.03359l0.0568,-0.03472l0.06101,-0.03642l0.05925,-0.03501l0.05785,-0.03331l0.05925,-0.03331l0.05925,-0.03303l0.0582,-0.03134l0.05785,-0.03105l0.06311,-0.03303l0.06276,-0.03218l0.0582,-0.02936l0.06136,-0.03021l0.06346,-0.03077l0.05925,-0.02795l0.0596,-0.02767l0.06627,-0.03049l0.06241,-0.02767l0.06241,-0.0271l0.06486,-0.02795l0.06066,-0.02541l0.06767,-0.02767l0.06591,-0.02625l0.06136,-0.024l0.06627,-0.02541l0.06416,-0.024l0.06451,-0.02371l0.06907,-0.02484l0.06732,-0.02343l0.06767,-0.02287l0.06802,-0.02258l0.06627,-0.02117l0.06837,-0.02146l0.06837,-0.02117l0.06942,-0.02061l0.07152,-0.02061l0.06767,-0.01891l0.07012,-0.0192l0.07293,-0.0192l0.29136,-0.07453l1.31128,-0.21145l7.29303,0l0.13008,-0.00028l0.12797,-0.00028l0.27102,-0.00169l0.27944,-0.00198l0.28785,-0.00198l0.14901,-0.00085l0.15146,-0.00056l0.15392,-0.00028l0.15532,0l0.00003,-0.0002zm-24.34949,10.09603l-1.18787,0.08271l-0.14375,0.02089l-0.14375,0.02117l-0.14305,0.02117l-0.14235,0.02174l-0.14165,0.0223l-0.07047,0.01129l-0.07012,0.01157l-0.06977,0.01186l-0.06977,0.01214l-0.06942,0.01214l-0.06942,0.01242l-0.06872,0.0127l-0.06872,0.01327l-0.06802,0.01327l-0.06802,0.01383l-0.06767,0.01412l-0.06697,0.0144l-0.06697,0.01468l-0.06627,0.01524l-0.06627,0.01581l-0.06556,0.01609l-0.06521,0.01666l-0.06451,0.01694l-0.06451,0.0175l-0.06381,0.01807l-0.06311,0.01863l-0.06311,0.0192l-0.07012,0.02202l-0.06977,0.02202l-0.06942,0.0223l-0.06907,0.0223l-0.06907,0.02287l-0.06837,0.02258l-0.06802,0.02315l-0.06802,0.02315l-0.06732,0.02315l-0.06732,0.02343l-0.06662,0.02371l-0.06662,0.024l-0.06627,0.024l-0.06556,0.02428l-0.06556,0.02428l-0.06521,0.02456l-0.06486,0.02484l-0.06451,0.02484l-0.06416,0.02513l-0.06416,0.02541l-0.06346,0.02541l-0.06311,0.02569l-0.06311,0.02597l-0.06241,0.02597l-0.06241,0.02625l-0.06206,0.02625l-0.06171,0.02682l-0.06136,0.02682l-0.06101,0.02682l-0.06066,0.0271l-0.0603,0.02738l-0.0603,0.02767l-0.0596,0.02767l-0.0596,0.02795l-0.05925,0.02823l-0.0589,0.02851l-0.05855,0.02851l-0.0582,0.02851l-0.0582,0.02908l-0.0575,0.02908l-0.0575,0.02936l-0.05715,0.02964l-0.0568,0.02964l-0.05645,0.02992l-0.05645,0.03021l-0.05575,0.03021l-0.05575,0.03049l-0.0554,0.03077l-0.05505,0.03105l-0.0547,0.03105l-0.05434,0.03134l-0.05434,0.03162l-0.05399,0.0319l-0.05364,0.0319l-0.05329,0.03218l-0.05294,0.03246l-0.05294,0.03246l-0.05259,0.03303l-0.05224,0.03303l-0.05189,0.03303l-0.05154,0.03359l-0.05154,0.03359l-0.05119,0.03388l-0.05084,0.03416l-0.05049,0.03444l-0.05049,0.03444l-0.05014,0.03472l-0.04979,0.03501l-0.04944,0.03529l-0.04909,0.03529l-0.04909,0.03557l-0.04873,0.03585l-0.04873,0.03613l-0.04803,0.03642l-0.04803,0.03642l-0.04768,0.0367l-0.04733,0.03698l-0.04733,0.03726l-0.04698,0.03726l-0.04663,0.03783l-0.04628,0.03783l-0.04628,0.03811l-0.04593,0.03839l-0.04558,0.03839l-0.04558,0.03896l-0.04523,0.03896l-0.04488,0.03924l-0.04488,0.03952l-0.04418,0.03952l-0.04453,0.04009l-0.04383,0.04009l-0.04383,0.04065l-0.04348,0.04065l-0.04312,0.04065l-0.04312,0.04122l-0.04277,0.0415l-0.04242,0.0415l-0.04242,0.04178l-0.04207,0.04206l-0.04172,0.04235l-0.04172,0.04263l-0.04137,0.04291l-0.04137,0.04291l-0.04067,0.04347l-0.04102,0.04347l-0.04032,0.04376l-0.04032,0.04404l-0.03997,0.04432l-0.03997,0.0446l-0.03962,0.0446l-0.03927,0.04517l-0.03927,0.04517l-0.03892,0.04545l-0.03892,0.04602l-0.03822,0.04602l-0.03857,0.0463l-0.03787,0.0463l-0.03822,0.04686l-0.03752,0.04714l-0.03752,0.04714l-0.03716,0.04771l-0.03716,0.04771l-0.03681,0.04799l-0.03681,0.04856l-0.03646,0.04856l-0.03611,0.04884l-0.03611,0.04912l-0.03576,0.0494l-0.0277,0.03839l-0.02735,0.03896l-0.027,0.03896l-0.02665,0.03952l-0.0263,0.03952l-0.0263,0.04009l-0.02595,0.04009l-0.02524,0.04037l-0.02524,0.04065l-0.02489,0.04093l-0.02489,0.04122l-0.02419,0.04122l-0.02419,0.04178l-0.02384,0.04178l-0.02349,0.04206l-0.02349,0.04206l-0.02314,0.04263l-0.02279,0.04263l-0.02244,0.04291l-0.02244,0.04319l-0.02209,0.04319l-0.02174,0.04347l-0.02174,0.04376l-0.02139,0.04376l-0.02104,0.04404l-0.02069,0.04432l-0.02069,0.04432l-0.02069,0.0446l-0.02034,0.0446l-0.01998,0.04489l-0.03927,0.09034l-0.03892,0.0909l-0.03787,0.09147l-0.03716,0.09203l-0.03646,0.09231l-0.03576,0.09316l-0.03506,0.09344l-0.03436,0.09372l-0.03401,0.09429l-0.03331,0.09457l-0.03296,0.09514l-0.03226,0.09514l-0.03191,0.0957l-0.0312,0.0957l-0.03085,0.09598l-0.03085,0.09598l-0.03015,0.09627l-0.01262,0.04206l-0.01262,0.04178l-0.01227,0.04235l-0.01192,0.04235l-0.01157,0.04263l-0.01157,0.04263l-0.01087,0.04291l-0.01087,0.04319l-0.01052,0.04319l-0.00982,0.04347l-0.01017,0.04347l-0.00947,0.04347l-0.00912,0.04404l-0.00912,0.04376l-0.00877,0.04432l-0.00806,0.04404l-0.00841,0.04432l-0.00771,0.0446l-0.00736,0.0446l-0.00736,0.0446l-0.00701,0.04489l-0.00666,0.04489l-0.00631,0.04517l-0.00631,0.04517l-0.00561,0.04517l-0.00561,0.04517l-0.00526,0.04545l-0.00491,0.04573l-0.00491,0.04545l-0.00456,0.04573l-0.00421,0.04573l-0.00386,0.04573l-0.00351,0.04573l-0.00351,0.04602l-0.00316,0.04602l-0.0028,0.04602l-0.00245,0.04602l-0.00245,0.0463l-0.00386,0.09231l-0.0028,0.09231l-0.00175,0.0926l-0.00105,0.09288l0.00035,0.0926l0.00105,0.09288l0.00245,0.0926l0.00316,0.0926l0.00421,0.0926l0.00491,0.09231l0.00596,0.09231l0.00701,0.09231l0.00806,0.09175l0.00877,0.09175l0.00982,0.09118l0.01052,0.09118l0.01157,0.0909l0.01262,0.09034l0.01297,0.08977l0.01437,0.08949l0.01508,0.08921l0.01578,0.08864l0.01648,0.08808l0.01753,0.08751l0.01823,0.08667l0.01928,0.08638l0.01998,0.08554l0.02069,0.08497l0.02139,0.08441l0.02209,0.08328l0.02314,0.08271l0.02384,0.08187l0.02419,0.0813l0.02524,0.08017l0.02595,0.07933l0.02665,0.0782l0.02735,0.07735l0.02805,0.0765l0.0284,0.07538l0.02945,0.07425l0.0298,0.07312l0.01543,0.03613l0.01543,0.03613l0.01543,0.03557l0.01578,0.03529l0.01578,0.03501l0.01613,0.03472l0.01613,0.03444l0.01648,0.03416l0.03576,0.07368l0.03646,0.07312l0.03716,0.07312l0.03752,0.07255l0.03787,0.07199l0.03857,0.07199l0.03892,0.07142l0.03927,0.07086l0.03997,0.07086l0.04067,0.07029l0.04102,0.07001l0.04172,0.06945l0.04172,0.06916l0.04277,0.06888l0.04312,0.06832l0.04348,0.06804l0.04418,0.06775l0.04453,0.06719l0.04523,0.06691l0.04558,0.06634l0.04593,0.06606l0.04698,0.06578l0.04698,0.06549l0.04768,0.06493l0.04838,0.06437l0.04873,0.06408l0.04909,0.0638l0.04979,0.06324l0.05049,0.06295l0.05084,0.06267l0.05119,0.06211l0.05189,0.06182l0.05224,0.06126l0.05294,0.06098l0.05364,0.0607l0.05364,0.06013l0.0547,0.05957l0.05505,0.05957l0.0554,0.05872l0.0561,0.05872l0.05645,0.05787l0.05715,0.05787l0.0575,0.05731l0.0582,0.05674l0.0589,0.05646l0.0589,0.05618l0.05995,0.05561l0.0603,0.05505l0.06066,0.05477l0.06136,0.05448l0.06171,0.05392l0.06241,0.05364l0.06311,0.05307l0.06346,0.05279l0.06381,0.05223l0.06451,0.05166l0.06521,0.05166l0.06556,0.05081l0.06627,0.05053l0.06662,0.05025l0.06697,0.04969l0.06802,0.04912l0.06802,0.04884l0.06872,0.04856l0.06942,0.04799l0.07012,0.04743l0.07012,0.04714l0.07117,0.04658l0.07152,0.0463l0.07187,0.04573l0.07258,0.04545l0.07328,0.04489l0.07363,0.04432l0.07433,0.04404l0.07468,0.04347l0.07538,0.04319l0.07573,0.04263l0.07643,0.04235l0.07678,0.04178l0.07748,0.04122l0.07819,0.04093l0.07854,0.04037l0.07889,0.04009l0.07994,0.03952l0.07994,0.03896l0.08099,0.03868l0.08134,0.03811l0.08169,0.03755l0.08239,0.03726l0.08309,0.0367l0.08345,0.03642l0.08415,0.03585l0.0845,0.03529l0.0852,0.03501l0.0859,0.03444l0.08625,0.03388l0.08695,0.03359l0.0873,0.03303l0.088,0.03246l0.08835,0.03218l0.08905,0.03162l0.08976,0.03105l0.09011,0.03077l0.09081,0.03021l0.09116,0.02964l0.09186,0.02936l0.09256,0.02879l0.09291,0.02823l0.09361,0.02767l0.09396,0.02738l0.09466,0.02682l0.09537,0.02654l0.09572,0.02569l0.09642,0.02541l0.09677,0.02484l0.09747,0.02456l0.09817,0.02371l0.09852,0.02343l0.09922,0.02315l0.09957,0.0223l0.10027,0.02202l0.10098,0.02146l0.10133,0.02089l0.10203,0.02061l0.10273,0.01976l0.10308,0.01948l0.10378,0.0192l0.10448,0.01835l0.06697,0.01129l0.06802,0.01101l0.06872,0.01045l0.06907,0.01016l0.06977,0.00932l0.07047,0.00932l0.07117,0.00847l0.07152,0.00847l0.07223,0.00762l0.07293,0.00762l0.07328,0.00706l0.07398,0.00649l0.07433,0.00621l0.07503,0.00593l0.07538,0.00565l0.07573,0.00508l0.07608,0.0048l0.07678,0.0048l0.07713,0.00395l0.07748,0.00395l0.07784,0.00367l0.07819,0.00311l0.07854,0.00311l0.07889,0.00282l0.07924,0.00226l0.07959,0.00226l0.07994,0.00198l0.07994,0.00169l0.08029,0.00169l0.08064,0.00113l0.16198,0.00198l0.16233,0.00113l0.16338,0.00028l0.16373,0l0.16409,-0.00085l0.16409,-0.00113l0.16444,-0.00169l0.16479,-0.00198l0.16409,-0.00226l0.32782,-0.00508l0.32572,-0.0048l0.32256,-0.0048l0.15988,-0.00198l0.15848,-0.00169l1.41296,-4.19362l0.0263,-0.07142l0.02489,-0.07114l0.01192,-0.03529l0.01157,-0.03501l0.01157,-0.03501l0.01087,-0.03472l0.01052,-0.03472l0.01017,-0.03444l0.00982,-0.03444l0.00947,-0.03416l0.00877,-0.03388l0.00841,-0.03388l0.00771,-0.03359l0.00771,-0.03359l0.00666,-0.03303l0.00666,-0.03331l0.00596,-0.03275l0.00526,-0.03275l0.00456,-0.03246l0.00421,-0.03246l0.00351,-0.0319l0.00316,-0.03218l0.00245,-0.03162l0.0014,-0.03162l0.00105,-0.03105l0.00035,-0.03134l-0.00035,-0.03077l-0.0007,-0.03077l-0.00175,-0.03021l-0.0028,-0.03021l-0.00316,-0.03021l-0.00386,-0.02964l-0.00491,-0.02964l-0.00561,-0.02936l-0.00631,-0.02908l-0.00701,-0.02879l-0.00806,-0.02851l-0.00912,-0.02851l-0.00982,-0.02795l-0.01052,-0.02795l-0.01157,-0.02767l-0.01227,-0.02738l-0.01367,-0.0271l-0.01437,-0.02682l-0.01508,-0.02654l-0.01648,-0.02625l-0.01718,-0.02625l-0.01823,-0.02569l-0.00947,-0.0127l-0.00982,-0.01299l-0.01017,-0.01242l-0.01017,-0.0127l-0.01052,-0.01242l-0.01087,-0.01242l-0.01122,-0.01242l-0.01122,-0.01242l-0.01157,-0.01214l-0.01192,-0.01214l-0.01227,-0.01214l-0.01262,-0.01214l-0.01262,-0.01186l-0.01297,-0.01186l-0.01332,-0.01186l-0.01367,-0.01186l-0.01367,-0.01157l-0.01437,-0.01157l-0.01437,-0.01157l-0.01473,-0.01157l-0.01508,-0.01129l-0.01543,-0.01129l-0.01543,-0.01129l-0.01613,-0.01101l-0.01613,-0.01101l-0.01648,-0.01101l-0.01683,-0.01101l-0.01718,-0.01073l-0.01963,-0.01214l-0.01998,-0.01157l-0.02034,-0.01157l-0.02069,-0.01073l-0.02104,-0.01073l-0.02139,-0.01045l-0.02174,-0.00988l-0.02209,-0.0096l-0.02244,-0.0096l-0.02279,-0.00903l-0.02279,-0.00875l-0.02314,-0.00819l-0.02384,-0.00819l-0.02384,-0.0079l-0.02419,-0.00762l-0.02419,-0.00706l-0.02489,-0.00706l-0.02489,-0.00678l-0.02524,-0.00649l-0.02559,-0.00621l-0.02595,-0.00565l-0.02595,-0.00565l-0.0263,-0.00536l-0.02665,-0.00536l-0.027,-0.0048l-0.027,-0.00452l-0.02735,-0.00452l-0.0277,-0.00423l-0.0277,-0.00395l-0.02805,-0.00367l-0.02805,-0.00367l-0.02875,-0.00311l-0.02875,-0.00311l-0.02875,-0.00311l-0.0291,-0.00254l-0.02945,-0.00254l-0.05925,-0.00452l-0.05995,-0.00367l-0.06066,-0.00282l-0.06136,-0.00254l-0.06206,-0.00169l-0.06276,-0.00113l-0.06346,-0.00056l-0.06381,-0.00028l-0.06451,0.00056l-0.06486,0.00085l-0.06556,0.00113l-0.06591,0.00141l-0.06627,0.00198l-0.06662,0.00226l-0.06662,0.00254l-0.06732,0.00254l-0.13534,0.00593l-0.13604,0.00621l-0.13674,0.00649l-0.13674,0.00621l-0.13709,0.00565l-0.06837,0.00282l-0.06837,0.00254l-0.06802,0.00198l-0.06802,0.00198l-0.06767,0.00169l-0.06767,0.00113l-0.06732,0.00085l-0.06697,0.00028l-0.06662,0l-0.06627,-0.00056l-0.06591,-0.00113l-0.06556,-0.00169l-0.06486,-0.00226l-0.06451,-0.00311l-0.06381,-0.00367l-0.06346,-0.00423l-0.06276,-0.00536l-0.0312,-0.00282l-0.0312,-0.00311l-0.03085,-0.00311l-0.0305,-0.00367l-0.0305,-0.00367l-0.0305,-0.00395l-0.04488,-0.00593l-0.04418,-0.00649l-0.04453,-0.00649l-0.04383,-0.00649l-0.04383,-0.00678l-0.04312,-0.00706l-0.04312,-0.00734l-0.04277,-0.00734l-0.04277,-0.00762l-0.04207,-0.00762l-0.04207,-0.00819l-0.04172,-0.00819l-0.04137,-0.00819l-0.04137,-0.00847l-0.04102,-0.00875l-0.04032,-0.00903l-0.04067,-0.00903l-0.03997,-0.00932l-0.03962,-0.00932l-0.03962,-0.0096l-0.03927,-0.00988l-0.03892,-0.01016l-0.03892,-0.01016l-0.03857,-0.01045l-0.03787,-0.01045l-0.03822,-0.01073l-0.03752,-0.01101l-0.03752,-0.01129l-0.03681,-0.01129l-0.03681,-0.01157l-0.03681,-0.01186l-0.03611,-0.01186l-0.03611,-0.01214l-0.03576,-0.01242l-0.03541,-0.01242l-0.03541,-0.0127l-0.03506,-0.01299l-0.03471,-0.01299l-0.03436,-0.01327l-0.03401,-0.01355l-0.03401,-0.01383l-0.03366,-0.01383l-0.03331,-0.01412l-0.03331,-0.01412l-0.03261,-0.01468l-0.03261,-0.01468l-0.03261,-0.01468l-0.03191,-0.01524l-0.03191,-0.01524l-0.03155,-0.01553l-0.0312,-0.01553l-0.0312,-0.01581l-0.03085,-0.01609l-0.0305,-0.01637l-0.03015,-0.01637l-0.03015,-0.01666l-0.0298,-0.01694l-0.02945,-0.01694l-0.0291,-0.01722l-0.0291,-0.0175l-0.02875,-0.01779l-0.0284,-0.01779l-0.0284,-0.01807l-0.0277,-0.01835l-0.02805,-0.01835l-0.02735,-0.01863l-0.02735,-0.01891l-0.027,-0.0192l-0.02665,-0.0192l-0.0263,-0.01948l-0.0263,-0.01976l-0.02595,-0.01976l-0.02559,-0.02033l-0.02559,-0.02004l-0.02524,-0.02061l-0.02489,-0.02089l-0.02489,-0.02089l-0.02454,-0.02117l-0.02419,-0.02117l-0.02384,-0.02146l-0.02384,-0.02174l-0.02349,-0.02202l-0.02314,-0.0223l-0.02314,-0.0223l-0.02279,-0.02258l-0.02244,-0.02287l-0.02244,-0.02287l-0.02209,-0.02343l-0.02174,-0.02343l-0.02139,-0.02343l-0.02139,-0.024l-0.02104,-0.024l-0.02069,-0.02428l-0.02069,-0.02456l-0.02034,-0.02456l-0.02034,-0.02484l-0.01963,-0.02513l-0.01963,-0.02541l-0.01963,-0.02541l-0.01893,-0.02597l-0.01893,-0.02597l-0.01893,-0.02597l-0.01823,-0.02654l-0.01823,-0.02654l-0.01788,-0.02682l-0.01788,-0.0271l-0.01753,-0.0271l-0.01718,-0.02767l-0.01718,-0.02767l-0.01683,-0.02795l-0.01648,-0.02795l-0.01648,-0.02823l-0.01613,-0.02879l-0.01578,-0.02851l-0.01578,-0.02908l-0.01543,-0.02936l-0.01508,-0.02936l-0.01508,-0.02964l-0.01473,-0.02992l-0.01437,-0.02992l-0.01437,-0.03021l-0.01402,-0.03077l-0.01367,-0.03049l-0.01367,-0.03105l-0.01332,-0.03105l-0.01332,-0.03162l-0.01262,-0.03162l-0.01297,-0.03162l-0.00947,-0.02484l-0.00947,-0.02484l-0.00912,-0.02541l-0.00912,-0.02541l-0.00877,-0.02569l-0.00877,-0.02625l-0.00841,-0.02625l-0.00806,-0.02654l-0.00806,-0.0271l-0.00806,-0.0271l-0.00736,-0.0271l-0.00771,-0.02767l-0.00701,-0.02767l-0.00701,-0.02823l-0.00666,-0.02795l-0.00666,-0.02851l-0.00631,-0.02851l-0.00596,-0.02879l-0.00596,-0.02908l-0.00561,-0.02908l-0.00526,-0.02908l-0.00526,-0.02936l-0.00491,-0.02964l-0.00456,-0.02964l-0.00421,-0.02992l-0.00421,-0.02992l-0.00351,-0.02992l-0.00351,-0.03021l-0.00351,-0.03021l-0.0028,-0.03021l-0.0028,-0.03049l-0.00245,-0.03021l-0.0021,-0.03049l-0.00175,-0.03077l-0.0014,-0.03049l-0.00105,-0.03077l-0.00105,-0.03049l-0.0007,-0.03077l0,-0.03077l0,-0.03077l0.00035,-0.03077l0.0007,-0.03077l0.00105,-0.03049l0.0014,-0.03077l0.0014,-0.03077l0.0021,-0.03049l0.00245,-0.03049l0.0028,-0.03049l0.00316,-0.03049l0.00316,-0.03049l0.00386,-0.03021l0.00421,-0.03021l0.00456,-0.03021l0.00491,-0.02992l0.00526,-0.02992l0.00561,-0.02992l0.00596,-0.02964l0.00666,-0.02964l0.00666,-0.02936l0.00736,-0.02936l0.00736,-0.02908l0.00806,-0.02879l0.00841,-0.02879l0.00877,-0.02851l0.01122,-0.03416l0.01122,-0.03416l0.01157,-0.03359l0.01192,-0.03359l0.01227,-0.03331l0.01262,-0.03331l0.01262,-0.03275l0.01332,-0.03275l0.01332,-0.03246l0.01367,-0.03218l0.01402,-0.03218l0.01437,-0.0319l0.01437,-0.03162l0.01508,-0.03134l0.01508,-0.03134l0.01578,-0.03077l0.01578,-0.03077l0.01578,-0.03049l0.01648,-0.03049l0.01683,-0.03021l0.01683,-0.02992l0.01718,-0.02964l0.01753,-0.02936l0.01788,-0.02936l0.01823,-0.02908l0.01858,-0.02879l0.01858,-0.02851l0.01893,-0.02851l0.01928,-0.02795l0.01963,-0.02795l0.01998,-0.02795l0.02034,-0.02738l0.02034,-0.02738l0.02069,-0.0271l0.02104,-0.02682l0.02139,-0.02654l0.02174,-0.02654l0.02174,-0.02625l0.02244,-0.02597l0.02244,-0.02597l0.02279,-0.02541l0.02279,-0.02541l0.02349,-0.02513l0.02349,-0.02484l0.02419,-0.02484l0.02419,-0.02428l0.02454,-0.02428l0.02454,-0.02428l0.02524,-0.02371l0.02524,-0.02371l0.02559,-0.02343l0.02595,-0.02315l0.02595,-0.02287l0.02665,-0.02287l0.02665,-0.0223l0.027,-0.0223l0.02735,-0.0223l0.0277,-0.02174l0.0277,-0.02174l0.02805,-0.02146l0.0284,-0.02117l0.02875,-0.02089l0.0291,-0.02089l0.0291,-0.02033l0.02945,-0.02033l0.0298,-0.02033l0.03015,-0.01976l0.0305,-0.01976l0.0305,-0.01948l0.03085,-0.0192l0.0312,-0.01891l0.03155,-0.01891l0.03155,-0.01863l0.03226,-0.01835l0.03226,-0.01807l0.03261,-0.01779l0.03261,-0.01779l0.03296,-0.0175l0.03366,-0.01722l0.03366,-0.01694l0.03366,-0.01694l0.03436,-0.01637l0.03436,-0.01637l0.03471,-0.01637l0.03506,-0.01581l0.03506,-0.01581l0.03541,-0.01524l0.03576,-0.01553l0.03611,-0.01496l0.03646,-0.01468l0.03646,-0.01468l0.03681,-0.0144l0.03716,-0.01412l0.03752,-0.01383l0.03752,-0.01383l0.03787,-0.01355l0.03822,-0.01327l0.03857,-0.01299l0.03857,-0.0127l0.03892,-0.0127l0.03927,-0.01242l0.03962,-0.01214l0.03962,-0.01186l0.03997,-0.01157l0.04032,-0.01157l0.04067,-0.01129l0.04067,-0.01101l0.04102,-0.01073l0.04137,-0.01073l0.04137,-0.01045l0.04207,-0.01016l0.04207,-0.00988l0.04242,-0.0096l0.04242,-0.0096l0.04277,-0.00903l0.04312,-0.00903l0.04348,-0.00875l0.04348,-0.00875l0.04418,-0.00819l0.04383,-0.00819l0.04453,-0.0079l0.04453,-0.00762l0.04488,-0.00762l0.04523,-0.00706l0.04558,-0.00706l0.04558,-0.00678l0.04593,-0.00649l0.04628,-0.00649l1.20785,0l0.07293,0.00028l0.07363,0.00028l0.14971,0.00141l0.15181,0.00226l0.15462,0.00282l0.15637,0.00339l0.15848,0.00367l0.32116,0.0079l0.16233,0.00395l0.16268,0.00367l0.16338,0.00339l0.16373,0.00311l0.16338,0.00226l0.16303,0.00169l0.08134,0.00056l0.08099,0.00028l0.08064,0l0.08064,-0.00028l0.08029,-0.00056l0.07994,-0.00085l0.07959,-0.00141l0.07924,-0.00141l0.07854,-0.00198l0.07854,-0.00226l0.07748,-0.00254l0.07713,-0.00311l0.07678,-0.00339l0.07608,-0.00395l0.07538,-0.00452l0.07468,-0.0048l0.07363,-0.00536l0.07328,-0.00593l0.07258,-0.00649l0.07152,-0.00678l0.07082,-0.00762l0.06977,-0.00819l0.06872,-0.00875l0.06802,-0.00932l0.06697,-0.00988l0.06591,-0.01045l0.03261,-0.00565l0.03226,-0.00565l0.03226,-0.00593l0.03155,-0.00621l0.03155,-0.00621l0.0312,-0.00621l0.03085,-0.00678l0.0305,-0.00678l0.0305,-0.00706l0.0298,-0.00706l0.0298,-0.00734l0.02945,-0.00762l0.0291,-0.00762l0.02875,-0.0079l0.0284,-0.00819l0.02805,-0.00819l0.0277,-0.00847l0.02735,-0.00875l0.027,-0.00903l0.02665,-0.00903l0.03787,-0.01355l0.03752,-0.01355l0.03681,-0.01355l0.03646,-0.01383l0.03576,-0.01412l0.03541,-0.0144l0.03471,-0.0144l0.03436,-0.0144l0.03366,-0.01496l0.03331,-0.01468l0.03261,-0.01524l0.03226,-0.01524l0.03191,-0.01553l0.0312,-0.01553l0.03085,-0.01581l0.03015,-0.01581l0.03015,-0.01609l0.02945,-0.01637l0.02875,-0.01637l0.02875,-0.01666l0.02805,-0.01666l0.0277,-0.01694l0.027,-0.01694l0.027,-0.0175l0.0263,-0.01722l0.02595,-0.01779l0.02559,-0.01779l0.02524,-0.01779l0.02489,-0.01807l0.02419,-0.01835l0.02419,-0.01835l0.02349,-0.01863l0.02314,-0.01863l0.02279,-0.01891l0.02279,-0.0192l0.02209,-0.0192l0.02174,-0.01948l0.02139,-0.01948l0.02104,-0.01976l0.02069,-0.01976l0.02069,-0.02033l0.01998,-0.02004l0.01963,-0.02033l0.01963,-0.02061l0.01928,-0.02089l0.01858,-0.02089l0.01858,-0.02089l0.01823,-0.02117l0.01823,-0.02146l0.01753,-0.02146l0.01753,-0.02174l0.01683,-0.02174l0.01718,-0.02202l0.01648,-0.0223l0.01648,-0.0223l0.01613,-0.02258l0.01578,-0.02258l0.01543,-0.02287l0.01543,-0.02287l0.01508,-0.02315l0.01508,-0.02315l0.01473,-0.02371l0.01437,-0.02343l0.01437,-0.02371l0.02805,-0.04799l0.02735,-0.04884l0.0263,-0.04912l0.02595,-0.04997l0.02524,-0.05053l0.02454,-0.05138l0.02419,-0.05166l0.02349,-0.05251l0.02314,-0.05307l0.02279,-0.05364l0.02244,-0.05448l0.02209,-0.05477l0.02174,-0.05561l0.02139,-0.05618l0.02139,-0.05674l0.02104,-0.05759l0.02104,-0.05787l0.02104,-0.05872l0.04207,-0.11913l0.04207,-0.12139l0.04312,-0.12421l0.04383,-0.12619l0.04523,-0.12873l0.04663,-0.13127l0.02419,-0.06662l0.02454,-0.06691l1.02378,-3.10393l0,-0.01666l-9.54184,0l0,0.00008zm24.05743,-6.38063l-0.14095,0.00056l-0.1413,0.00085l-0.28294,0.00198l-0.28294,0.00198l-0.28189,0.00169l-0.14024,0.00028l-0.14024,0.00028l-6.83899,0l-0.61427,0.09909l-0.03015,0.00762l-0.02945,0.0079l-0.0298,0.0079l-0.02945,0.00847l-0.0298,0.00847l-0.02945,0.00875l-0.0291,0.00903l-0.02945,0.00903l-0.0291,0.0096l-0.02875,0.0096l-0.0291,0.00988l-0.02875,0.00988l-0.02875,0.01016l-0.0284,0.01045l-0.0284,0.01073l-0.0284,0.01073l-0.02805,0.01101l-0.02805,0.01129l-0.02805,0.01157l-0.0277,0.01157l-0.0277,0.01186l-0.02735,0.01186l-0.02735,0.01214l-0.027,0.01242l-0.027,0.01242l-0.02665,0.0127l-0.02665,0.01299l-0.02665,0.01299l-0.0263,0.01327l-0.02595,0.01327l-0.02595,0.01355l-0.02559,0.01383l-0.02559,0.01383l-0.02524,0.01412l-0.02524,0.01412l-0.02489,0.0144l-0.02454,0.0144l-0.02454,0.01468l-0.02419,0.01468l-0.02419,0.01496l-0.02384,0.01524l-0.02349,0.01524l-0.02349,0.01524l-0.02314,0.01553l-0.02279,0.01553l-0.02244,0.01581l-0.02244,0.01609l-0.02209,0.01581l-0.02209,0.01609l-0.02139,0.01637l-0.02139,0.01637l-0.02104,0.01666l-0.02104,0.01666l-0.02034,0.01666l-0.02034,0.01666l-0.01998,0.01722l-0.01963,0.01694l-0.01963,0.01722l-0.01893,0.01722l-0.01893,0.0175l-0.01858,0.01722l-0.01823,0.01779l-0.01788,0.0175l-0.01753,0.01779l-0.0277,0.02879l-0.027,0.02908l-0.0263,0.02964l-0.02595,0.02964l-0.02524,0.03021l-0.02454,0.03049l-0.02419,0.03049l-0.02349,0.03105l-0.02279,0.03134l-0.02244,0.03162l-0.02209,0.0319l-0.02139,0.03246l-0.02069,0.03246l-0.02069,0.03275l-0.01963,0.03303l-0.01963,0.03331l-0.01928,0.03359l-0.01858,0.03359l-0.01823,0.03416l-0.01788,0.03444l-0.01753,0.03444l-0.01718,0.03472l-0.01683,0.03501l-0.01648,0.03529l-0.01613,0.03557l-0.01578,0.03557l-0.01578,0.03585l-0.01508,0.03613l-0.01508,0.03642l-0.01473,0.03642l-0.01473,0.0367l-0.01437,0.03698l-0.02805,0.07425l-0.02735,0.07509l-0.02665,0.07538l-0.0263,0.07622l-0.02595,0.07679l-0.02559,0.07735l-0.05119,0.15611l-0.05119,0.15753l-0.02595,0.07933l-0.02665,0.07989l-0.027,0.07961l-0.0277,0.08017l-0.0284,0.08017l-0.02945,0.08046l-1.28989,3.89636l-6.22507,18.75597l3.58358,0l0.13288,0.00028l0.13323,0.00028l0.26541,0.00141l0.26401,0.00141l0.13113,0.00056l0.13078,0l0.12937,-0.00028l0.12902,-0.00085l0.12762,-0.00141l0.12692,-0.00226l0.06276,-0.00169l0.06276,-0.00141l0.06206,-0.00198l0.06206,-0.00226l0.06136,-0.00226l0.06136,-0.00282l0.06066,-0.00311l0.0603,-0.00311l0.05995,-0.00367l0.0596,-0.00395l0.05925,-0.00423l0.05855,-0.0048l0.0582,-0.0048l0.05785,-0.00536l0.05715,-0.00593l0.0568,-0.00621l0.0561,-0.00649l0.05575,-0.00706l0.05505,-0.00762l0.0547,-0.0079l0.05399,-0.00847l0.05329,-0.00875l0.05294,-0.0096l0.05189,-0.00988l0.05189,-0.01045l0.05084,-0.01101l0.05014,-0.01157l0.04979,-0.01186l0.04909,-0.0127l0.04803,-0.01327l0.04768,-0.01412l0.04663,-0.0144l0.04628,-0.01496l0.04523,-0.01581l0.02244,-0.00819l0.02209,-0.00819l0.02209,-0.00847l0.02209,-0.00875l0.02139,-0.00875l0.02139,-0.00903l0.02139,-0.00903l0.02104,-0.00932l0.02069,-0.0096l0.02069,-0.0096l0.02034,-0.00988l0.02034,-0.01016l0.04172,-0.02146l0.04137,-0.02202l0.04067,-0.02258l0.03997,-0.02287l0.03962,-0.02343l0.03892,-0.024l0.03857,-0.02456l0.03787,-0.02484l0.03716,-0.02541l0.03681,-0.02597l0.03611,-0.02625l0.03576,-0.02682l0.03506,-0.02738l0.03471,-0.02767l0.03436,-0.02795l0.03366,-0.02879l0.03296,-0.02879l0.03261,-0.02936l0.03226,-0.02992l0.03155,-0.03021l0.0312,-0.03077l0.03085,-0.03077l0.03015,-0.03162l0.0298,-0.03162l0.02945,-0.03218l0.0291,-0.03275l0.0284,-0.03303l0.02805,-0.03331l0.0277,-0.03359l0.027,-0.03388l0.027,-0.03444l0.0263,-0.03472l0.02595,-0.03501l0.02559,-0.03557l0.02524,-0.03557l0.02489,-0.03613l0.02454,-0.03642l0.02419,-0.0367l0.02349,-0.03698l0.02349,-0.03726l0.02279,-0.03755l0.02279,-0.03783l0.02244,-0.03811l0.02174,-0.03839l0.02174,-0.03868l0.02139,-0.03896l0.02104,-0.03924l0.02069,-0.03952l0.02034,-0.0398l0.02034,-0.04009l0.01963,-0.04009l0.01963,-0.04065l0.01928,-0.04065l0.01893,-0.04093l0.01858,-0.04122l0.01858,-0.04122l0.01823,-0.0415l0.01788,-0.04178l0.01788,-0.04206l0.01718,-0.04206l0.01753,-0.04235l0.01683,-0.04263l0.01683,-0.04263l0.01648,-0.04291l0.03261,-0.0861l0.03191,-0.08695l0.03085,-0.08723l0.0305,-0.08808l0.0298,-0.08836l0.0291,-0.08893l0.02875,-0.08921l0.02805,-0.08949l0.0277,-0.08977l0.02735,-0.09034l0.027,-0.09034l0.02665,-0.09062l0.05259,-0.18124l0.05224,-0.1818l0.05189,-0.18124l0.05224,-0.18096l0.0263,-0.09034l0.02665,-0.08977l0.02665,-0.08949l0.027,-0.08949l0.02735,-0.08864l0.0277,-0.08836l0.0284,-0.08808l0.02875,-0.08723l0.0291,-0.08695l0.0298,-0.0861l0.0305,-0.08554l0.0312,-0.08497l4.73008,-14.18237l0.19038,-0.00056l0.18898,-0.00113l0.18687,-0.00169l0.18547,-0.00169l0.18372,-0.00226l0.18197,-0.00254l0.35867,-0.00508l0.35131,-0.00508l0.1732,-0.00226l0.17145,-0.00226l0.16934,-0.00198l0.16759,-0.00141l0.16584,-0.00113l0.16373,-0.00056l0.16233,0l0.16023,0.00085l0.15812,0.00141l0.07854,0.00085l0.07784,0.00141l0.07784,0.00141l0.07678,0.00169l0.07678,0.00169l0.07608,0.00226l0.07538,0.00226l0.07503,0.00282l0.07468,0.00282l0.07433,0.00311l0.07363,0.00367l0.07293,0.00367l0.07293,0.00423l0.07187,0.00452l0.07187,0.00452l0.07117,0.00508l0.07047,0.00565l0.07047,0.00565l0.06942,0.00621l0.06942,0.00649l0.06872,0.00706l0.06802,0.00706l0.06767,0.0079l0.06732,0.0079l0.06662,0.00875l0.06627,0.00875l0.06556,0.00932l0.06521,0.00988l0.06451,0.01045l0.06416,0.01073l0.06346,0.01101l0.06311,0.01186l0.06276,0.01214l0.06206,0.0127l0.06136,0.01327l0.06101,0.01355l0.06066,0.0144l0.05995,0.01468l0.05925,0.01524l0.0589,0.01609l0.05855,0.01637l0.0575,0.01694l0.0575,0.0175l0.0568,0.01835l0.0561,0.01863l0.05575,0.01948l0.05505,0.02004l0.0547,0.02061l0.05399,0.02117l0.05364,0.02202l0.05294,0.02258l0.05259,0.02315l0.05189,0.02371l0.05119,0.02456l0.05084,0.02541l0.05049,0.02597l0.04944,0.02654l0.02489,0.01355l0.02419,0.01383l0.02454,0.01412l0.02419,0.01412l0.02419,0.0144l0.02384,0.0144l0.02384,0.01468l0.02349,0.01496l0.02384,0.01496l0.02314,0.01524l0.02349,0.01553l0.02279,0.01553l0.02314,0.01609l0.02279,0.01581l0.02279,0.01637l0.02244,0.01637l0.02244,0.01666l0.02209,0.01666l0.02244,0.01722l0.02174,0.01722l0.02209,0.01722l0.02139,0.01779l0.02174,0.01779l0.02139,0.01807l0.02139,0.01835l0.02104,0.01835l0.02104,0.01863l0.02069,0.01891l0.02069,0.01891l0.02069,0.01948l0.02034,0.01948l0.02034,0.01976l0.01998,0.01976l0.01998,0.02033l0.01998,0.02033l0.01963,0.02061l0.01963,0.02061l0.01928,0.02117l0.01928,0.02117l0.01893,0.02146l0.01893,0.02174l0.01893,0.02202l0.01858,0.02202l0.01858,0.0223l0.01858,0.02258l0.01823,0.02287l0.01788,0.02315l0.01788,0.02315l0.01788,0.02371l0.01753,0.02371l0.01753,0.024l0.01753,0.02428l0.01718,0.02456l0.01718,0.02456l0.01683,0.02513l0.01683,0.02513l0.01648,0.02541l0.01648,0.02569l0.01613,0.02597l0.01648,0.02597l0.01578,0.02654l0.01613,0.02682l0.01543,0.02682l0.01578,0.0271l0.01543,0.02738l0.01508,0.02767l0.02805,0.05194l0.0277,0.05336l0.0277,0.05505l0.027,0.05646l0.027,0.05787l0.01332,0.02936l0.01297,0.02992l0.01297,0.02992l0.01297,0.03049l0.01262,0.03077l0.01227,0.03105l0.01227,0.03134l0.01192,0.03162l0.01192,0.0319l0.01157,0.03218l0.01122,0.03246l0.01122,0.03275l0.01052,0.03303l0.01052,0.03331l0.01017,0.03331l0.01017,0.03388l0.00947,0.03388l0.00912,0.03416l0.00912,0.03444l0.00841,0.03444l0.00806,0.03472l0.00771,0.03501l0.00736,0.03501l0.00701,0.03529l0.00666,0.03557l0.00596,0.03557l0.00561,0.03585l0.00526,0.03585l0.00456,0.03613l0.00421,0.03613l0.00386,0.03642l0.00316,0.03642l0.0028,0.03642l0.0021,0.0367l0.00175,0.0367l0.00105,0.03698l0.00035,0.0367l0,0.03698l-0.0007,0.03726l-0.0014,0.03698l-0.0021,0.03726l-0.00245,0.03698l-0.00316,0.03726l-0.00386,0.03726l-0.00456,0.03726l-0.00526,0.03726l-0.00596,0.03755l-0.00666,0.03726l-0.00736,0.03726l-0.00806,0.03726l-0.00877,0.03726l-0.00947,0.03726l-0.01052,0.03698l-0.01122,0.03726l-0.01297,0.04065l-0.01297,0.04065l-0.01367,0.04037l-0.01402,0.04037l-0.01402,0.04037l-0.01473,0.0398l-0.01508,0.0398l-0.01543,0.0398l-0.01543,0.03924l-0.01613,0.03924l-0.01648,0.03896l-0.01683,0.03896l-0.01718,0.03839l-0.01753,0.03811l-0.01788,0.03811l-0.01823,0.03783l-0.01858,0.03726l-0.01928,0.03726l-0.01928,0.0367l-0.01998,0.0367l-0.01998,0.03613l-0.02069,0.03585l-0.02104,0.03557l-0.02139,0.03529l-0.02174,0.03472l-0.02209,0.03444l-0.02244,0.03388l-0.02279,0.03388l-0.02349,0.03303l-0.02384,0.03303l-0.02419,0.03218l-0.02454,0.03218l-0.0291,0.0367l-0.0298,0.03642l-0.03015,0.03613l-0.03085,0.03585l-0.03155,0.03529l-0.03226,0.03501l-0.03261,0.03444l-0.03331,0.03416l-0.03366,0.03388l-0.03436,0.03331l-0.03506,0.03303l-0.03541,0.03246l-0.03611,0.03218l-0.03681,0.0319l-0.03716,0.03134l-0.03787,0.03077l-0.03857,0.03077l-0.03892,0.02992l-0.03962,0.02992l-0.03997,0.02936l-0.04067,0.02879l-0.04102,0.02851l-0.04172,0.02795l-0.04242,0.02767l-0.04277,0.02738l-0.04348,0.02682l-0.04383,0.02625l-0.04453,0.02597l-0.04523,0.02569l-0.04558,0.02513l-0.04593,0.02456l-0.04698,0.02428l-0.04698,0.02371l-0.04803,0.02343l-0.04803,0.02287l-0.04909,0.02258l-0.04944,0.02202l-0.04979,0.02174l-0.05049,0.02117l-0.05084,0.02061l-0.05154,0.02033l-0.05224,0.01976l-0.05259,0.01948l-0.05294,0.01891l-0.05364,0.01835l-0.05399,0.01807l-0.0547,0.0175l-0.0554,0.01694l-0.05575,0.01666l-0.0561,0.01637l-0.0568,0.01553l-0.05715,0.01524l-0.05785,0.01468l-0.0582,0.0144l-0.0589,0.01383l-0.05925,0.01327l-0.0596,0.01299l-0.0603,0.01242l-0.06101,0.01186l-0.06136,0.01129l-0.06171,0.01101l-0.06241,0.01045l-0.06276,0.01016l-0.06311,0.00932l-1.10582,0.01666l-0.12026,-0.00028l-0.12026,-0.00056l-0.24122,-0.00141l-0.24087,-0.00141l-0.11991,-0.00056l-0.11956,-0.00028l-0.11886,0l-0.11851,0.00056l-0.11745,0.00113l-0.11675,0.00169l-0.11605,0.00226l-0.0575,0.00169l-0.05715,0.00169l-0.0568,0.00198l-0.0568,0.00226l-0.0561,0.00254l-0.0561,0.00282l-0.0554,0.00282l-0.0554,0.00339l-0.0547,0.00367l-0.0547,0.00395l-0.05399,0.00423l-0.05364,0.0048l-0.05294,0.0048l-0.05294,0.00536l-0.05224,0.00565l-0.05189,0.00621l-0.05119,0.00649l-0.05084,0.00678l-0.05049,0.00734l-0.04979,0.00762l-0.04909,0.00819l-0.04873,0.00875l-0.04803,0.00903l-0.04733,0.0096l-0.04698,0.00988l-0.04628,0.01073l-0.04593,0.01101l-0.04488,0.01157l-0.04453,0.01214l-0.04348,0.0127l-0.04312,0.01327l-0.04242,0.01383l-0.04137,0.0144l-0.04102,0.01496l-0.04032,0.01581l-0.03927,0.01609l-0.01928,0.00847l-0.01928,0.00847l-0.01928,0.00875l-0.01858,0.00875l-0.04944,0.02371l-0.04873,0.02456l-0.04838,0.02484l-0.04838,0.02569l-0.04768,0.02597l-0.04698,0.02682l-0.04698,0.0271l-0.04628,0.02795l-0.04593,0.02823l-0.04523,0.02879l-0.04488,0.02936l-0.04418,0.02992l-0.04383,0.03049l-0.04312,0.03105l-0.04277,0.03134l-0.04207,0.03218l-0.04137,0.03246l-0.04067,0.03303l-0.03997,0.03331l-0.03962,0.03416l-0.03857,0.03416l-0.03822,0.03501l-0.03716,0.03529l-0.03646,0.03585l-0.03576,0.03642l-0.03506,0.0367l-0.03436,0.03698l-0.03331,0.03755l-0.03261,0.03811l-0.03155,0.03839l-0.0312,0.03896l-0.0298,0.03924l-0.01578,0.02117l-0.01508,0.02146l-0.01508,0.02146l-0.01437,0.02202l-0.01437,0.02202l-0.01402,0.02202l-0.01367,0.0223l-0.01332,0.02258l-0.01297,0.02287l-0.01262,0.02287l-0.01262,0.02315l-0.01192,0.02315l-0.01192,0.02343l-0.01192,0.02343l-0.01122,0.02371l-0.01122,0.02371l-0.01087,0.024l-0.01087,0.02428l-0.02069,0.04856l-0.02034,0.04912l-0.01928,0.04969l-0.01858,0.04997l-0.01823,0.05053l-0.01753,0.05081l-0.01718,0.05138l-0.01683,0.05138l-0.01648,0.05194l-0.01613,0.05223l-0.01613,0.05223l-0.06381,0.21088l-0.03261,0.10615l-0.01683,0.05307l-0.01718,0.05279l-0.01753,0.05307l-0.01788,0.05279l-0.01858,0.05279l-0.01928,0.05251l-1.14649,3.41757l0,0.01666l0.18232,0l0.18372,0.00056l0.18442,0.00085l0.18582,0.00113l0.18687,0.00141l0.18758,0.00198l0.37796,0.00423l0.38076,0.0048l0.38322,0.00508l0.38497,0.00565l0.38672,0.00508l0.38777,0.0048l0.19389,0.00226l0.19389,0.00198l0.19424,0.00169l0.19389,0.00141l0.19389,0.00113l0.19354,0.00085l0.19319,0.00028l0.19284,0l0.19284,-0.00028l0.19213,-0.00085l0.19143,-0.00169l0.19108,-0.00198l0.19038,-0.00254l0.18968,-0.00311l0.18898,-0.00367l0.18793,-0.00452l0.18723,-0.00536l0.18617,-0.00593l0.18512,-0.00678l0.09221,-0.00367l0.09186,-0.00395l0.09186,-0.00395l0.09116,-0.00452l0.09116,-0.00452l0.09046,-0.0048l0.09046,-0.0048l0.09011,-0.00536l0.08976,-0.00536l0.08941,-0.00565l0.08905,-0.00593l0.08835,-0.00649l0.08835,-0.00621l0.088,-0.00678l0.08765,-0.00706l0.08695,-0.00734l0.08695,-0.00734l0.08625,-0.0079l0.0859,-0.00819l0.08555,-0.00819l0.0852,-0.00875l0.0845,-0.00903l0.08415,-0.00932l0.0838,-0.00932l0.08345,-0.00988l0.08274,-0.01016l0.08239,-0.01073l0.08169,-0.01073l0.08134,-0.01101l0.08099,-0.01157l0.08029,-0.01186l0.07994,-0.01214l0.07924,-0.01242l0.07854,-0.0127l0.07854,-0.01327l0.07748,-0.01355l0.07713,-0.01383l0.07678,-0.01412l0.07573,-0.01468l0.07538,-0.01496l0.07503,-0.01524l0.07433,-0.01581l0.07363,-0.01609l0.07293,-0.01666l0.07223,-0.01666l0.07187,-0.0175l0.07117,-0.0175l0.07047,-0.01807l0.06977,-0.01863l0.06942,-0.01891l0.06837,-0.0192l0.06767,-0.01976l0.06732,-0.02033l0.06662,-0.02061l0.0866,-0.02738l0.08625,-0.02795l0.08555,-0.02823l0.0852,-0.02879l0.08485,-0.02879l0.0845,-0.02936l0.0838,-0.02992l0.08309,-0.02992l0.08309,-0.03049l0.08239,-0.03077l0.08169,-0.03105l0.08134,-0.03162l0.08099,-0.0319l0.08064,-0.03218l0.07994,-0.03275l0.07959,-0.03303l0.07889,-0.03331l0.07854,-0.03388l0.07819,-0.03388l0.07784,-0.03444l0.07713,-0.03501l0.07643,-0.03501l0.07643,-0.03557l0.07573,-0.03613l0.07503,-0.03613l0.07503,-0.0367l0.07433,-0.03698l0.07363,-0.03726l0.07328,-0.03783l0.07293,-0.03811l0.07258,-0.03868l0.07187,-0.03868l0.07152,-0.03924l0.07082,-0.03952l0.07082,-0.04009l0.06977,-0.04037l0.06977,-0.04065l0.06907,-0.04093l0.06872,-0.0415l0.06802,-0.04178l0.06802,-0.04235l0.06697,-0.04263l0.06697,-0.04291l0.06627,-0.04319l0.06591,-0.04376l0.06521,-0.04404l0.06486,-0.04432l0.06451,-0.0446l0.06416,-0.04517l0.06346,-0.04573l0.06311,-0.04573l0.06241,-0.0463l0.06206,-0.04658l0.06171,-0.04714l0.06136,-0.04743l0.06066,-0.04771l0.0603,-0.04799l0.0596,-0.04856l0.05925,-0.04884l0.0589,-0.0494l0.05855,-0.0494l0.05785,-0.05025l0.0575,-0.05025l0.0568,-0.05081l0.0568,-0.0511l0.0561,-0.05138l0.0554,-0.05194l0.0554,-0.05223l0.0547,-0.05279l0.05399,-0.05279l0.05399,-0.05336l0.05329,-0.05392l0.05259,-0.0542l0.05259,-0.05448l0.05189,-0.05477l0.05154,-0.05533l0.05084,-0.05561l0.05049,-0.0559l0.05014,-0.05646l0.04979,-0.05674l0.04909,-0.05731l0.04873,-0.05731l0.04838,-0.05815l0.04768,-0.05815l0.04733,-0.05872l0.04698,-0.059l0.04628,-0.05957l0.04593,-0.05957l0.04558,-0.06041l0.04488,-0.06041l0.04488,-0.06098l0.04418,-0.06126l0.04348,-0.06182l0.04312,-0.06211l0.04277,-0.06239l0.04242,-0.06295l0.04207,-0.06324l0.04137,-0.06352l0.04102,-0.06408l0.04032,-0.06437l0.03997,-0.06465l0.03962,-0.06521l0.03927,-0.06549l0.03857,-0.06606l0.03822,-0.06634l0.03787,-0.06662l0.03752,-0.06691l0.03681,-0.06747l0.03646,-0.06775l0.03611,-0.06832l0.03541,-0.0686l0.03506,-0.06916l0.03471,-0.06916l0.03401,-0.06973l0.03366,-0.07029l0.03331,-0.07058l0.03296,-0.07086l0.03226,-0.07114l0.03226,-0.07171l0.0312,-0.07227l0.0312,-0.07227l0.0305,-0.07283l0.03015,-0.0734l0.0298,-0.07368l0.0291,-0.07396l0.02875,-0.07425l0.0284,-0.07481l0.02805,-0.07538l0.03716,-0.10219l0.03716,-0.10473l0.03716,-0.10756l0.03716,-0.10982l0.01858,-0.0559l0.01823,-0.05646l0.01823,-0.05674l0.01788,-0.05759l0.01788,-0.05815l0.01788,-0.05872l0.01753,-0.059l0.01718,-0.05957l0.01718,-0.06013l0.01683,-0.0607l0.01648,-0.06098l0.01648,-0.06154l0.01578,-0.06182l0.01578,-0.06239l0.01543,-0.06267l0.01473,-0.06324l0.01473,-0.06352l0.01402,-0.0638l0.01402,-0.06437l0.01332,-0.06437l0.01262,-0.06493l0.01262,-0.06521l0.01192,-0.06549l0.01122,-0.06606l0.01122,-0.06606l0.01017,-0.06634l0.00982,-0.06662l0.00912,-0.06691l0.00877,-0.06691l0.00771,-0.06719l0.00736,-0.06775l0.00701,-0.06747l0.00596,-0.06775l0.00526,-0.06804l0.00456,-0.06832l0.00386,-0.06804l0.00316,-0.0686l0.00245,-0.06832l0.0014,-0.0686l0.00105,-0.06888l-0.00035,-0.0686l-0.0007,-0.06888l-0.00175,-0.0686l-0.0028,-0.06888l-0.00351,-0.06888l-0.00421,-0.06888l-0.00561,-0.06888l-0.00631,-0.06888l-0.00701,-0.0686l-0.00841,-0.06888l-0.00947,-0.0686l-0.01017,-0.0686l-0.00561,-0.03444l-0.00561,-0.03416l-0.00631,-0.03416l-0.00631,-0.03416l-0.00666,-0.03416l-0.00666,-0.03416l-0.00736,-0.03416l-0.00736,-0.03388l-0.02489,-0.11095l-0.02489,-0.1101l-0.02489,-0.10925l-0.02559,-0.1084l-0.02595,-0.10756l-0.0263,-0.10671l-0.02735,-0.10615l-0.0277,-0.10558l-0.01437,-0.05251l-0.01437,-0.05223l-0.01473,-0.05194l-0.01508,-0.05194l-0.01543,-0.05194l-0.01543,-0.05138l-0.01578,-0.05138l-0.01613,-0.05138l-0.01648,-0.0511l-0.01683,-0.0511l-0.01718,-0.05081l-0.01753,-0.05053l-0.01788,-0.05053l-0.01823,-0.05025l-0.01893,-0.05025l-0.01893,-0.05025l-0.02174,-0.05533l-0.02209,-0.05533l-0.02279,-0.05505l-0.02279,-0.05505l-0.02349,-0.05448l-0.02349,-0.05448l-0.02419,-0.0542l-0.02454,-0.05392l-0.02489,-0.05392l-0.02524,-0.05336l-0.02559,-0.05336l-0.02595,-0.05307l-0.0263,-0.05279l-0.02665,-0.05279l-0.027,-0.05223l-0.02735,-0.05223l-0.0277,-0.05194l-0.02805,-0.05194l-0.02875,-0.05138l-0.02875,-0.05138l-0.0291,-0.0511l-0.02945,-0.05081l-0.02945,-0.05053l-0.03015,-0.05053l-0.0305,-0.05025l-0.0305,-0.04997l-0.0312,-0.04969l-0.0312,-0.0494l-0.03155,-0.0494l-0.03191,-0.04912l-0.03226,-0.04884l-0.03261,-0.04856l-0.03296,-0.04827l-0.03296,-0.04827l-0.03331,-0.04799l-0.03366,-0.04771l-0.03401,-0.04743l-0.03401,-0.04743l-0.03436,-0.04686l-0.03471,-0.04686l-0.03506,-0.04658l-0.03506,-0.04658l-0.03541,-0.04602l-0.03576,-0.04602l-0.03611,-0.04573l-0.03611,-0.04545l-0.03611,-0.04517l-0.03681,-0.04517l-0.03681,-0.0446l-0.03716,-0.0446l-0.03716,-0.0446l-0.03752,-0.04404l-0.03787,-0.04376l-0.03787,-0.04376l-0.03822,-0.04347l-0.03822,-0.04319l-0.03857,-0.04319l-0.03857,-0.04263l-0.03892,-0.04263l-0.03927,-0.04235l-0.03927,-0.04206l-0.03927,-0.04178l-0.03962,-0.04178l-0.03962,-0.0415l-0.03787,-0.03868l-0.03787,-0.03868l-0.03822,-0.03868l-0.03857,-0.03839l-0.03857,-0.03811l-0.03927,-0.03811l-0.03927,-0.03783l-0.03927,-0.03755l-0.03997,-0.03755l-0.03997,-0.03726l-0.04032,-0.03726l-0.04067,-0.03698l-0.04067,-0.0367l-0.04137,-0.0367l-0.04137,-0.03642l-0.04137,-0.03613l-0.04207,-0.03613l-0.04207,-0.03585l-0.04242,-0.03585l-0.04277,-0.03557l-0.04277,-0.03529l-0.04312,-0.03529l-0.04348,-0.03501l-0.04383,-0.03501l-0.04383,-0.03444l-0.04418,-0.03472l-0.04453,-0.03416l-0.04488,-0.03416l-0.04488,-0.03388l-0.04523,-0.03388l-0.04558,-0.03359l-0.04593,-0.03331l-0.04593,-0.03331l-0.04628,-0.03303l-0.04663,-0.03275l-0.04663,-0.03275l-0.04698,-0.03246l-0.04733,-0.03218l-0.04768,-0.0319l-0.04768,-0.0319l-0.04803,-0.0319l-0.04838,-0.03134l-0.04873,-0.03134l-0.04873,-0.03134l-0.04909,-0.03077l-0.04944,-0.03077l-0.04979,-0.03049l-0.04979,-0.03049l-0.05014,-0.03021l-0.05014,-0.02992l-0.05084,-0.02964l-0.05084,-0.02964l-0.05119,-0.02936l-0.05119,-0.02936l-0.05189,-0.02879l-0.05189,-0.02879l-0.05224,-0.02879l-0.05224,-0.02823l-0.05259,-0.02823l-0.05294,-0.02795l-0.05329,-0.02795l-0.05329,-0.02738l-0.05364,-0.02738l-0.05399,-0.02738l-0.05399,-0.02682l-0.0547,-0.02682l-0.0547,-0.02654l-0.0547,-0.02654l-0.0554,-0.02597l-0.0554,-0.02597l-0.05575,-0.02597l-0.05575,-0.02541l-0.0561,-0.02541l-0.05645,-0.02513l-0.0568,-0.02484l-0.0568,-0.02484l-0.05715,-0.02428l-0.0575,-0.02428l-0.0575,-0.02428l-0.0582,-0.02371l-0.0582,-0.02371l-0.0582,-0.02343l-0.0589,-0.02315l-0.0589,-0.02315l-0.0589,-0.02287l-0.0596,-0.02258l-0.0596,-0.0223l-0.05995,-0.02202l-0.05995,-0.02202l-0.0603,-0.02174l-0.06066,-0.02146l-0.06101,-0.02146l-0.06101,-0.02089l-0.06136,-0.02089l-0.06171,-0.02061l-0.06206,-0.02033l-0.06206,-0.02033l-0.06241,-0.02004l-0.06241,-0.01976l-0.06276,-0.01948l-0.06311,-0.0192l-0.06346,-0.0192l-0.06346,-0.01863l-0.06381,-0.01863l-0.06416,-0.01863l-0.06451,-0.01807l-0.06451,-0.01779l-0.06451,-0.01779l-0.06521,-0.0175l-0.06521,-0.01722l-0.06556,-0.01722l-0.06591,-0.01666l-0.06591,-0.01666l-0.06627,-0.01637l-0.06627,-0.01609l-0.06697,-0.01581l-0.06697,-0.01553l-0.06697,-0.01553l-0.06767,-0.01524l-0.06767,-0.01496l-0.06802,-0.01468l-0.06802,-0.0144l-0.06837,-0.0144l-0.06872,-0.01383l-0.06907,-0.01383l-0.06907,-0.01355l-0.06942,-0.01327l-0.06942,-0.01299l-0.05785,-0.01045l-0.0582,-0.01016l-0.0589,-0.0096l-0.05925,-0.00932l-0.05995,-0.00875l-0.0603,-0.00847l-0.06066,-0.0079l-0.06101,-0.0079l-0.06171,-0.00734l-0.06206,-0.00706l-0.06241,-0.00649l-0.06276,-0.00649l-0.06311,-0.00593l-0.06381,-0.00565l-0.06381,-0.00536l-0.06451,-0.00508l-0.06451,-0.0048l-0.06521,-0.00423l-0.06556,-0.00423l-0.06556,-0.00395l-0.06591,-0.00367l-0.06662,-0.00339l-0.06662,-0.00311l-0.06697,-0.00311l-0.06697,-0.00254l-0.06767,-0.00254l-0.06767,-0.00226l-0.06802,-0.00198l-0.13639,-0.00339l-0.13744,-0.00282l-0.13849,-0.00198l-0.13884,-0.00169l-0.13954,-0.00085l-0.13989,-0.00056l-0.14059,0l-0.14095,0.00028l-0.00005,0.00008z" fill="#fff" stroke="null"/>
  </g>
 </g>
</svg>